<svg width="87" height="96" viewBox="0 0 87 96" fill="none" xmlns="http://www.w3.org/2000/svg">
<path fill-rule="evenodd" clip-rule="evenodd" d="M67.9904 94.0077C68.0218 93.983 68.0158 93.9873 67.9884 94.0092C67.989 94.0089 67.9898 94.0083 67.9904 94.0077" fill="black"/>
<path fill-rule="evenodd" clip-rule="evenodd" d="M85.9928 78.0068C86.0174 77.9852 86.0074 77.992 85.9923 78.007C85.9926 78.007 85.9926 78.0068 85.9928 78.0068" fill="black"/>
<path fill-rule="evenodd" clip-rule="evenodd" d="M71.9935 91.0059C72.028 90.9784 72.008 90.9906 71.9878 91.0102C71.9898 91.0088 71.9918 91.0074 71.9935 91.0059" fill="black"/>
<path fill-rule="evenodd" clip-rule="evenodd" d="M78.9963 84.0037C79.0311 83.9764 79.0071 83.9912 78.986 84.0113C78.9895 84.0088 78.9929 84.0062 78.9963 84.0037" fill="black"/>
<mask id="mask0" mask-type="alpha" maskUnits="userSpaceOnUse" x="0" y="0" width="87" height="96">
<path fill-rule="evenodd" clip-rule="evenodd" d="M0 0.117188H86.9759V95.9631H0V0.117188Z" fill="white"/>
</mask>
<g mask="url(#mask0)">
<path fill-rule="evenodd" clip-rule="evenodd" d="M85.4585 80.3616C83.8074 81.6798 85.8923 80.3013 80.0262 84.9062C80.0981 84.8626 66.6957 95.7308 66.6305 95.5588C66.6318 95.5626 66.6334 95.5665 66.6347 95.57C66.5891 95.3993 66.6373 95.5822 66.6174 94.8251C67.1998 94.1113 68.3611 84.0208 68.3688 83.9457C69.4333 78.5833 68.4783 83.7463 68.5309 84.1501C68.5309 84.2313 68.5691 84.2644 68.6307 84.2987C67.9571 89.578 67.9992 89.8642 67.7652 92.3066C67.7534 92.4414 67.9469 92.5573 68.071 92.4328C68.1837 92.3204 68.064 92.3554 68.5848 87.5704C68.6836 86.7119 68.631 87.0213 68.7051 87.0954C68.8893 87.2796 69.0325 87.0155 69.5112 86.4702C69.4211 87.8127 69.6274 87.382 68.7125 88.3458C68.5428 88.523 68.8101 88.7631 68.968 88.5987C69.1124 88.446 69.259 88.2932 69.4044 88.1408C69.3839 88.4084 69.3636 88.6758 69.3431 88.9431C69.3248 89.1514 69.6791 89.2092 69.7025 88.9431C69.8132 87.4546 69.6338 87.9052 70.5811 86.907C70.7255 86.9728 70.8269 86.8631 70.8269 86.7552C70.8286 86.5745 72.1982 85.1925 72.2697 85.1206C72.2826 85.2086 72.348 85.285 72.4427 85.285C72.6721 85.285 72.6221 85.0253 72.6121 84.783C74.0581 83.3458 75.5946 82.124 75.5946 81.9532C75.5946 81.7908 75.4126 81.7125 75.2894 81.8216C74.361 82.6522 73.4786 83.4607 72.805 84.0901C72.5264 84.3542 72.5884 84.5632 72.5925 82.9867C72.8794 82.6689 73.0502 82.4645 73.8778 81.6387C73.8611 82.4423 73.7735 82.7976 74.036 82.7976C74.2664 82.7976 74.2266 82.6176 74.2449 81.2824C75.0099 80.5465 75.3398 80.4329 75.1331 80.2259C74.9624 80.0551 74.7878 80.3048 74.2468 80.7988C74.2436 80.1399 74.2959 79.895 74.061 79.895C73.8049 79.895 73.896 80.1408 73.8864 81.1319C73.4744 81.5264 73.0774 81.9147 72.5935 82.4513C72.5967 81.1255 72.6015 81.5729 72.6096 80.6649C74.0209 79.2043 74.2664 79.2592 74.2664 79.0621C74.2664 78.435 73.0861 79.6722 72.6153 80.1456C72.6201 79.7759 72.6185 79.4062 72.6278 79.0365C73.1073 78.5724 73.1304 78.6022 73.1304 78.4912C73.1304 77.7016 71.5291 79.7092 70.9694 80.334C71.0314 78.5348 70.9322 78.9004 71.3426 78.3535C71.6096 78.4501 71.6783 78.4957 71.7733 78.4989C71.9671 78.5056 72.013 78.2354 71.8657 78.1648C71.7938 78.1279 71.6459 78.0662 71.5846 78.0428C71.8323 77.7257 71.703 77.8085 72.0679 77.8897C76.4161 78.823 80.7271 79.1982 82.9606 79.1626C87.915 79.0345 86.2877 78.9575 86.5826 79.5124C86.4318 79.6559 86.6477 79.4171 85.4585 80.3616V80.3616ZM65.1441 95.3569C62.6921 95.3235 49.0027 92.9264 43.5304 92.6058C38.7718 92.3198 39.1832 92.1725 36.3307 91.8506C34.9434 91.6863 21.9408 90.7138 21.8683 90.7051C15.1974 89.7769 15.6871 89.498 12.8474 88.9476C6.9258 87.781 8.21711 88.412 3.44691 87.1397C2.01376 86.7597 1.37485 86.7831 0.473754 86.3775C0.473754 76.1961 0.0835373 56.4556 1.00196 23.2168C12.53 24.1831 6.42231 24.412 23.6072 25.4229C23.8335 25.4329 24.5032 25.4958 24.7468 25.5212C25.3831 25.5953 25.0625 24.7403 24.044 32.7335C23.8774 34.1739 23.9772 33.8253 23.4603 34.0038C22.5582 34.325 22.2578 35.2083 22.1718 36.1541C22.1182 36.6911 22.2229 37.1657 22.7305 37.6058C23.7407 38.4608 25.0664 38.0538 24.4387 38.1886C23.8867 38.3102 23.0174 38.3902 22.4568 38.43C22.2014 38.4447 22.2383 38.8019 22.4568 38.7894C23.6672 38.7005 24.2798 38.6158 25.042 38.4104C25.1768 38.3764 26.0201 38.1231 26.092 38.0034C26.177 37.8442 26.0153 37.6892 25.8898 37.7396C25.3147 37.9646 25.6815 37.824 25.8853 37.687C27.2103 36.7793 27.6057 34.5619 25.8516 33.9983C25.6424 33.9284 25.5121 34.2621 25.7563 34.3437C25.9556 34.4101 25.7958 34.3469 25.7313 34.4643C25.6937 34.5269 25.6963 34.6033 25.7483 34.6672C25.8686 34.8283 25.6774 34.6155 25.5708 34.7991C25.4819 34.9509 25.6174 35.0324 25.7114 35.0911C25.714 35.1486 25.7165 35.2064 25.7181 35.2638C25.5506 35.2917 25.5705 35.4294 25.5426 35.596C25.4723 35.7122 25.3722 36.1958 25.3776 36.3313C25.4123 36.7251 25.042 36.942 25.1139 36.8702C24.801 37.0961 23.7625 36.9956 23.4843 36.8506C22.8618 36.3627 23.0553 35.3469 23.3367 34.9432C23.2818 35.0154 23.3954 34.8418 23.8267 34.4268C23.6897 35.4695 23.655 35.5196 23.7436 35.6082C23.8899 35.7542 23.5453 36.5925 24.4079 36.6359C24.86 36.6359 25.2814 36.4083 25.4101 35.8723C25.4592 35.7093 25.5936 34.8007 25.4518 34.6752C25.5365 34.0278 25.9678 32.132 26.099 30.9375C26.2081 30.0343 26.1616 30.0654 26.4077 26.9988C26.5207 25.7477 26.591 25.8164 26.4177 25.732C26.469 25.3844 42.501 28.3619 51.267 28.4787C51.0568 32.2915 51.0642 35.5764 51.0851 38.1575C50.8945 38.1459 50.4375 38.7236 50.3239 39.0125C50.0425 39.6849 50.1753 40.4388 50.9638 40.7809C51.4981 41.0187 52.5869 40.9789 52.6591 40.9661C52.9713 40.9096 53.0788 40.6236 53.2707 40.4638C53.6295 40.1538 53.7511 39.7115 53.6119 40.1859C53.5178 40.5145 53.2605 40.924 53.0281 41.1766C52.3581 41.8708 51.8087 41.8012 50.9972 41.4619C50.1166 41.0563 49.7604 40.4468 49.9009 39.3443C50.0431 38.3593 50.1869 38.2977 50.9901 37.9007C51.1775 37.8038 51.0453 37.4742 50.8078 37.5888C50.4969 37.7502 50.0749 37.9331 49.8814 38.212C49.5483 38.6989 49.1324 40.3553 50.148 41.3451C52.4508 43.5388 55.2276 40.2732 53.4575 38.3555C53.1902 38.0573 52.592 37.7877 52.4926 37.7961C52.3745 35.8771 52.4592 28.5612 52.4601 28.4883C55.0989 28.497 64.8556 28.315 70.748 29.506C70.7342 30.173 70.8038 29.8979 70.4098 30.6117C70.2904 30.8296 70.6097 30.9917 70.7214 30.7943C71.0516 30.1954 70.9916 30.1194 70.8959 32.1898C70.8093 33.85 69.8597 43.9515 69.7003 48.1944C69.5485 52.7615 70.4541 61.1276 66.8734 85.44C66.2105 89.9833 66.3523 93.2974 66.1341 95.2109C65.9772 95.1981 65.9499 95.3264 65.9364 95.4307C65.4695 95.364 65.535 95.3646 65.1441 95.3569V95.3569ZM8.82008 23.6972C7.69051 23.5948 7.55766 23.5717 6.80193 23.4408C5.29819 23.1802 5.75387 23.2983 6.34272 23.2736C7.30864 23.2517 7.43411 23.2999 8.82008 23.6972V23.6972ZM3.23832 22.6596C3.23736 22.6599 3.23607 22.6602 3.23511 22.6602C5.70381 22.38 4.41571 22.7405 6.92388 22.2385C7.10904 22.2032 9.4529 22.0084 9.52543 22.0029C9.44103 22.0585 8.64712 23.2678 9.02995 23.3792C9.21768 23.4315 9.25908 23.227 9.32679 23.0566C9.5819 22.4911 9.7953 22.2629 9.7953 22.1419C9.7953 21.8778 9.3223 22.0954 10.8155 21.8675C10.7086 21.9195 9.59217 23.0861 9.93201 23.2899C10.1326 23.4035 10.2 23.1654 10.3418 22.9558C10.6922 22.4025 11.3751 21.9503 10.9258 21.8508C11.4926 21.7629 11.4162 21.76 12.0028 21.7269C9.88098 24.8244 11.6434 23.6584 7.3449 22.9565C6.20121 22.7681 1.59338 22.9417 3.23832 22.6596V22.6596ZM13.2049 22.1846C12.9247 22.1377 12.9982 22.4905 12.618 23.1189C12.1677 23.8776 12.1392 23.893 12.196 24.0156C12.0346 23.9979 11.3741 23.8474 11.0901 23.8012C12.3112 21.7815 12.4309 21.8967 12.3452 21.7067C14.0768 21.6692 13.7729 21.3479 13.2049 22.1846V22.1846ZM13.2909 19.0599C13.5158 19.1041 13.5232 18.8464 13.573 18.5788C13.5957 18.4831 13.5479 18.3849 13.4494 18.3595C13.2877 18.314 13.2848 18.5717 13.2848 18.1561C13.2848 15.4393 13.4045 17.1939 14.3941 18.5203C14.1705 18.5463 13.6814 19.6902 13.5778 19.9136C13.4735 20.1674 13.7976 20.2798 13.8897 20.0962C14.2282 19.3635 14.0957 19.5785 14.5687 18.7793C14.6454 18.6558 15.5847 20.1414 15.8956 20.8193C15.7628 20.8527 13.8172 21.2262 13.5707 21.2612C13.1532 21.3129 13.3589 21.3132 13.3551 21.1682C13.33 20.291 13.3121 21.3309 13.2909 19.0599V19.0599ZM14.5357 16.3032C18.5078 16.3341 18.2815 16.8899 22.2941 17.1059C23.1069 17.1467 24.1425 17.3312 25.3263 17.4352C24.3604 18.3457 24.1082 18.7318 23.2822 19.971C20.9643 23.4485 20.7133 23.8712 20.9441 24.005C21.2714 24.1969 23.5819 19.5634 25.3061 17.9497C25.6546 17.6191 25.6915 17.6146 25.6915 17.509C25.6915 17.4503 25.5294 17.4628 26.2829 17.4949C26.0718 18.4314 25.2143 24.7133 25.2044 24.7859C22.6304 24.4508 23.0274 24.5468 23.0623 24.4749C25.3574 19.7454 25.9893 20.1199 25.6867 19.8173C25.1864 19.3169 22.6834 24.2409 22.7366 24.4325C22.7694 24.5638 22.082 24.2672 20.2878 24.4136C19.2295 24.5176 19.5639 24.4954 17.7139 24.3828C16.1312 24.3022 16.3664 24.4431 16.3504 24.3141C16.3321 24.1719 16.4052 23.3525 16.4383 22.6782C16.4986 22.8958 16.78 22.8332 16.78 22.6362C16.78 22.4455 16.5086 22.3727 16.4405 22.5887C16.4601 22.1589 16.5066 21.249 16.3966 20.9602C16.6106 20.7204 16.5002 20.5519 16.3837 20.2788C14.6849 16.1129 13.3191 16.2946 14.5357 16.3032V16.3032ZM40.7848 0.473829C44.8089 0.237292 46.5799 1.9627 49.204 4.85058C48.6167 4.91509 49.7373 5.67894 50.0479 6.10484C50.0511 6.10901 50.0543 6.11286 50.0576 6.11672C50.0547 6.11351 50.0521 6.1103 50.0495 6.10709C50.1195 6.20305 50.166 6.31089 50.2254 6.41263C49.6953 6.71111 51.6649 7.58729 51.9156 15.3574C52.1129 20.5731 52.3626 20.0439 51.7372 19.9957C51.8036 15.6575 51.6364 15.2807 51.2086 11.5828C50.7947 8.113 50.398 7.34466 49.151 5.51045C48.5506 4.63266 47.8228 3.15149 45.4459 1.98453C43.4457 1.04544 43.4168 1.21586 42.1123 1.11701C41.9352 0.633019 37.5398 1.3452 36.1651 1.83721C34.5076 2.43834 34.3985 2.72688 33.5533 3.29495C33.2978 3.16914 32.0174 4.00585 31.6583 4.43592C30.1588 6.20498 27.6005 12.379 27.0855 17.0623C27.0688 17.2144 27.1333 17.1749 26.7238 17.1608C28.5966 9.5839 29.6097 1.16033 40.7848 0.473829V0.473829ZM51.5645 3.61301C51.3935 3.69004 51.4381 3.89897 51.5873 3.94294C52.3337 4.17402 52.5814 4.26036 53.454 5.16896C53.806 5.53612 53.6552 5.3994 53.6552 5.53997C53.6552 5.85611 54.6416 5.91516 55.7969 8.30814C58.1484 13.0113 57.765 19.6822 57.7768 19.7541C57.7861 19.8831 57.8407 19.998 57.9703 19.998C58.1626 19.998 58.1285 19.6157 58.118 20.4691C57.9071 20.4621 57.6963 20.4531 57.4855 20.4457C57.4656 17.0013 56.8151 11.3096 56.19 9.71966C55.7917 8.69263 54.1186 6.06376 53.2284 5.30632C52.0471 4.28764 50.1391 3.13352 48.5801 3.07735C47.7698 3.05264 48.2111 3.14699 47.2975 2.37383C49.2341 2.40176 50.4561 2.8575 51.5645 3.61301V3.61301ZM67.1366 21.5125C66.5188 22.0103 64.6108 23.815 64.6916 24.1193C64.724 24.2232 64.8254 24.273 64.9134 24.2454C64.9894 24.2229 65.0145 24.1709 65.0863 24.0746C66.3061 22.5174 67.5428 21.6862 67.607 21.5703C68.424 21.6746 67.9302 21.6242 68.9343 21.7433C68.5113 21.9641 67.8936 22.6923 67.6702 22.9459C66.4819 24.3449 66.3799 24.3815 66.5362 24.5375C66.8022 24.8035 66.9864 24.1674 68.4728 22.5922C68.9317 22.121 69.1887 22.0662 69.1887 21.8932C69.1887 21.7128 68.9205 21.7526 69.6056 21.8168C73.8652 22.2472 72.0101 22.3335 75.5509 22.8836C77.3942 23.1779 80.6417 23.2042 82.9355 24.126C82.7969 24.1286 82.8293 24.1327 82.7006 24.1462C81.8515 23.3994 78.7728 23.4761 77.9805 23.3551C76.736 23.1843 74.8533 22.5887 74.7628 23.0235C73.7362 22.8974 73.544 22.943 72.2986 22.7706C72.485 22.6127 72.7244 22.4731 72.5563 22.2969C72.495 22.2356 72.3945 22.2237 72.3012 22.2969C71.755 22.7453 71.9527 22.7382 71.3298 22.6159C70.2667 22.4048 70.8979 22.5142 70.9659 22.225C71.0163 22.0549 70.8099 21.9371 70.7021 22.0203C70.671 22.044 70.2647 22.3855 70.2265 22.3772C70.1229 22.356 69.9894 22.4115 70.0138 22.5752C69.312 23.1712 68.3948 24.1087 67.9119 24.6841C67.8352 24.7673 67.8464 24.8744 67.9119 24.9396C68.1821 25.2098 68.3666 24.4405 70.336 22.7697C72.0919 23.1574 71.549 22.6317 70.4091 24.3298C70.2846 24.5102 70.5766 24.7278 70.7178 24.5121C70.9649 24.1481 71.5098 23.4902 71.9482 23.0778C73.7074 23.3422 73.5013 23.1545 73.1548 23.4186C72.8583 23.6539 72.4055 23.9999 72.6019 24.196C72.7748 24.3693 72.8919 24.1359 73.1265 23.9013C73.3598 23.6825 73.8505 23.3837 73.9676 23.3012C74.3925 23.3336 75.1363 23.4321 75.9617 23.5149C76.0127 23.6632 76.1786 23.6946 76.2643 23.5467C81.9163 24.1398 80.6757 24.0117 78.5234 24.1196C77.3457 24.1732 76.6597 24.4729 75.7079 24.5124C72.7713 24.6254 70.9951 24.3372 70.9951 24.7313C70.9951 24.8302 71.3269 24.7695 69.5151 24.7695C69.3774 24.7695 69.2696 24.9325 69.3835 25.0638C64.1766 25.0368 65.0687 24.2724 64.7279 27.097C64.6942 27.3358 64.648 27.5428 64.648 27.6461C64.648 27.8936 65.3572 27.8394 63.7841 27.7123C57.7367 27.1862 58.7004 27.8503 53.5474 27.5662C52.2949 27.4956 52.4897 27.7755 52.5051 27.1175C52.5067 27.044 52.6315 21.1444 52.6527 20.645C52.6745 20.1411 52.5147 20.6386 57.575 20.8119C64.1108 21.0327 63.6131 21.1027 67.1366 21.5125V21.5125ZM70.9229 36.3018C70.8866 36.3053 70.9762 35.5334 70.9797 35.4971C70.9598 35.7655 70.9412 36.0338 70.9229 36.3018V36.3018ZM65.4807 25.4499C65.363 25.4483 65.3039 25.5032 65.3087 25.6226C65.2144 25.5728 65.215 25.6117 65.3078 25.4313C65.3973 25.4403 65.4557 25.3909 65.483 25.3061C65.6688 25.3206 65.4827 25.2859 65.4807 25.4499V25.4499ZM66.5156 25.5167C66.8195 25.8639 66.8077 25.637 65.8392 25.5693C65.8392 25.4624 65.8527 25.3931 65.7865 25.326C66.7942 25.3986 66.3404 25.3186 66.5156 25.5167V25.5167ZM67.3323 25.4252C67.2929 25.4955 67.316 25.5642 67.3304 25.6486C67.0987 25.6775 67.3635 25.9413 66.8789 25.3851C67.5014 25.4072 67.357 25.3864 67.3323 25.4252V25.4252ZM67.7967 26.1326C67.744 25.9329 67.7761 26.1284 67.6606 25.4701C67.6487 25.4008 67.5618 25.4069 67.651 25.4082C68.3897 25.4255 68.2668 25.2227 67.7967 26.1326V26.1326ZM68.8752 26.908C68.8155 26.9962 68.8617 27.0177 68.6554 26.8614C68.6647 26.7895 68.6676 26.7963 68.6323 26.7241C68.5527 26.3652 68.8409 25.5642 68.7087 25.4165C69.3614 25.4197 68.9503 25.2342 68.8752 26.908V26.908ZM81.1327 24.1308C81.1847 24.092 81.1295 24.0397 81.3724 24.1279C81.6519 24.2265 81.382 24.1825 81.1327 24.1308V24.1308ZM70.7124 26.311C70.721 26.1704 70.5259 26.0591 70.4059 26.1874C70.4114 26.1155 70.4399 25.6733 70.4399 25.7452C70.4399 25.6919 70.3873 25.6807 70.4213 25.6483C70.4884 25.5844 70.4849 25.5106 70.4358 25.431C71.8092 25.4435 71.5272 25.2118 70.7124 26.311V26.311ZM65.4573 27.8153C65.4535 27.9494 65.6591 27.9543 65.1903 27.8766C65.3867 25.2846 65.5215 24.93 65.4573 27.8153V27.8153ZM67.0692 26.242C68.2989 26.8569 66.3947 25.9708 66.8202 26.13C66.9036 26.1659 66.989 26.2003 67.0692 26.242V26.242ZM68.2674 26.571C68.0284 26.3938 67.9693 26.5132 68.3438 25.8793C68.3047 26.121 68.2738 26.2744 68.2674 26.571V26.571ZM70.7701 28.7784C70.7682 28.8349 70.7778 28.8263 70.7371 28.8032C70.748 28.7942 70.7615 28.7903 70.7701 28.7784V28.7784ZM70.6829 26.9574C70.9909 26.5148 70.8947 26.3723 70.7977 28.0884C70.5853 28.4077 70.5981 28.6751 70.6829 26.9574V26.9574ZM70.2914 27.6474C70.2589 28.5182 70.3129 28.4026 70.2066 28.392C70.2301 27.9517 70.3036 27.3236 70.2914 27.6474V27.6474ZM68.9808 27.4969C69.1175 27.5425 69.2308 27.3952 69.2263 27.2511C69.2215 27.0534 69.2199 27.0293 69.2651 26.9651C69.5055 26.6076 69.3479 26.7651 69.3909 27.4706C69.3983 27.6019 69.5283 27.7103 69.672 27.6076C69.6351 28.1423 69.7003 28.2007 68.9086 27.5152C68.941 27.461 68.9221 27.4799 68.9808 27.4969V27.4969ZM69.2911 26.26C69.2911 26.3043 69.4329 25.4936 69.4156 25.422C69.5363 25.4223 70.0593 25.4274 70.1328 25.4281C69.733 25.8097 69.8434 25.7333 69.8036 25.6935C69.7304 25.6203 69.6171 25.6242 69.5481 25.6935C69.4833 25.758 69.4981 25.8408 69.4628 26.1261C69.2398 26.3867 69.2789 26.3601 69.2911 26.26V26.26ZM66.9787 28.0942C66.5439 28.0486 66.1527 28.0236 65.7195 27.9603C65.8594 27.8782 65.8186 27.8628 65.8363 26.6955C65.8475 25.8646 65.7259 25.9804 66.2451 26.2503C66.1729 26.3678 66.2271 26.2006 66.2458 27.5935C66.2458 27.8307 66.6052 27.8294 66.6052 27.5935C66.5869 26.2301 66.4851 26.3781 66.7441 26.5029C68.416 27.3072 67.9626 27.3223 69.3932 28.3567C68.4208 28.3288 69.3094 28.3532 66.9787 28.0942V28.0942ZM41.0502 4.08994C39.653 4.69653 36.9677 6.88153 36.2055 8.35147C34.833 11.0439 33.8414 14.4539 33.6694 15.8703C33.0754 17.8611 33.4397 17.5729 32.8547 17.5472C34.2066 12.3238 34.2679 10.5397 36.5893 7.23265C39.2483 3.87683 42.0957 2.79909 45.5662 2.47108C45.7068 2.4576 46.2132 2.83022 46.3264 2.91495C43.7759 3.08698 42.2619 3.55684 41.0502 4.08994V4.08994ZM38.2663 6.4781C38.4091 6.34106 38.3873 6.34812 38.7798 6.02942C38.2323 6.57824 38.3331 6.55449 38.2663 6.4781V6.4781ZM33.6235 17.476C33.6245 17.4789 33.6235 17.4827 33.6248 17.4856C33.6402 17.5312 33.6701 17.5639 33.7054 17.5864C33.5732 17.5809 33.5975 17.6034 33.6235 17.476V17.476ZM33.9669 17.3868C33.9669 17.3871 33.9672 17.3871 33.9672 17.3871C33.9724 17.4201 33.9717 17.4381 33.9669 17.3868V17.3868ZM51.3235 27.4754C51.3081 27.9446 34.8548 25.6527 26.5165 24.9239C27.0322 20.6261 26.4787 23.8327 27.3762 18.4456C27.5675 17.3787 27.3457 17.5366 27.9725 17.5694C48.5413 18.66 37.7025 19.1677 51.3781 20.3273C51.3534 22.347 51.3851 25.6145 51.3235 27.4754V27.4754ZM51.9717 39.7982C52.0455 39.8219 51.1156 41.978 51.4807 31.1165C51.5459 28.4479 51.5295 33.7676 51.7307 20.6954C51.7388 20.2859 51.6415 20.3513 52.0677 20.385C52.3834 20.4075 51.5684 39.6974 51.9717 39.7982V39.7982ZM52.3674 17.3646C52.222 15.4893 52.2634 14.7402 52.3607 16.8213C52.3713 17.0543 52.3947 17.6849 52.3674 17.3646V17.3646ZM52.6334 5.28097C53.7999 6.2008 55.3505 8.81909 55.4041 8.91665C56.7009 11.2272 57.101 17.7687 57.1232 20.4322C54.848 20.3443 54.124 20.197 53.2829 20.1212C52.0282 20.006 53.2634 20.9762 52.4592 12.8094C52.2066 10.3696 51.5764 8.61208 51.1762 7.57381C50.4474 5.71457 50.0842 5.23347 48.8606 3.96637C48.8269 3.93171 48.3433 3.42622 48.3921 3.42814C49.8936 3.49618 51.4743 4.34926 52.6334 5.28097V5.28097ZM51.3826 19.9649C39.902 19.0181 44.4206 18.038 33.8726 17.5931C34.2053 17.4477 34.9915 3.57995 46.7596 3.25323C48.023 4.26549 47.9383 4.33899 49.4119 6.57727C51.1297 9.12784 51.4201 16.8973 51.3826 19.9649V19.9649ZM41.5177 1.32915C42.2385 1.34295 41.3752 1.45946 42.6556 1.50985C43.1591 1.53873 43.4515 1.46106 44.9966 2.17035C41.0803 2.59112 38.1434 4.48181 36.2723 7.06126C33.9207 10.3779 33.7888 12.5331 32.4895 17.527C29.2009 17.3672 30.2213 17.3232 27.5973 17.2006C29.3036 9.76556 30.2653 1.32915 41.5177 1.32915V1.32915ZM22.9545 24.8571C26.719 25.2984 25.2907 25.1322 21.5442 24.9794C18.3172 24.8417 15.4528 24.6248 19.0414 24.8292C20.3841 24.8972 20.3016 24.5622 22.9545 24.8571V24.8571ZM14.5129 22.011C13.8072 22.8733 13.839 23.0781 14.2157 21.9288C14.2485 21.8296 14.1791 21.7256 14.0713 21.7093C14.1358 21.6454 14.227 21.5584 14.2722 21.5019C14.7183 21.4143 14.647 21.3052 14.5129 22.011V22.011ZM15.1216 22.8323C14.9153 23.1959 14.7077 23.5547 14.4657 24.0824C14.3476 24.3182 14.7657 24.1905 13.5845 24.1048C13.4619 24.0965 13.3852 24.2229 13.864 23.4793C14.018 23.2402 14.1901 23.0107 14.3611 22.7809C14.3463 22.8531 14.2725 23.2248 14.2006 23.5252C13.9006 23.5518 14.07 24.1157 14.3303 24.0416C14.6072 23.9607 14.7221 22.3126 14.9474 22.0392C15.0234 21.9567 15.0135 21.8524 14.9474 21.7866C14.9143 21.7536 14.8989 21.8726 14.9984 21.397C15.0119 21.3312 14.9429 21.3617 15.3867 21.2888C15.2972 21.432 15.1512 22.6275 15.1216 22.8323V22.8323ZM15.6742 21.2705C15.6521 21.2388 15.5898 21.2503 15.6919 21.2295C15.6855 21.2433 15.6774 21.2555 15.6742 21.2705V21.2705ZM14.8787 24.2762C14.7305 24.2544 14.7516 24.3189 14.9625 23.8997C14.9397 24.0281 14.8697 24.2374 14.8787 24.2762V24.2762ZM16.0384 21.1518C16.0368 21.1643 16.0365 21.1771 16.0346 21.1897C16.0295 21.1938 16.0211 21.1922 16.0163 21.197C16.0048 21.2092 16.0064 21.2269 15.9993 21.2407C15.9662 21.1544 15.9489 21.1768 16.0384 21.1518V21.1518ZM15.7901 24.1481C15.7942 24.1494 15.7958 24.1549 15.8 24.1558C15.8526 24.1693 15.9072 24.1507 15.9524 24.1189C16.0092 24.4299 16.0712 24.3728 15.8218 24.3632C15.7163 24.36 15.758 24.3895 15.7901 24.1481V24.1481ZM15.5812 22.7594C15.3963 25.3925 15.2734 23.8362 15.4024 24.3269C15.3405 24.3211 15.2779 24.3176 15.2157 24.3109C15.3989 24.005 15.3167 23.201 15.5812 22.7594V22.7594ZM15.5995 21.9859C15.6447 21.6823 15.6351 21.7789 15.6219 22.0248C15.576 22.0931 15.5792 22.1146 15.5995 21.9859V21.9859ZM14.7115 18.3602C14.1647 17.6255 14.0091 16.9124 13.5303 16.2936C13.6808 16.2952 15.206 18.591 15.2856 18.7203C15.7602 19.497 15.7682 19.668 15.9855 20.2316C15.1534 18.7213 15.4817 19.3298 14.7115 18.3602V18.3602ZM13.8268 21.967C13.675 22.4308 13.4128 23.2633 13.358 23.4129C13.236 23.4591 13.2091 23.6054 13.2941 23.7036C13.0005 24.1719 13.2087 24.0965 12.4979 24.0397C12.952 23.3416 13.2447 22.632 13.8268 21.967V21.967ZM2.01793 22.9314C2.04585 22.9449 2.05644 22.943 1.99066 22.9375C1.99964 22.9353 2.00895 22.9334 2.01793 22.9314V22.9314ZM24.808 37.4822C25.0558 37.3891 24.8591 37.4196 24.965 37.5833C25.0304 37.6995 25.1967 37.6578 24.9592 37.7264C24.1524 37.9832 22.9978 37.6796 22.5954 36.8413C22.341 36.1092 22.7556 34.8251 23.2475 34.4993C21.9966 35.8749 23.0915 38.2319 24.808 37.4822V37.4822ZM25.574 37.4568C25.395 37.5554 25.4909 37.5034 25.5798 37.3869C25.8917 37.0123 25.8587 36.8641 25.9979 36.7944C26.1401 36.7565 26.2203 36.5967 26.2864 36.4635C26.4767 36.3701 26.496 35.5032 26.461 35.1717C26.3461 34.5738 25.9049 34.343 26.1706 34.5362C27.1468 35.3424 26.5515 36.9106 25.574 37.4568V37.4568ZM24.9104 36.1053C24.9101 36.1053 24.9098 36.1057 24.9094 36.1057C24.9062 36.1105 24.9027 36.115 24.8992 36.1195C24.9021 36.1156 24.905 36.1111 24.9082 36.1069C24.8491 36.1487 24.9582 36.0428 24.9098 36.1057C24.9098 36.1057 24.9101 36.1053 24.9104 36.1053V36.1053ZM25.0872 35.673C25.0298 35.9837 24.9441 36.1095 24.7551 36.1946C24.6017 36.2469 24.3565 36.321 24.223 36.2292C24.1332 36.1471 23.8781 35.0597 24.9788 28.6292C27.0354 16.6444 26.1565 17.492 27.0293 17.527C26.6118 20.9278 26.2312 21.3334 25.807 25.577C25.4033 29.3549 25.7111 27.7033 25.3157 30.855C24.8915 34.2499 25.0019 34.0651 25.1652 34.0927C25.0112 35.3553 24.9858 35.2911 25.0689 35.3826C25.1408 35.4545 25.1482 35.328 25.0872 35.673V35.673ZM30.608 25.941C30.377 25.941 29.6091 25.7465 26.4623 25.3742C26.4973 25.1058 27.4898 25.4974 30.3054 25.6348C30.5342 25.646 32.0736 25.7169 32.3011 25.7471C32.2292 25.6752 32.5007 25.8668 34.3055 26.087C40.8165 27.0171 41.4693 26.8942 41.6599 26.9673C41.4898 26.9567 43.3985 27.2921 44.5676 27.409C51.793 28.1834 51.3091 27.6497 51.2876 28.1176C48.2891 28.0762 40.8672 27.329 40.7187 27.3024C32.5113 25.9342 37.7561 26.8582 30.608 25.941V25.941ZM51.1002 38.5648C51.2449 40.5434 51.929 40.5678 52.2666 40.0328C52.3953 39.8184 52.5481 39.0215 52.4159 38.8607C52.4643 38.8507 52.5012 38.8244 52.5288 38.783C52.7676 38.9409 52.8141 39.0423 52.8635 39.1415C52.7307 39.5542 53.0137 39.803 52.5741 40.2565C52.2329 40.5219 51.9226 40.3566 51.6483 40.5341C51.2099 40.8017 49.7732 39.871 51.1002 38.5648V38.5648ZM53.6558 39.595C53.5794 39.5305 53.5143 39.5356 53.4222 39.5767C53.3041 39.6611 53.3198 39.784 53.3324 38.9085C53.3359 38.7849 53.1928 38.6668 53.0525 38.7711C52.713 38.35 52.5548 38.5404 52.5157 38.1684C53.0737 38.4184 53.5287 38.7698 53.6558 39.595V39.595ZM68.9567 28.8856C52.5211 27.3913 52.4566 28.6013 52.4759 27.9225C53.6013 27.8875 53.436 27.9417 54.5492 27.9677C58.7967 28.0749 59.812 27.4041 68.6095 28.6613C69.7612 28.843 70.0478 28.5265 70.2882 29.0618C70.0735 29.0256 69.9522 28.9819 68.9567 28.8856V28.8856ZM70.6995 39.6406C70.8247 37.0168 70.7759 39.4801 70.5442 42.2592C70.1797 42.6632 70.567 42.1969 70.6995 39.6406V39.6406ZM70.0398 49.5225C70.0346 48.3957 70.266 43.9088 70.2699 43.8347C70.3472 42.4996 70.3257 42.8321 70.5009 42.7874C69.9002 50.0723 70.068 57.222 70.0398 49.5225V49.5225ZM83.7006 24.4684C83.81 24.4575 84.428 41.9742 84.3857 53.491C84.3237 70.7827 85.9754 74.7537 86.4565 77.9976C84.2207 77.6939 83.6088 78.1596 82.2758 78.1596C75.6857 78.22 75.4518 78.3047 70.1104 76.189C69.3376 75.8607 69.4394 75.8607 69.3264 75.9172C68.056 75.5991 68.7995 77.6105 69.7198 63.2616C69.9936 58.8008 70.008 57.0057 69.7814 66.5927C69.7147 68.8442 69.0774 74.6161 69.4926 74.6161C69.7304 74.6161 69.6653 74.5204 69.7956 71.8229C69.9859 67.977 70.0873 69.5146 70.1579 65.0794C70.2634 57.8158 70.5635 56.4717 70.7223 53.4949C70.8626 69.3089 69.5889 74.0765 70.3934 73.6474C70.757 73.4234 71.0894 54.6451 71.0891 54.5623C71.4193 54.6715 70.9861 54.4388 73.8659 51.1828C75.9575 48.8184 76.0567 48.3764 78.579 46.1689C78.6508 46.1054 78.6447 45.9818 78.579 45.9164C78.0957 45.433 71.8429 52.8652 71.0859 54.1525C71.0679 50.702 71.1257 50.4616 70.8119 50.5666C70.8853 45.4497 70.946 46.97 71.0089 43.5439C71.0413 41.7367 70.7092 42.6995 72.9144 40.1496C75.7063 36.8644 75.0927 37.2341 79.2217 32.2216C81.4254 29.5035 83.3447 27.6461 83.3447 27.4661C83.3447 25.7699 75.5105 36.7196 71.0419 41.7036C71.0833 39.5144 71.1347 38.7381 71.1941 37.6314C71.2053 37.4292 77.1725 29.0387 80.1546 25.9868C80.9915 25.1498 81.4433 25.0285 81.2155 24.791C80.428 24.0689 71.9918 35.7841 71.3657 36.6802C71.0644 37.1041 71.3763 37.0419 71.5201 32.3686C74.4182 27.8551 76.5175 25.793 76.5175 25.647C76.5175 25.4798 76.3128 25.4143 76.2107 25.5205C75.4341 26.3396 72.9972 29.4245 71.5426 31.6692C71.5772 29.697 71.626 29.6267 71.3972 29.6164C73.4952 26.1531 74.7612 26.036 74.4294 25.7044C74.1191 25.3937 72.5807 27.2825 72.313 27.6304C70.9864 29.3362 71.393 29.2656 71.1263 29.0516C71.1443 28.4206 70.8635 28.2537 72.4382 26.4394C72.8457 25.9679 72.9359 25.9628 72.9359 25.8293C72.9359 25.6662 72.736 25.5953 72.6317 25.7038C70.93 27.4757 71.1267 28.2797 71.2688 26.3611C71.2691 26.3582 71.2691 26.3556 71.2691 26.3527C71.2691 26.3059 71.2467 26.2638 71.2133 26.233C71.263 26.1682 71.8532 25.5106 71.8866 25.4297C72.7992 25.4085 72.8945 25.3658 74.7641 25.1906C76.366 25.0317 77.1086 25.1806 79.335 24.9069C82.5857 24.5227 82.7048 24.807 82.872 24.5445C82.9477 24.4123 83.1018 24.5285 83.7006 24.4684V24.4684ZM86.5107 78.3676C86.5617 78.773 86.6198 78.6799 86.2167 78.6882C81.2681 78.7758 83.3251 79.0028 78.1916 78.5059C77.5768 78.4433 79.5256 78.4947 81.0098 78.5104C83.8979 78.5104 84.7284 78.038 86.5107 78.3676V78.3676ZM72.1959 77.4616C72.0098 77.4041 71.8872 77.3983 72.4453 77.4638C73.8457 77.9889 74.4785 78.1638 72.1959 77.4616V77.4616ZM70.8626 78.4003C70.7538 78.391 70.6758 78.4681 70.6697 78.5746C70.6649 78.685 70.7156 78.5984 70.3655 79.0657C70.2731 79.1883 70.2769 79.2772 70.3703 78.6231C70.4011 78.3477 70.2849 78.7296 70.3533 78.0614C70.5673 78.0951 70.8619 78.1892 70.989 78.2302C70.9466 78.2867 70.9046 78.3435 70.8626 78.4003V78.4003ZM70.1575 81.2375C70.231 79.6225 70.1957 79.8805 70.3963 79.6161C70.7307 79.1783 70.6565 78.8968 70.5965 80.749C70.4502 80.9118 70.3039 81.0751 70.1575 81.2375V81.2375ZM70.5394 82.45C69.9172 83.1587 70.0725 83.2104 70.1206 82.0537C70.1335 81.77 70.0982 81.8399 70.2705 81.6493C70.6925 81.1794 70.576 81.027 70.5394 82.45V82.45ZM70.912 82.0254C70.9499 80.699 70.6694 81.1833 72.2643 79.4149C72.2351 80.8501 72.5428 80.1591 70.912 82.0254V82.0254ZM70.8536 84.4053C70.8937 82.2263 70.5667 82.8981 72.246 81.0523C72.2318 83.2906 72.5585 82.4812 70.8536 84.4053V84.4053ZM70.0167 84.2772C70.0651 83.4286 70.0009 83.5994 70.1999 83.3782C70.6498 82.8721 70.5198 82.6603 70.4874 84.7085C70.4849 84.844 70.5324 84.7727 70.2012 85.1415C69.8504 85.5334 69.9454 85.639 70.0167 84.2772V84.2772ZM68.8739 85.2262C68.9388 84.7047 68.7844 84.9537 69.6637 83.979C69.5424 86.3046 69.7426 85.5908 68.7051 86.84C68.648 86.9125 68.5996 87.4077 68.8739 85.2262V85.2262ZM70.7701 77.0829C70.6155 77.0405 70.1864 76.916 70.1149 76.8948C70.1068 76.7192 69.9137 76.6772 69.8119 76.7751C69.785 76.8014 69.7904 76.7767 69.7497 76.7545C69.724 76.5632 69.4833 76.5616 69.4214 76.7109C69.0341 76.6724 68.932 76.6659 68.7892 76.206C69.5462 76.4358 70.3344 76.7969 70.4945 76.7244C71.6735 77.1779 70.9954 76.8421 70.7701 77.0829V77.0829ZM69.6608 79.9922C69.5902 80.086 69.7779 78.5935 69.6916 78.3978C69.7028 78.3259 69.6611 78.4328 69.9955 78.0508C69.8966 79.1055 69.863 79.7303 69.6608 79.9922V79.9922ZM68.9956 78.9177C68.9988 78.9241 69.0045 78.928 69.0078 78.9341C68.959 79.1969 68.9606 79.2069 68.9956 78.9177V78.9177ZM69.1878 77.0453C69.1047 77.2289 69.1258 77.2722 69.1348 77.0357C69.19 77.0437 69.1727 77.0418 69.1878 77.0453V77.0453ZM69.863 77.6426C69.845 77.641 69.8273 77.6394 69.8094 77.6381C69.7689 77.4375 69.6194 77.5463 69.6313 77.4799C69.6723 77.4333 69.6489 77.4349 69.7632 77.5132C69.9018 77.6047 69.9297 77.5691 69.863 77.6426V77.6426ZM69.578 80.9021C69.5953 80.6457 69.5729 80.7144 69.6653 80.5911C69.5209 81.5106 69.535 81.528 69.578 80.9021V80.9021ZM69.7137 83.1654C69.6996 83.4691 69.7949 83.2852 69.0065 84.178C69.1586 82.9786 69.0671 83.314 69.2244 83.3612C69.7224 83.5108 69.8232 80.8893 69.7137 83.1654V83.1654ZM71.246 77.9019C70.4958 77.5778 70.2551 77.4683 71.3969 77.7097C71.3462 77.7735 71.2958 77.8374 71.246 77.9019V77.9019ZM67.5444 83.6655C69.1557 74.6674 68.1256 76.8845 68.7783 76.9834C68.5986 81.3431 67.1584 87.3997 66.8388 91.8028C66.4258 97.4219 66.5143 89.3122 67.5444 83.6655V83.6655ZM69.871 86.683C69.922 85.9099 69.7747 86.1547 70.4566 85.397C70.4938 85.3553 70.4797 85.2015 70.4701 86.4991C69.6704 87.339 69.8273 87.3297 69.871 86.683V86.683ZM70.833 86.1137C70.844 84.6594 70.5699 85.2715 72.2325 83.3911C72.2306 85.0452 72.5823 84.2563 70.833 86.1137V86.1137ZM86.9494 79.1144C87.0251 79.1286 86.7299 77.4558 86.6788 77.216C83.8453 64.2447 85.2184 56.2332 84.4024 31.4786C84.1354 22.8316 84.1344 24.0461 83.6967 24.1093C83.5738 24.1221 83.6778 24.0246 83.5478 23.9617C83.3858 23.8834 83.3177 23.8956 83.0726 23.797C82.1259 23.3544 81.2954 23.2071 80.7579 23.1644C79.0805 23.0341 79.0902 22.8977 78.1024 22.7796C77.5976 22.7209 76.3314 22.6442 76.1292 22.6086C73.6522 22.2546 72.8926 21.9015 71.5929 21.6653C71.5191 21.6515 65.2346 20.9605 65.4092 20.9605C57.5952 19.9104 58.5139 21.4705 58.4697 19.116C58.4312 16.6691 57.9938 11.8732 56.9739 9.47318C56.4015 8.14125 55.0604 5.9357 54.6837 5.46166C54.2418 4.926 53.1995 4.25362 52.6228 3.96124C50.8929 2.59785 49.419 1.93317 47.0148 2.00795C46.2157 2.02689 45.252 -0.801613 38.0536 0.426008C33.3736 1.21297 29.7284 5.1359 28.2995 9.49115C28.0626 10.1902 27.6349 12.1361 27.2158 13.7864C26.2069 17.6753 26.5419 17.1457 25.9514 17.1258C24.1361 17.0218 24.8825 16.9387 21.2274 16.6848C18.4423 16.4859 19.095 15.9833 13.3567 15.9326C12.7566 15.9326 12.859 21.1662 13.0865 21.3107C2.43382 22.2228 7.47037 22.0979 5.42206 22.1544C5.08607 22.1718 3.71454 22.1743 2.71044 22.3958C0.434283 22.8974 0.746199 22.7793 0.692288 22.8515C0.557509 22.8846 0.504881 23.0386 0.606607 23.1407C0.729512 23.2633 0.474396 24.8799 0.415029 27.5983C0.303034 32.6818 0.613667 31.8358 0.249443 48.112C-0.282611 71.9699 0.218316 73.2629 0.113702 86.3357C-0.111892 86.4564 0.137128 86.7921 0.302713 86.7244C0.358229 86.7007 0.275436 86.6917 0.569703 86.803C1.25772 87.0941 1.87577 87.1291 2.78713 87.3419C10.6579 89.2313 4.10796 87.6744 11.5336 89.0603C28.1146 92.1616 8.78543 89.7099 46.5677 93.2066C50.8338 93.619 61.8815 95.5851 65.3658 95.7193C65.5208 95.7241 65.7236 95.76 65.8575 95.7796C65.9496 95.8923 66.0176 95.8335 66.2608 95.8537C66.352 95.8708 66.4842 96.0527 66.8725 95.907C67.0689 95.8335 76.3827 88.2678 76.4058 88.2476C79.4063 85.655 80.3709 85.207 83.3139 82.8127C84.5519 81.7947 84.5301 81.5199 85.9299 80.4461C85.807 80.5074 86.7 79.8937 86.7722 79.8282C87.0334 79.5949 86.9808 79.4887 86.9494 79.1144V79.1144Z" fill="black"/>
</g>
<path fill-rule="evenodd" clip-rule="evenodd" d="M75.0133 22.0021C74.9822 21.9967 74.974 21.9967 75.0122 22.0021C75.0125 22.0021 75.013 22.0021 75.0133 22.0021" fill="black"/>
<path fill-rule="evenodd" clip-rule="evenodd" d="M19.0064 16.0009C19.0021 16.0003 18.9978 15.9998 18.9936 15.9992C18.9953 15.9995 19.0047 16.0009 19.0064 16.0009" fill="black"/>
<path fill-rule="evenodd" clip-rule="evenodd" d="M2.00986 24.9985C2.00843 24.9985 1.9916 25.0013 1.99017 25.0016C1.9973 25.0008 2.00387 24.9996 2.00986 24.9985" fill="black"/>
<path fill-rule="evenodd" clip-rule="evenodd" d="M51.9978 39.9868C52.0038 40.0272 52.0035 40.0192 51.9978 39.986V39.9868Z" fill="black"/>
<path fill-rule="evenodd" clip-rule="evenodd" d="M24.9993 35.0006C24.9996 35.0006 25.0007 34.9998 25.0007 34.9995C25.0004 35 24.9998 35.0003 24.9993 35.0006Z" fill="black"/>
<path fill-rule="evenodd" clip-rule="evenodd" d="M25.0001 36C25.0001 36 25.0001 36 25.0001 36.0003C25.0001 36 25.0001 36 24.9998 35.9998L25.0001 36Z" fill="black"/>
<path fill-rule="evenodd" clip-rule="evenodd" d="M23.9994 35.0009C23.9991 35.0012 24.0008 34.9989 24.0006 34.9992L23.9994 35.0009Z" fill="black"/>
<path fill-rule="evenodd" clip-rule="evenodd" d="M51.9987 39.9996C51.9996 39.9999 52.0004 40.0002 52.0013 40.0005C52.0007 40.0002 51.9993 39.9999 51.9987 39.9996" fill="black"/>
<path fill-rule="evenodd" clip-rule="evenodd" d="M26.9993 34.9944C26.9996 34.9981 27.0001 35.002 27.0007 35.0057C27.0001 34.9995 27.0007 35.0037 26.9993 34.9944" fill="black"/>
<path fill-rule="evenodd" clip-rule="evenodd" d="M25.0037 37.0005C25.0011 37.0002 24.9986 36.9999 24.9963 36.9996C25.0011 37.0005 24.9988 37.0002 25.0037 37.0005" fill="black"/>
<path fill-rule="evenodd" clip-rule="evenodd" d="M51.0001 40.0002C51.0004 40.0005 51.0007 40.001 51.0007 40.0016C51.0004 40.0005 50.9998 39.9996 50.9993 39.9985C50.9996 39.999 50.9998 39.9996 51.0001 40.0002" fill="black"/>
<path fill-rule="evenodd" clip-rule="evenodd" d="M7.92584 24.994C8.02909 25.0527 8.0754 24.6587 8.05331 24.7476C8.11239 24.4369 8.1942 24.1679 8.09913 24.0361C7.97591 23.8714 7.935 24.2996 7.86137 24.7198C7.84729 24.8063 7.87102 24.9527 7.92584 24.994" fill="black"/>
<path fill-rule="evenodd" clip-rule="evenodd" d="M13.9967 22.0042C13.999 22.0013 14.0013 21.9985 14.0033 21.9959C13.9979 22.0022 14.0013 21.9982 13.9967 22.0042" fill="black"/>
<path fill-rule="evenodd" clip-rule="evenodd" d="M13.4145 19.9214C13.8164 19.3366 14.1992 19.1642 13.8834 19.0248C13.6336 18.9226 13.5018 19.1546 13.2911 19.3816C12.5994 20.1624 13.3488 20.0203 13.4145 19.9214" fill="black"/>
<path fill-rule="evenodd" clip-rule="evenodd" d="M72.9954 27.0059C72.9986 27.0022 73.0014 26.9985 73.0045 26.9942C72.9986 27.0013 72.9983 27.0019 72.9954 27.0059" fill="black"/>
<path fill-rule="evenodd" clip-rule="evenodd" d="M79.6817 25.0492C76.7198 27.3892 72.7238 32.8365 73.0151 32.9914C73.4708 33.2236 75.7192 28.7227 79.9402 25.2831C80.1116 25.1571 79.8801 24.8901 79.6817 25.0492" fill="black"/>
<path fill-rule="evenodd" clip-rule="evenodd" d="M81.7463 26.0515C81.4923 26.3278 73 38.7153 73 38.8078C73 39.72 74.2453 37.3402 77.5661 32.6232C80.3916 28.5476 80.7553 27.5893 81.9552 26.2978C82.0867 26.1489 81.9017 25.8893 81.7463 26.0515" fill="black"/>
<path fill-rule="evenodd" clip-rule="evenodd" d="M78.9911 29.0115C78.998 29.0044 79.0037 28.9962 79.0088 28.9885C79.0008 28.999 79.0003 28.9996 78.9911 29.0115" fill="black"/>
<path fill-rule="evenodd" clip-rule="evenodd" d="M80.4572 34.6908C78.801 36.5644 74.823 40.4636 73.0302 42.7464C72.9049 42.9125 73.1995 43.1178 73.3644 42.9167C74.8678 41.008 85 30.3536 85 30.1744C85 29.1965 82.3756 32.5549 80.4572 34.6908" fill="black"/>
<path fill-rule="evenodd" clip-rule="evenodd" d="M72.9924 44.0101C72.9981 44.0039 73.0027 43.9973 73.0075 43.99C73.0016 43.9976 72.999 44.0008 72.9924 44.0101" fill="black"/>
<path fill-rule="evenodd" clip-rule="evenodd" d="M78.9927 37.0096C78.9944 37.0073 78.9964 37.005 78.9981 37.0027C79.0013 36.9988 79.0044 36.9945 79.0073 36.9905C79.0024 36.9971 78.997 37.0036 78.9927 37.0096" fill="black"/>
<path fill-rule="evenodd" clip-rule="evenodd" d="M78.0016 39.9981C78.0004 39.9992 77.9996 40.0006 77.9984 40.002C77.9993 40.0009 78.0001 40 78.0007 39.9989C78.001 39.9986 78.0013 39.9983 78.0016 39.9981" fill="black"/>
<path fill-rule="evenodd" clip-rule="evenodd" d="M79.7289 36.0566C78.539 37.3522 78.4093 37.8805 76.3731 40.7638C71.6299 47.538 70.5033 49.1773 71.1799 48.9854C71.2426 48.9631 78.8302 37.4979 79.9518 36.3252C80.0916 36.1761 79.8995 35.8748 79.7289 36.0566" fill="black"/>
<path fill-rule="evenodd" clip-rule="evenodd" d="M79.6718 41.058C77.7488 43.2375 74.0018 46.9059 72.031 49.7239C71.9022 49.91 72.2063 50.1263 72.3644 49.909C74.2166 47.2405 78.1127 43.4046 79.9422 41.3144C80.1288 41.1228 79.8164 40.8896 79.6718 41.058" fill="black"/>
<path fill-rule="evenodd" clip-rule="evenodd" d="M72.9907 56.0121C72.9976 56.0047 73.0035 55.9968 73.0093 55.988C73.0007 55.9988 73.0021 55.9968 72.9907 56.0121" fill="black"/>
<path fill-rule="evenodd" clip-rule="evenodd" d="M72.0267 56.6894C71.9128 56.9027 72.1914 57.1406 72.3256 56.8972C72.8659 55.8883 73.8063 54.4921 75.3171 52.3002C76.7205 50.2394 77 50.5073 77 50.2036C77 48.7159 72.4836 55.8418 72.0267 56.6894" fill="black"/>
<path fill-rule="evenodd" clip-rule="evenodd" d="M72.9933 57.0093C72.9981 57.003 73.0024 56.9968 73.0067 56.9908C73.0064 56.9914 73.0021 56.9971 72.9933 57.0093" fill="black"/>
<path fill-rule="evenodd" clip-rule="evenodd" d="M76.9564 54.0181C76.5524 53.6629 71.4311 58.6605 72.0522 58.9698C72.2922 59.0961 72.3573 58.818 72.7739 58.2904C75.207 55.2437 77.3336 54.3496 76.9564 54.0181" fill="black"/>
<path fill-rule="evenodd" clip-rule="evenodd" d="M72.991 60.0117C72.9978 60.0043 73.0035 59.9969 73.009 59.9884C72.9973 60.0032 73.0035 59.9949 72.991 60.0117" fill="black"/>
<path fill-rule="evenodd" clip-rule="evenodd" d="M76.6947 56.0529C76.2812 56.5023 72.5267 60.6534 73.0499 60.968C73.2749 61.1033 73.2947 60.8201 73.946 59.9131C75.9798 57.0953 77 56.4211 77 56.1764C77 56.0129 76.7955 55.9436 76.6947 56.0529" fill="black"/>
<path fill-rule="evenodd" clip-rule="evenodd" d="M72.9939 62.0084C72.9981 62.003 73.0024 61.9976 73.0061 61.9917C73.0018 61.9973 72.9981 62.0025 72.9939 62.0084" fill="black"/>
<path fill-rule="evenodd" clip-rule="evenodd" d="M74.8148 59.0504C74.1419 60.0762 73.5512 61.1625 73.0161 62.7292C72.9438 62.9398 73.134 63.1113 73.2028 62.911C74.2859 59.7568 75.1795 59.398 74.9691 59.0504C74.9251 58.9803 74.859 58.9861 74.8148 59.0504" fill="black"/>
<path fill-rule="evenodd" clip-rule="evenodd" d="M72.9929 66.0097C73.0057 65.9952 72.9991 66.0009 73.0071 65.9904C73.0023 65.9966 72.9977 66.0035 72.9929 66.0097" fill="black"/>
<path fill-rule="evenodd" clip-rule="evenodd" d="M69.8972 66.4034C69.9201 66.1133 70.0137 65.0145 70.0137 65.0918C70.0137 64.9271 69.802 64.8505 69.7005 64.9638C69.5696 65.0982 69.0358 72.4225 69 73.8137C69 74.0594 69.3677 74.0648 69.3677 73.8137C69.4103 72.1878 69.6145 69.3375 69.6982 69.3882C70.0272 69.5808 69.9064 68.9697 71.2431 67.2978C71.5586 66.8999 72.1064 66.4532 72.1064 66.3288C72.1064 66.1611 71.9187 66.0747 71.7943 66.1923C69.1957 68.678 69.5984 70.5996 69.8561 66.9624C70.0777 67 70.0098 66.8552 70.4076 66.2656C71.8872 64.0623 73 63.425 73 63.1813C73 62.2068 70.4542 65.4327 69.8972 66.4034" fill="black"/>
<path fill-rule="evenodd" clip-rule="evenodd" d="M73.8453 68.8942C73.6492 68.8942 73.6164 69.4526 73.6977 68.4766C73.8164 67.2737 74.0156 67.0855 73.7826 67.0051C73.4065 66.879 73.3518 69.145 73.3346 69.6219C72.6381 70.9326 73.2356 70.796 73.2947 70.5715C73.316 70.4897 73.2819 70.6548 73.2561 72.0585C73.2273 73.7773 73.1901 74 73.3945 74C73.6076 74 73.5321 73.8339 73.5618 72.3778C73.6186 69.4228 73.5743 69.8431 73.9545 69.2292C74.0613 69.0568 73.9615 68.8942 73.8453 68.8942" fill="black"/>
<path fill-rule="evenodd" clip-rule="evenodd" d="M73.6863 71.3409C73.3809 71.6114 73.428 71.7487 73.4851 70.9748C73.5802 69.7697 73.7538 69.3255 73.7538 69.1692C73.7538 68.9553 73.4325 68.9493 73.4001 69.1224C73.2861 69.6592 72.6594 74 73.2495 74C73.526 74 73.3692 73.8993 73.4247 72.0382C73.5049 71.9977 73.3439 72.1172 73.9447 71.5753C74.1111 71.4288 73.8658 71.1825 73.6863 71.3409" fill="black"/>
<path fill-rule="evenodd" clip-rule="evenodd" d="M74.7054 84.0507C71.9856 86.4902 69.2232 89.3788 68.0541 90.6907C67.8812 90.8835 68.1655 91.1062 68.3104 90.944C73.3963 85.2519 75.2899 84.3728 74.9646 84.0507C74.8904 83.9802 74.7793 83.986 74.7054 84.0507" fill="black"/>
<path fill-rule="evenodd" clip-rule="evenodd" d="M68.0483 92.7081C67.9788 92.79 67.9892 92.8822 68.0483 92.9417C68.2245 93.1196 68.2271 92.9415 69.4293 91.6811C73.0241 87.8916 73 88.2899 73 88.12C73 87.1252 68.1047 92.6409 68.0483 92.7081" fill="black"/>
<path fill-rule="evenodd" clip-rule="evenodd" d="M19.3688 18.9238C19.7763 18.3823 20 18.2574 20 18.158C20 18.0593 19.8811 17.976 19.7472 18.0063C19.6082 18.0379 19.0941 18.6856 19.0305 18.7702C18.8961 18.9478 19.2422 19.0954 19.3688 18.9238" fill="black"/>
<path fill-rule="evenodd" clip-rule="evenodd" d="M19.4068 19.9282C20.6763 18.2766 21.266 18.166 20.886 18.0215C20.7888 17.9828 20.6654 17.994 20.5853 18.0739C20.0507 18.5711 19.5676 19.0729 19.0311 19.7808C18.885 19.9686 19.2951 20.0818 19.4068 19.9282" fill="black"/>
<path fill-rule="evenodd" clip-rule="evenodd" d="M20.9643 20.3973C20.0546 21.7041 19.8565 21.8427 20.0896 21.9818C20.456 22.1736 20.826 20.8513 23.182 18.1075C23.832 17.3419 24.137 17.2168 23.9416 17.0246C23.5817 16.6718 21.0858 20.222 20.9643 20.3973" fill="black"/>
<path fill-rule="evenodd" clip-rule="evenodd" d="M24.994 19.007C24.9983 19.0025 25.0023 18.9979 25.006 18.9931C25.0051 18.9945 24.9948 19.0059 24.994 19.007" fill="black"/>
<path fill-rule="evenodd" clip-rule="evenodd" d="M29.5403 18.061C28.735 18.802 28.3769 19.2327 28.0396 19.6796C27.8627 19.9253 28.3254 20.133 28.5075 19.895C29.4188 18.6654 30 18.4262 30 18.2101C30 18.0027 29.6757 17.9406 29.5403 18.061" fill="black"/>
<path fill-rule="evenodd" clip-rule="evenodd" d="M28.993 19.0087C28.9981 19.003 29.0027 18.9976 29.007 18.9914C28.9998 18.9999 28.9981 19.0019 28.993 19.0087" fill="black"/>
<path fill-rule="evenodd" clip-rule="evenodd" d="M28.0114 20.924C28.3253 21.2681 28.409 20.3824 29.5732 19.4942C29.9848 19.1673 30 19.1827 30 19.1148C30 18.4819 27.8243 20.6607 28.0114 20.924" fill="black"/>
<path fill-rule="evenodd" clip-rule="evenodd" d="M30.9964 19.0044C30.999 19.0016 31.0016 18.9985 31.0035 18.9956C30.9978 19.0025 30.9976 19.003 30.9964 19.0044" fill="black"/>
<path fill-rule="evenodd" clip-rule="evenodd" d="M34.9454 19.0335C34.8883 18.9907 34.7837 18.987 34.7291 19.0335C34.471 19.2474 32.7082 20.8326 33.0419 20.9793C33.222 21.0579 33.2304 20.9336 33.8545 20.244C34.8609 19.1376 35.1312 19.1731 34.9454 19.0335" fill="black"/>
<path fill-rule="evenodd" clip-rule="evenodd" d="M37.0339 20.8261C36.9217 20.9541 37.1177 21.0514 37.1929 20.9704C37.8154 20.248 38.2242 19.7786 38.9728 19.16C39.0237 19.1178 39.2132 18.2975 37.0339 20.8261" fill="black"/>
<path fill-rule="evenodd" clip-rule="evenodd" d="M39.9953 20.0057C40.0155 19.9816 39.997 20.0034 39.997 20.0034C39.9964 20.0043 39.9958 20.0052 39.9953 20.0057" fill="black"/>
<path fill-rule="evenodd" clip-rule="evenodd" d="M40.5609 19.0665C40.2175 19.3479 38.5863 20.6731 39.0988 20.9571C39.4298 21.1269 39.3827 20.794 40.2904 19.9361C40.8804 19.3981 41 19.4141 41 19.2392C41 19.0256 40.7387 18.9232 40.5609 19.0665" fill="black"/>
<path fill-rule="evenodd" clip-rule="evenodd" d="M44.743 18.0706C44.4569 18.6007 44.2428 19.013 44.0226 19.6229C43.9249 19.89 44.1691 20.1683 44.2789 19.8739C44.751 18.5662 45.1372 18.3955 44.9532 18.0706C44.8977 17.9805 44.7985 17.9725 44.743 18.0706" fill="black"/>
<path fill-rule="evenodd" clip-rule="evenodd" d="M45.7496 19.0702C45.4702 19.5911 45.22 20.0368 45.0216 20.6333C44.9242 20.9177 45.1828 21.153 45.2741 20.8768C45.3382 20.6886 45.387 20.549 45.5416 20.2116C45.9344 19.4198 46 19.4154 46 19.2393C46 19.0071 45.8244 18.9297 45.7496 19.0702" fill="black"/>
<path fill-rule="evenodd" clip-rule="evenodd" d="M55.9961 25.0053C55.999 25.0019 56.0016 24.9985 56.0038 24.9948C56.0004 24.999 56.0024 24.9962 55.9961 25.0053" fill="black"/>
<path fill-rule="evenodd" clip-rule="evenodd" d="M57.6774 24.0462C57.3389 24.3572 56.7894 24.8284 57.0838 24.9752C57.2934 25.0735 57.3735 24.8617 57.5431 24.6591C57.4437 24.7631 58 24.2364 58 24.1538C58 24.0147 57.7812 23.9491 57.6774 24.0462" fill="black"/>
<path fill-rule="evenodd" clip-rule="evenodd" d="M57 23.7407C57 23.9713 57.2494 24.0878 57.3682 23.9221C58.507 22.3596 59.179 22.523 58.9582 22.0857C58.7224 21.5894 57 23.3954 57 23.7407" fill="black"/>
<path fill-rule="evenodd" clip-rule="evenodd" d="M62.5011 22.6617C63.0125 22.2716 63 22.2928 63 22.192C63 21.3181 60.5634 23.6956 61.0691 23.9664C61.4433 24.1559 61.3994 23.519 62.5011 22.6617" fill="black"/>
<path fill-rule="evenodd" clip-rule="evenodd" d="M64.3654 23.9178C65.5361 22.45 66 22.3739 66 22.1682C66 21.4623 64.491 23.1702 64.0305 23.7535C63.9029 23.9193 64.2068 24.1136 64.3654 23.9178" fill="black"/>
<path fill-rule="evenodd" clip-rule="evenodd" d="M25.7543 39.8586C24.2493 39.9196 24.171 39.912 24.0725 39.9558C23.904 40.0302 24.0575 40.1511 24.2458 40.1415C25.841 40.0714 25.8414 40.0858 25.9277 40.0445C26.0957 39.9698 25.9431 39.849 25.7543 39.8586" fill="black"/>
<path fill-rule="evenodd" clip-rule="evenodd" d="M25 39.858C24.8099 39.858 24.8097 40.1421 25 40.1421C25.19 40.1421 25.1903 39.858 25 39.858" fill="black"/>
<path fill-rule="evenodd" clip-rule="evenodd" d="M54.9145 41.0092C54.7138 40.9399 54.762 41.2625 54.5435 41.9707C54.2839 42.7377 53.5914 44.1917 53.1656 44.652H53.1653C52.8629 44.5515 52.9886 45.3639 53.4349 44.7976C54.0838 43.9747 55.3381 41.1672 54.9145 41.0092" fill="black"/>
<path fill-rule="evenodd" clip-rule="evenodd" d="M55.6751 40.0563C55.1189 40.5363 53.4521 42 54.1817 42C54.3947 42 54.4109 41.6155 55.9442 40.3181C56.1038 40.1797 55.8921 39.8743 55.6751 40.0563" fill="black"/>
<path fill-rule="evenodd" clip-rule="evenodd" d="M57.7321 43.0427C57.4669 43.282 57.2274 43.5146 57.0271 43.7827C56.9176 43.9239 57.1667 44.1022 57.2973 43.9276C57.34 43.8696 57.4428 43.7335 57.4054 43.7917C57.8632 43.2797 58 43.2709 58 43.1451C58 43.0121 57.829 42.9534 57.7321 43.0427" fill="black"/>
<path fill-rule="evenodd" clip-rule="evenodd" d="M2.2801 86.0249C2.0402 85.9041 1.89415 86.2562 2.09369 86.3668C2.86133 86.7675 6.86294 88.3901 6.99389 87.913C7.1232 87.4021 5.18819 87.5855 2.2801 86.0249" fill="black"/>
<path fill-rule="evenodd" clip-rule="evenodd" d="M4.08857 84.2818C5.64056 84.9398 5.93824 85.1462 5.99172 84.8988C6.0394 84.6843 5.90087 84.7617 5.05056 84.3855C4.14527 83.9807 4.04819 83.9099 4.00395 84.1021C3.98698 84.1829 4.0265 84.2566 4.08857 84.2818" fill="black"/>
<path fill-rule="evenodd" clip-rule="evenodd" d="M6.87794 84.6251C5.54709 84.2959 5.09992 83.7367 5.00623 84.1416C4.98052 84.2514 5.03727 84.3519 5.12268 84.3896C6.37787 84.9292 7 85.2048 7 84.8215C7 84.7339 6.9533 84.6434 6.87794 84.6251" fill="black"/>
<path fill-rule="evenodd" clip-rule="evenodd" d="M7.88155 82.9609C7.40278 82.8876 7.0756 82.7926 7.00848 82.9221C6.95091 83.042 7.1835 83.0438 7.79563 83.1376C7.9964 83.1723 8.09186 82.9926 7.88155 82.9609" fill="black"/>
<path fill-rule="evenodd" clip-rule="evenodd" d="M65.8445 93.9425C65.7046 93.9316 64.2214 93.8146 64.0937 93.8755C63.6949 94.066 64.6309 94.0537 65.7313 94.1397C66.0592 94.1659 66.0748 93.963 65.8445 93.9425" fill="black"/>
<path fill-rule="evenodd" clip-rule="evenodd" d="M62.9303 92.0262C63.091 91.9628 62.9493 91.8517 62.7528 91.8583C62.2234 91.8766 61.7024 91.9149 61.181 91.9545C61.0494 91.9637 60.9761 92.0262 61.007 92.0735C61.0953 92.1991 61.385 92.1241 62.3819 92.069C62.2826 92.069 62.8292 92.0632 62.9303 92.0262" fill="black"/>
<path fill-rule="evenodd" clip-rule="evenodd" d="M63 90.9672C63 90.8092 62.5736 90.8616 61.9924 90.888C61.2489 90.9246 61.1016 90.9302 61.0328 90.9891C60.9648 91.0415 61.0073 91.1071 61.1166 91.1373C61.1805 91.1539 61.5764 91.1236 62.1276 91.0986C62.5907 91.0764 63 91.1061 63 90.9672" fill="black"/>
<path fill-rule="evenodd" clip-rule="evenodd" d="M59.7504 90.0141C59.1422 90.368 59.0409 90.4251 59.0083 90.6141C58.9767 90.7709 59.0384 90.9397 59.1432 90.9903C59.2246 91.0252 59.2849 90.9648 59.4934 90.8248C59.8051 90.6244 60 90.5841 60 90.3108C60 90.1066 59.8608 89.9514 59.7504 90.0141" fill="black"/>
<path fill-rule="evenodd" clip-rule="evenodd" d="M58 87.858C57.8099 87.858 57.8097 88.1421 58 88.1421C58.19 88.1421 58.1903 87.858 58 87.858" fill="black"/>
<path fill-rule="evenodd" clip-rule="evenodd" d="M73.1202 73.0474C73.1264 71.1378 73.1945 71 73.0085 71C72.8485 71 72.8666 71.0584 72.8601 72.9829C72.8541 74.8074 72.8432 75 73.0085 75C73.2233 75 73.1141 74.7758 73.1202 73.0474" fill="black"/>
<path fill-rule="evenodd" clip-rule="evenodd" d="M75.0727 73.0022C74.8299 72.9319 74.8505 74.5721 74.8654 74.877C74.8735 75.0548 75.0749 75.0266 75.068 74.877C74.9948 73.4378 75.2636 73.0756 75.0727 73.0022" fill="black"/>
<path fill-rule="evenodd" clip-rule="evenodd" d="M78.0295 72C77.8945 72 77.8627 72.2389 77.8574 73.8312C77.8532 74.046 78.0871 74.0664 78.0917 73.8312C78.0967 72.3253 78.2368 72 78.0295 72" fill="black"/>
<path fill-rule="evenodd" clip-rule="evenodd" d="M80.9319 72.2113C80.8394 73.6876 80.8164 74 80.9597 74C81.1029 74 81.0422 73.8076 81.1424 72.2113C81.1496 71.9766 80.951 71.8861 80.9319 72.2113" fill="black"/>
<path fill-rule="evenodd" clip-rule="evenodd" d="M50.9974 6.99692C50.9991 6.99919 51.0008 7.00118 51.0026 7.00317C51.0008 7.0009 50.9997 6.99976 50.9974 6.99692" fill="black"/>
<path fill-rule="evenodd" clip-rule="evenodd" d="M39.0035 7.99456C38.9761 8.03063 38.995 8.01104 39.0104 7.98576C39.0081 7.9886 39.0058 7.99172 39.0035 7.99456" fill="black"/>
<path fill-rule="evenodd" clip-rule="evenodd" d="M41.8162 53.205L40.6028 53.0789L40.5243 57.1924L39.6067 57.0943L39.6895 52.9842L37.2785 52.7338L37.1842 56.8356L36.2672 56.7375L36.3658 52.6391L32.9345 52.2827L32.8195 56.3694L31.9474 56.2759L32.0665 52.1926L29.6821 51.945L29.5516 56.02L28.6485 55.9234L28.7831 51.8518L27.5907 51.7279C27.729 51.5836 27.8729 51.4446 28.0214 51.3108L41.4011 52.6957C41.5446 52.8612 41.6835 53.0309 41.8162 53.205V53.205ZM42.856 54.8821L42.8476 55.3966L41.8484 55.2914L41.8822 53.352L41.9293 53.3566C42.2818 53.8373 42.5925 54.3479 42.856 54.8821V54.8821ZM43.7219 57.5341L42.9586 57.4526L42.9955 55.1758C43.335 55.9244 43.582 56.716 43.7219 57.5341V57.5341ZM41.8459 55.4317L42.8451 55.5372L42.8141 57.4369L41.8125 57.3299L41.8459 55.4317ZM40.7069 55.1712L40.7435 53.2336L41.7387 53.337L41.7046 55.2761L40.7069 55.1712ZM41.7018 55.4166L41.6683 57.3145L40.6685 57.2078L40.7041 55.3114L41.7018 55.4166ZM38.5099 54.9396L38.5514 53.0057L39.5434 53.1088L39.5041 55.0442L38.5099 54.9396ZM39.5013 55.1844L39.4628 57.0789L38.4661 56.9725L38.5068 55.0795L39.5013 55.1844ZM37.3736 54.82L37.418 52.8879L38.4085 52.9907L38.3666 54.9245L37.3736 54.82ZM38.3635 55.0645L38.3226 56.9571L37.3274 56.8507L37.3705 54.9599L38.3635 55.0645ZM34.6839 54.5367L34.7342 52.609L36.2201 52.7634L36.1733 54.6936L34.6839 54.5367ZM36.1698 54.8332L36.124 56.7225L34.6312 56.5625L34.6802 54.676L36.1698 54.8332ZM33.0185 54.3611L33.0722 52.4361L34.5919 52.5942L34.5416 54.5216L33.0185 54.3611ZM34.5376 54.661L34.4883 56.5475L32.9618 56.3845L33.0145 54.5004L34.5376 54.661ZM30.8813 54.136L30.9399 52.2144L31.9211 52.3165L31.8643 54.2396L30.8813 54.136ZM31.8603 54.3786L31.8051 56.2608L30.8196 56.1556L30.8769 54.275L31.8603 54.3786ZM29.7578 54.0176L29.8188 52.0978L30.7982 52.1996L30.7396 54.1209L29.7578 54.0176ZM30.7352 54.2599L30.6776 56.1403L29.6933 56.0354L29.7531 54.1566L30.7352 54.2599ZM27.5951 53.7897L27.6611 51.8736L28.6377 51.9751L28.5741 53.8927L27.5951 53.7897ZM28.5695 54.0317L28.5068 55.9087L27.5259 55.8038L27.5904 53.9284L28.5695 54.0317ZM43.8542 59.2293L43.8037 62.5696L42.8774 62.4672L42.9456 58.2704L40.5088 58.0086L40.4289 62.1968L39.5059 62.0947L39.5899 57.9099L37.1656 57.6494L37.0692 61.8256L36.1472 61.7238L36.2477 57.551L32.7965 57.1801L32.6797 61.3406L31.8023 61.2438L31.9235 57.0863L29.5259 56.8289L29.3932 60.9777L28.4848 60.8772L28.6215 56.7317L26.2353 56.4752L26.0868 60.6124L25.1825 60.5124L25.3041 57.225C25.3202 56.7883 25.3679 56.3632 25.4439 55.9502L43.7786 57.9139C43.8344 58.3466 43.8607 58.7858 43.8542 59.2293V59.2293ZM41.7613 60.2507L41.7957 58.2885L42.7983 58.3961L42.7664 60.3602L41.7613 60.2507ZM42.7639 60.5022L42.7323 62.4512L41.7247 62.3399L41.7588 60.3928L42.7639 60.5022ZM40.6133 60.1255L40.6502 58.1652L41.6513 58.2731L41.6165 60.235L40.6133 60.1255ZM41.6141 60.3768L41.5796 62.3239L40.5739 62.2128L40.6105 60.2673L41.6141 60.3768ZM38.4035 59.8847L38.4454 57.9281L39.4433 58.0357L39.4036 59.9939L38.4035 59.8847ZM39.4005 60.1357L39.3612 62.0791L38.3589 61.968L38.4004 60.0265L39.4005 60.1357ZM37.2611 59.7601L37.3057 57.8057L38.3018 57.913L38.2594 59.869L37.2611 59.7601ZM38.2566 60.0108L38.2144 61.952L37.2134 61.8416L37.2577 59.9016L38.2566 60.0108ZM34.5556 59.4655L34.6064 57.5153L36.101 57.6762L36.0536 59.6288L34.5556 59.4655ZM36.0502 59.77L36.0034 61.7078L34.5016 61.5421L34.5519 59.6067L36.0502 59.77ZM32.8809 59.2831L32.9354 57.3357L34.4635 57.4999L34.4124 59.4501L32.8809 59.2831ZM34.4086 59.591L34.3581 61.5261L32.8229 61.3566L32.8768 59.424L34.4086 59.591ZM30.7312 59.0488L30.7904 57.1051L31.7772 57.2112L31.7202 59.1567L30.7312 59.0488ZM31.7161 59.2976L31.6594 61.2281L30.668 61.1186L30.7269 59.1893L31.7161 59.2976ZM29.6015 58.9257L29.6632 56.9839L30.6484 57.0897L30.5889 59.0334L29.6015 58.9257ZM30.5846 59.1739L30.5254 61.1029L29.5355 60.9934L29.5969 59.0663L30.5846 59.1739ZM27.4267 58.6889L27.4934 56.7504L28.4755 56.8562L28.411 58.796L27.4267 58.6889ZM28.4064 58.9365L28.3425 60.8618L27.3557 60.7526L27.4218 58.8292L28.4064 58.9365ZM26.3023 58.5662L26.3714 56.6299L27.352 56.7354L27.2851 58.6733L26.3023 58.5662ZM27.2801 58.8135L27.2138 60.7369L26.2288 60.628L26.2974 58.7065L27.2801 58.8135ZM43.7894 63.5095C43.7674 64.9491 43.4125 66.2802 42.7971 67.4375L42.8426 64.6203C42.8544 63.8899 42.3134 63.2351 41.6373 63.1601C40.9621 63.0851 40.4019 63.6165 40.3882 64.3454L40.3324 67.2607L39.4021 67.1542L39.4607 64.2414C39.4756 63.5132 38.9395 62.8605 38.2668 62.7858C37.5947 62.7111 37.0348 63.241 37.018 63.968L36.9514 66.8744L36.0291 66.7692L36.0852 64.4404C36.1103 63.3963 35.3489 62.4616 34.3897 62.3549C33.4318 62.2485 32.6294 63.0076 32.6 64.0486L32.5349 66.3703L31.656 66.27L31.7403 63.3766C31.7614 62.6529 31.2369 62.0049 30.5716 61.9311C29.9069 61.857 29.3479 62.3838 29.325 63.106L29.2326 65.9936L28.3171 65.889L28.4123 63.0036C28.4362 62.282 27.9166 61.6362 27.2547 61.5627C26.5931 61.4892 26.0348 62.0145 26.009 62.7344L25.9092 65.511C25.372 64.2381 25.096 62.8544 25.1484 61.4375L25.1689 60.8842L43.7978 62.9473L43.7894 63.5095ZM42.6811 65.5725L42.6492 67.5252L41.6358 67.4092L41.6699 65.4587L42.6811 65.5725ZM42.6833 65.4289L41.6723 65.3148L41.7074 63.3151C42.2688 63.4187 42.7072 63.9794 42.6969 64.604L42.6833 65.4289ZM40.5178 65.185L40.5333 64.3617C40.5451 63.7383 40.9999 63.2776 41.5623 63.2991L41.5269 65.2985L40.5178 65.185ZM41.5245 65.4424L41.4897 67.3926L40.4781 67.277L40.515 65.3283L41.5245 65.4424ZM38.2931 64.9344L38.3359 62.9402C38.8946 63.0435 39.3286 63.6024 39.3159 64.2254L39.2992 65.0475L38.2931 64.9344ZM39.2961 65.1912L39.2567 67.1376L38.2482 67.0226L38.29 65.0777L39.2961 65.1912ZM37.1439 64.8049L37.1625 63.984C37.1768 63.3622 37.6316 62.903 38.1915 62.9242L38.1481 64.9181L37.1439 64.8049ZM38.1453 65.0614L38.1028 67.006L37.0962 66.891L37.1405 64.9482L38.1453 65.0614ZM34.4055 64.4964L34.457 62.509C35.3033 62.6443 35.9634 63.4852 35.9407 64.4241L35.9348 64.6686L34.4055 64.4964ZM35.9314 64.8116L35.8843 66.7526L34.3513 66.5776L34.4015 64.6391L35.9314 64.8116ZM32.7367 64.3085L32.7438 64.0649C32.7699 63.1287 33.4668 62.441 34.3135 62.493L34.2614 64.4801L32.7367 64.3085ZM34.2577 64.6228L34.2068 66.5613L32.6787 66.3869L32.733 64.4512L34.2577 64.6228ZM30.5781 64.0655L30.6385 62.0846C31.1907 62.1867 31.6151 62.7418 31.5968 63.3606L31.5729 64.1775L30.5781 64.0655ZM31.5686 64.3199L31.5118 66.2537L30.5148 66.1399L30.5737 64.2076L31.5686 64.3199ZM29.4419 63.9373L29.4676 63.122C29.4874 62.5044 29.9419 62.0477 30.4956 62.0686L30.4348 64.0492L29.4419 63.9373ZM30.4305 64.1916L30.3713 66.1233L29.3758 66.0099L29.4372 64.0797L30.4305 64.1916ZM27.2528 63.6909L27.3207 61.7155C27.8698 61.8173 28.2905 62.3706 28.2697 62.9879L28.2427 63.8023L27.2528 63.6909ZM28.2381 63.9443L28.1739 65.8724L27.1815 65.7592L27.2479 63.8327L28.2381 63.9443ZM40.8433 69.8573L36.4284 69.3452L36.4687 67.6214L32.0345 67.1124L31.9852 68.8298L27.685 68.3312C27.0696 67.6309 26.5482 66.8522 26.1408 66.0185L42.5342 67.8942C42.0754 68.6379 41.5046 69.2985 40.8433 69.8573V69.8573ZM40.4258 70.1882L36.4194 69.7226L36.4247 69.4901L40.6886 69.9849C40.6025 70.0544 40.5147 70.1221 40.4258 70.1882V70.1882ZM36.3707 71.7875L36.416 69.8671L40.2515 70.3137C39.1339 71.097 37.8111 71.6131 36.3707 71.7875V71.7875ZM35.5724 71.849L35.6577 68.3614L32.8598 68.0385L32.7634 71.5181C32.5253 71.4541 32.2906 71.3815 32.0593 71.3006L32.1148 69.3668L32.1294 68.8467L32.1743 67.2727L36.3205 67.7487L36.283 69.3283L36.2706 69.8505L36.2241 71.8041C36.0096 71.8265 35.7919 71.8419 35.5724 71.849V71.849ZM34.2257 71.7949L34.2989 68.9759L35.4949 68.4872L35.5092 68.4887L35.4264 71.8521C35.0324 71.8585 34.6315 71.8398 34.2257 71.7949V71.7949ZM32.9078 71.5556L33.0002 68.199L34.1705 68.3343L34.0803 71.7773C33.6823 71.7269 33.291 71.6525 32.9078 71.5556V71.5556ZM28.2393 68.9156L31.9704 69.3498L31.9158 71.2484C30.5288 70.7384 29.2775 69.9308 28.2393 68.9156V68.9156ZM27.8295 68.4921L31.9809 68.974L31.9744 69.2056L28.0756 68.7523C27.9919 68.6668 27.9101 68.58 27.8295 68.4921V68.4921ZM26.1219 63.5636L26.151 62.7504C26.173 62.1344 26.6272 61.6792 27.1784 61.6998L27.1102 63.6746L26.1219 63.5636ZM27.1053 63.8167L27.0386 65.7429L26.0484 65.6297L26.1169 63.7054L27.1053 63.8167ZM26.3451 53.4206L26.2642 55.6688L25.5183 55.5891C25.6959 54.8138 25.9765 54.0868 26.3451 53.4206V53.4206ZM26.4722 53.8106L27.4494 53.9136L27.3846 55.7884L26.4052 55.6839L26.4722 53.8106ZM27.4726 51.8539L27.5207 51.8592L27.4543 53.7749L26.4772 53.6719L26.4955 53.161C26.7785 52.6914 27.1059 52.2541 27.4726 51.8539V51.8539ZM30.8273 50.5478L32.0556 50.6742L34.0016 49.782L35.489 49.9333L37.3879 51.2219L38.628 51.3493L38.6131 52.0391L30.8062 51.233L30.8273 50.5478ZM34.7555 49.0494C32.0497 48.7751 29.5835 49.6599 27.8301 51.2908C27.6853 51.4255 27.5452 51.5645 27.4103 51.7091C27.3716 51.7509 27.3328 51.7931 27.295 51.8355C27.006 52.1584 26.7422 52.5044 26.5057 52.8713C26.4545 52.9507 26.4046 53.0309 26.3559 53.1121C25.9104 53.8586 25.5759 54.6849 25.3751 55.5738C25.3481 55.6931 25.3239 55.8133 25.3016 55.9348C25.2266 56.3479 25.1791 56.7735 25.163 57.2096L25.0409 60.4967L25.0272 60.8685L25.0064 61.4218C24.9525 62.8762 25.2393 64.2968 25.7973 65.6014C25.8543 65.7352 25.9145 65.8681 25.9774 65.9997C26.3742 66.8289 26.8824 67.6054 27.4822 68.3076C27.5281 68.3614 27.5746 68.4149 27.6221 68.4678C27.6999 68.5554 27.7789 68.6422 27.8595 68.7271C27.9113 68.7818 27.9637 68.8362 28.017 68.8897C29.1039 69.9886 30.4324 70.8596 31.9114 71.3975C31.9592 71.415 32.0069 71.4323 32.0553 71.4489C32.2866 71.5291 32.5213 71.6011 32.7593 71.6648C32.8074 71.6774 32.8555 71.69 32.9035 71.7023C33.287 71.7986 33.6785 71.8724 34.0766 71.9228C34.1042 71.9262 34.1312 71.9302 34.1585 71.9336C34.1798 71.936 34.2009 71.9379 34.222 71.94C34.6278 71.9852 35.0287 72.0046 35.4227 71.9991C35.4717 71.9985 35.5204 71.9972 35.569 71.996C35.7885 71.9892 36.0058 71.9748 36.2207 71.9529C36.2697 71.948 36.3187 71.9431 36.3673 71.9376C37.9019 71.7573 39.3063 71.1964 40.4778 70.3398C40.5346 70.2986 40.5904 70.2565 40.6459 70.2138C40.7321 70.1473 40.8167 70.079 40.9001 70.0095C40.9506 69.9674 41.0008 69.9247 41.0504 69.8813C41.6962 69.3169 42.2539 68.6551 42.7016 67.9136C42.7729 67.7958 42.8408 67.6759 42.9065 67.5544C43.5445 66.3697 43.9131 65.0042 43.9351 63.5258L43.9435 62.9633L43.9491 62.5856L43.999 59.245C44.0055 58.8015 43.9798 58.3623 43.9249 57.9296C43.9088 57.8023 43.8905 57.6759 43.8694 57.5498C43.7113 56.6117 43.4143 55.7082 43.0004 54.8624C42.9555 54.7701 42.9087 54.6788 42.8609 54.5881C42.639 54.1673 42.3882 53.7623 42.111 53.3757C42.0744 53.325 42.0375 53.2745 42.0003 53.2241C41.8711 53.0506 41.7359 52.8815 41.5964 52.716C39.9074 50.7148 37.4725 49.3247 34.7555 49.0494V49.0494Z" fill="black"/>
<path fill-rule="evenodd" clip-rule="evenodd" d="M44.7825 63.4303C44.7 68.6402 39.8996 72.4167 34.1252 71.793C28.3972 71.1743 23.9443 66.4601 24.1552 61.3384L24.3222 57.2878C24.5286 52.28 29.1977 48.6662 34.772 49.1801C40.3901 49.6982 44.9284 54.2184 44.8478 59.3109L44.7825 63.4303ZM34.7759 49.0493C29.1216 48.5286 24.3853 52.1936 24.1753 57.2734L24.0074 61.3235C23.7922 66.5193 28.3092 71.3031 34.1214 71.9315C39.9811 72.5649 44.8517 68.7324 44.9346 63.4458L44.999 59.3255C45.0798 54.159 40.4749 49.574 34.7759 49.0493V49.0493Z" fill="black"/>
</svg>
