<svg width="247" height="247" viewBox="0 0 247 247" fill="none" xmlns="http://www.w3.org/2000/svg">
<mask id="mask0" mask-type="alpha" maskUnits="userSpaceOnUse" x="0" y="0" width="247" height="247">
<path fill-rule="evenodd" clip-rule="evenodd" d="M246.74 110.509L136.422 246.74L0.224807 136.45L110.543 0.218937L246.74 110.509Z" fill="white"/>
</mask>
<g mask="url(#mask0)">
<path fill-rule="evenodd" clip-rule="evenodd" d="M206.43 139.21C205.555 139.877 204.82 142.717 205.25 143.99C205.964 142.345 206.064 140.747 206.43 139.21ZM61.7092 179.694C60.7642 178.915 60.0755 177.915 59.3569 176.94C59.2114 176.743 59.0403 176.524 58.8069 176.747C58.6141 176.932 58.8233 177.114 58.9619 177.26C59.2791 177.597 59.6713 177.85 59.9404 178.246C60.6862 179.342 61.367 180.493 62.4358 181.331C62.6076 181.466 62.7393 181.777 62.9897 181.548C63.1779 181.377 63.0928 181.059 62.9514 180.902C62.5661 180.473 62.1271 180.093 61.7092 179.694ZM78.6591 194.272C78.8072 194.456 78.963 194.63 79.2231 194.636C79.3713 194.639 79.5408 194.621 79.5607 194.447C79.5704 194.364 79.4754 194.231 79.3917 194.179C77.9632 193.287 76.5291 192.403 75.0957 191.519C74.947 191.428 74.7513 191.302 74.6266 191.464C74.4543 191.687 74.6847 191.834 74.8397 191.947C75.8675 192.692 76.8261 193.556 78.0889 193.91C78.3218 193.975 78.5259 194.062 78.6591 194.272ZM80.2732 194.861C80.3011 195.328 80.4324 195.477 80.6019 195.599C81.8295 196.482 83.3347 196.873 84.5311 197.813C84.5746 197.847 84.637 197.866 84.6932 197.874C84.8962 197.904 85.1448 198.191 85.2903 197.875C85.4048 197.628 85.1395 197.489 84.9597 197.334C83.6136 196.176 81.8091 195.948 80.2732 194.861ZM191.505 71.507C190.268 69.5042 188.461 68.0539 187.429 66.0224C187.288 65.7437 186.984 65.6058 186.691 65.8312C186.422 66.0377 186.424 66.3542 186.596 66.6166C186.736 66.8288 186.939 67.0082 187.141 67.169C188.508 68.2605 189.788 69.4349 190.773 70.8989C190.931 71.1347 191.084 71.3921 191.505 71.507ZM179.968 60.0148C180.243 60.1101 180.465 60.3427 180.729 60.1683C180.915 60.045 180.801 59.8442 180.708 59.7035C179.971 58.5818 178.898 57.8318 177.794 57.1262C177.61 57.008 177.315 56.9587 177.176 57.2233C177.031 57.498 177.162 57.7524 177.417 57.8879C178.424 58.4244 179.408 58.9839 179.968 60.0148ZM200.34 85.3035C199.367 82.9242 198.123 80.7008 196.462 78.727C197.57 81.026 198.671 83.3287 200.34 85.3035ZM206.744 137.11C207.316 136.445 207.535 135.533 207.565 134.806C207.637 133.06 208.029 131.351 208.033 129.608C208.033 129.379 208.021 129.145 207.977 128.921C207.958 128.825 207.856 128.688 207.771 128.672C207.588 128.635 207.537 128.808 207.511 128.949C207.394 129.578 207.126 130.238 207.337 130.843C207.72 131.943 207.231 132.967 207.228 134.027C207.225 135.075 206.738 136.034 206.744 137.11ZM67.1849 186.286C67.6317 186.583 68.1213 186.956 68.656 187.245C68.8962 187.374 69.25 187.78 69.475 187.423C69.7139 187.043 69.2015 186.945 68.9661 186.77C67.7854 185.891 66.5572 185.07 65.552 183.979C65.1979 183.595 64.8934 183.164 64.5288 182.791C64.3432 182.601 64.0736 182.264 63.8008 182.525C63.5004 182.813 63.8008 183.143 64.0154 183.348C65.04 184.326 66.091 185.277 67.1849 186.286ZM206.771 110.738C206.231 113.16 207.133 115.296 207.322 117.736C208.025 116.549 208.256 115.571 207.77 114.484C207.535 113.958 207.271 113.405 207.398 112.807C207.56 112.046 207.225 111.461 206.771 110.738ZM189.896 174.514C189.83 174.467 189.763 174.42 189.696 174.374C189.616 174.449 189.53 174.52 189.454 174.6C188.16 175.974 186.869 177.352 185.572 178.723C185.296 179.015 184.928 179.244 184.94 179.711C184.941 179.757 185.073 179.847 185.132 179.837C185.588 179.762 185.861 179.455 186.174 179.126C186.818 178.446 187.277 177.561 188.172 177.144C189.326 176.605 189.414 175.446 189.896 174.514ZM180.28 184.583C181.237 184.119 182.131 183.92 182.867 183.355C182.971 183.274 183.094 183.112 183.082 183.003C183 182.312 183.483 181.964 183.888 181.551C184.214 181.219 184.661 180.627 184.353 180.384C183.995 180.101 183.371 180.494 183.064 180.919C182.742 181.364 182.362 181.737 181.999 182.134C181.383 182.812 180.63 183.442 180.28 184.583ZM204.695 145.635C204.556 146.862 203.373 147.666 203.471 149.008C203.537 149.914 203.256 150.805 202.7 151.555C202.047 152.437 201.941 153.57 201.32 154.467C201.191 154.653 201.194 154.917 201.527 155.108C201.74 154.351 202.683 154.015 202.743 153.275C202.866 151.739 203.727 150.501 204.163 149.101C204.509 147.989 205.058 146.902 204.695 145.635ZM172.612 54.1914C173.876 55.2075 175.09 55.8833 176.314 56.5418C176.481 56.6315 176.735 56.7271 176.854 56.486C176.967 56.2553 176.749 56.1089 176.587 55.9982C174.629 54.6607 172.671 53.3236 170.7 52.0051C170.422 51.8189 170.025 51.791 169.852 52.1217C169.703 52.4056 170.019 52.5314 170.254 52.6752C171.114 53.2025 171.953 53.7644 172.612 54.1914ZM179.474 185.511C178.656 185.439 178.276 185.724 177.933 186.081C177.045 187.003 176.175 187.934 174.961 188.466C174.611 188.62 174.267 188.897 174.147 189.335C174.065 189.636 173.825 189.793 173.564 189.948C172.964 190.304 172.381 190.69 171.795 191.069C171.444 191.295 171.217 191.596 171.178 192.332C174.116 190.129 176.887 188.116 179.474 185.511ZM162.074 197.663C161.316 197.463 160.725 197.302 160.422 198.117C160.369 198.261 160.232 198.381 160.087 198.352C159.066 198.149 158.335 198.892 157.478 199.189C156.805 199.422 156.022 199.468 155.462 199.946C154.444 200.815 153.215 201.132 151.964 201.408C151.641 201.479 151.35 201.587 151.096 201.787C150.961 201.894 150.804 202.024 150.938 202.222C151.032 202.361 151.198 202.355 151.333 202.296C151.679 202.146 152.045 202.018 152.354 201.809C153.395 201.105 154.593 200.873 155.785 200.63C156.275 200.529 156.794 200.459 156.918 201.196C156.97 201.509 157.247 201.497 157.472 201.38C157.735 201.243 157.661 201.074 157.474 200.902C157.058 200.519 157.475 200.415 157.69 200.192C158.872 198.966 160.554 198.62 162.074 197.663ZM39.4127 121.717C39.6041 122.611 39.0107 123.235 39.1357 123.895C39.4213 125.406 39.226 126.981 39.786 128.449C39.9074 128.766 39.7893 129.076 39.7322 129.391C39.562 130.331 39.7621 131.02 40.2749 131.349C40.5055 130.228 40.14 129.091 40.2626 128.008C40.4105 126.701 40.4238 125.404 40.4504 124.102C40.468 123.245 40.2433 122.46 39.4127 121.717ZM44.2811 151.036C44.4452 150.565 44.3471 150.343 44.2839 150.125C43.6696 148.005 42.9275 145.931 42.5048 143.745C42.2262 142.303 42.0187 140.839 41.6721 139.398C41.1335 137.159 40.9779 134.829 40.6605 132.537C40.6337 132.344 40.6864 132.072 40.3823 132.094C40.1327 132.112 40.0784 132.34 40.0966 132.558C40.1798 133.571 40.2594 134.583 40.3611 135.594C40.4136 136.116 40.8247 136.54 40.7957 137.093C40.7125 138.689 41.2684 140.181 41.5663 141.714C41.9183 143.525 42.346 145.322 42.697 147.133C42.9602 148.493 43.5605 149.693 44.2811 151.036ZM178.52 60.3038C178.384 60.1937 178.26 60.0609 178.109 59.9784C177.861 59.8427 177.638 59.3466 177.338 59.7084C177.12 59.9711 177.115 60.4395 177.364 60.7759C177.517 60.9831 177.724 61.1646 177.938 61.3104C180.255 62.884 182.086 65.0147 184.131 66.886C185.596 68.2271 187.134 69.6543 188.041 71.5341C188.155 71.7706 188.355 72.0121 188.091 72.2364C187.857 72.436 187.573 72.3332 187.372 72.1542C187.07 71.8851 186.814 71.5641 186.519 71.2852C186.373 71.1469 186.169 71.0025 185.97 71.1423C185.728 71.3124 185.808 71.5722 185.94 71.7688C186.346 72.3719 186.727 72.9999 187.2 73.5466C188.859 75.4624 190.424 77.4476 191.832 79.5551C192.462 80.4982 193.176 81.3836 193.736 82.3761C193.861 82.5955 194.111 82.9503 194.424 82.731C194.684 82.5493 194.446 82.251 194.321 82.0302C194.115 81.6667 193.994 81.2795 193.985 80.8654C193.98 80.5987 193.729 80.2399 194.104 80.0883C194.46 79.9441 194.696 80.248 194.885 80.51C195.664 81.5931 196.456 82.6676 196.986 83.9079C197.095 84.162 197.107 84.7032 197.549 84.499C197.971 84.3042 197.678 83.8777 197.542 83.5805C197.449 83.3766 197.245 83.226 197.109 83.0383C196.567 82.289 195.974 81.5688 195.508 80.7742C194.642 79.2971 193.802 77.8003 193.049 76.2634C192.601 75.3485 191.843 74.7092 191.223 73.966C190.185 72.7209 189.675 70.958 187.903 70.3814C187.765 70.3367 187.637 70.1389 187.582 69.9844C187.135 68.7314 186.32 67.771 185.394 66.8225C183.183 64.5606 181.06 62.2154 178.52 60.3038ZM161.886 47.2301C162.186 47.5782 162.326 48.0349 162.75 48.3072C164.1 49.1722 165.599 49.744 167.007 50.4941C167.495 50.7538 167.89 51.2197 168.471 51.3254C168.566 51.0558 168.376 50.9618 168.276 50.8358C167.388 49.7213 166.047 49.2741 164.864 48.6283C163.908 48.1069 163.034 47.3554 161.887 47.2235C159.721 46.0367 157.517 44.9926 155.156 44.1846C153.296 43.5484 151.464 42.8055 149.573 42.2238C148.354 41.8487 147.119 41.6876 145.819 41.4501C145.946 41.876 146.152 42.049 146.447 42.154C147.707 42.6026 148.936 43.1738 150.227 43.4928C153.157 44.2166 155.943 45.3236 158.762 46.3634C159.763 46.7327 160.671 47.5902 161.886 47.2301ZM120.556 206.606C121.354 206.854 122.112 207.085 122.931 206.957C123.415 206.881 123.728 206.637 123.719 206.086C123.706 205.236 124.261 204.892 124.974 205.013C126.636 205.293 128.208 204.79 129.812 204.586C130.902 204.447 132.011 204.512 133.086 204.201C134.713 203.729 136.481 204.023 138.062 203.503C139.227 203.12 140.339 203.03 141.526 202.909C143.057 202.752 144.539 202.07 146.025 201.565C146.527 201.394 147.014 201.222 147.547 201.22C147.935 201.219 148.318 201.143 148.64 200.95C150.23 199.996 152.023 199.538 153.76 199.029C155.298 198.578 156.744 197.92 158.252 197.414C159.339 197.049 160.33 196.388 161.349 195.832C163.128 194.86 164.898 193.872 166.667 192.882C167.505 192.413 168.169 191.684 168.951 191.173C170.446 190.197 171.916 189.186 173.388 188.177C174.068 187.71 174.821 187.379 175.319 186.615C175.736 185.977 176.666 185.895 177.226 185.286C178.189 184.241 179.121 183.076 180.394 182.447C181.613 181.846 182.153 180.667 183.104 179.851C184.058 179.033 184.748 177.912 185.568 176.935C186.537 175.78 187.514 174.632 188.501 173.492C188.851 173.089 189.096 172.736 188.696 172.192C188.416 171.81 188.536 171.423 189.081 171.406C190.978 171.347 191.741 169.959 192.406 168.524C192.625 168.051 192.899 167.682 193.266 167.352C193.418 167.216 193.61 167.092 193.807 167.282C193.954 167.424 193.905 167.603 193.833 167.768C193.799 167.848 193.759 167.93 193.703 167.995C192.689 169.177 192.324 170.712 191.524 172.011C191.331 172.324 191.052 172.518 190.803 172.758C190.697 172.859 190.592 172.992 190.682 173.139C190.804 173.338 191.01 173.28 191.14 173.175C191.365 172.995 191.561 172.775 191.756 172.56C192.688 171.524 193.344 170.25 194.497 169.401C194.647 169.292 194.775 169.066 194.794 168.882C194.939 167.472 195.756 166.36 196.417 165.184C196.848 164.418 197.562 164.033 198.432 164.033C198.752 164.034 199.009 164.084 199.122 163.714C199.2 163.46 199.163 163.388 198.847 163.361C197.465 163.245 196.624 164.134 195.731 164.945C195.625 165.041 195.512 165.129 195.399 165.216C195.381 165.229 195.345 165.218 195.242 165.218C195.111 164.075 195.47 163.079 196.111 162.158C196.991 160.894 197.901 159.652 198.483 158.203C198.736 157.573 198.98 156.962 198.958 156.273C198.951 156.033 199.015 155.813 199.168 155.621C200.529 153.91 201.103 151.875 201.56 149.792C201.604 149.593 201.598 149.346 201.716 149.206C203.041 147.642 202.87 145.445 204.007 143.804C204.102 143.667 204.184 143.479 204.179 143.317C204.135 141.964 204.775 140.733 204.886 139.428C205.006 138.006 205.237 136.601 205.401 135.187C205.738 132.303 206.21 129.433 206.31 126.524C206.372 124.726 206.26 122.926 206.066 121.141C205.914 119.742 206.103 118.356 206.062 116.962C206.007 115.039 205.391 113.259 205.088 111.406C204.952 110.576 204.952 109.918 205.86 109.531C206.299 109.344 206.479 108.859 206.422 108.431C206.186 106.65 206.081 104.846 205.583 103.105C205.522 102.893 205.43 102.727 205.185 102.717C205.012 104.073 205.707 105.35 205.51 106.722C205.446 107.173 206.027 107.553 205.978 108.092C205.95 108.398 206.162 108.759 205.86 108.997C205.619 109.188 205.356 109.026 205.142 108.868C204.809 108.621 204.372 108.296 204.593 107.884C205.068 106.996 204.564 106.354 204.286 105.59C203.93 104.612 203.669 103.574 203.553 102.542C203.447 101.609 203.051 100.809 202.712 99.9869C201.795 97.7632 201.271 95.4 200.13 93.2479C199.463 91.9887 199.092 90.5776 198.333 89.3354C197.948 88.7056 197.645 87.6872 198.241 87.3008C198.591 87.0736 199.445 88.0334 199.643 88.721C200.084 90.2494 200.766 91.6381 201.82 93.0824C201.727 92.2752 201.859 91.6106 201.441 90.998C200.801 90.0594 200.232 89.1 199.909 87.9806C199.731 87.3628 199.252 86.8247 198.876 86.2732C198.632 85.9155 198.308 86.0516 198.035 86.2553C197.444 86.6969 197.065 86.4214 196.763 85.8944C196.459 85.3628 196.162 84.8271 195.884 84.2815C195.749 84.0156 195.607 83.7676 195.352 83.6044C195.185 83.4979 195.011 83.2931 194.808 83.4392C194.599 83.5907 194.731 83.8017 194.828 83.9848C195.443 85.1419 195.87 86.4155 196.508 87.5203C197.216 88.746 197.875 89.9489 198.427 91.2641C199.635 94.148 200.983 96.9651 201.513 100.086C201.697 101.173 202.252 102.169 202.404 103.273C202.455 103.642 202.656 104.126 202.21 104.273C201.828 104.4 201.518 103.988 201.364 103.645C201.114 103.088 200.893 102.51 200.739 101.921C200.144 99.639 199.226 97.4648 198.521 95.2287C198.08 93.8336 197.394 92.567 196.935 91.1973C196.753 90.6538 196.406 90.1656 196.142 89.6482C194.984 87.3789 194.114 84.9528 192.648 82.8544C191.658 81.4376 190.781 79.886 189.213 78.961C189.1 78.8944 188.981 78.7494 188.962 78.6257C188.711 77.0428 187.475 76.0758 186.569 74.9389C184.468 72.3022 182.098 69.8991 179.732 67.4964C179.267 67.0241 178.911 66.4414 178.526 65.8951C178.315 65.5975 178.16 65.2341 178.52 64.9609C178.855 64.7078 179.214 64.8838 179.468 65.1388C180.166 65.8395 180.896 66.5196 181.554 67.2451C182.502 68.2904 183.631 69.181 184.379 70.4125C184.628 70.8223 185.184 70.8299 185.476 70.6484C185.846 70.4195 185.377 70.1153 185.274 69.8458C185.119 69.4392 184.718 69.2693 184.423 68.9939C182.937 67.6037 181.518 66.166 179.775 65.0433C178.55 64.2544 177.609 63.0312 176.515 62.03C174.449 60.1392 172.077 58.6544 169.836 56.9944C168.335 55.8823 166.757 54.9204 165.163 53.9692C164.733 53.7123 164.321 53.4374 164.049 53.0066C163.904 52.7764 163.581 52.5513 163.825 52.245C164.018 52.0027 164.313 52.1507 164.562 52.2188C165.442 52.4599 166.227 52.8919 167 53.3724C169.946 55.2037 172.824 57.1349 175.62 59.1878C175.667 59.2223 175.713 59.2598 175.764 59.2859C176.195 59.5029 176.734 59.5017 176.945 59.1468C177.151 58.7995 176.635 58.3487 176.378 58.292C175.017 57.9911 174.294 56.7888 173.171 56.1444C171.238 55.0342 169.349 53.82 167.497 52.5847C166.007 51.5909 164.346 51.0011 162.834 50.0872C161.879 49.5099 160.754 49.2009 159.774 48.6316C158.198 47.7161 156.345 47.4062 154.838 46.3471C154.791 46.3141 154.735 46.2813 154.68 46.2731C152.986 46.0212 151.571 44.8689 149.822 44.7813C149.085 44.7443 148.427 44.4205 147.745 44.1506C146.671 43.7256 145.501 43.5798 144.438 43.084C144.056 42.906 143.67 42.7856 143.541 42.3383C143.392 41.8226 143.884 41.8126 144.134 41.6212C144.303 41.4925 144.485 41.3814 144.419 41.1366C144.356 40.9045 144.138 40.8655 143.941 40.8083C142.483 40.3851 141.001 40.0495 139.486 39.9692C138.312 39.9071 137.281 39.4581 136.236 39.013C135.89 38.8659 135.715 38.5478 135.571 38.2283C135.264 37.5462 135.639 36.9664 136.354 37.148C137.618 37.4685 138.971 37.4092 140.157 38.0582C140.699 38.3545 141.323 38.0901 141.878 38.238C144.404 38.9106 147.033 39.1687 149.475 40.1915C150.864 40.7733 152.427 40.791 153.795 41.5297C155.245 42.3122 156.726 43.1028 158.286 43.5967C159.937 44.1192 161.49 44.8111 163.038 45.5498C165.45 46.701 167.734 48.0736 170.041 49.4201C172.867 51.0701 175.549 52.8963 178.097 54.9303C179.843 56.3241 181.574 57.7342 183.167 59.3148C184.401 60.539 185.834 61.5684 186.907 62.9545C189.021 65.6847 191.621 68.0041 193.436 71.0012C194.498 72.7544 196.122 74.1675 197.181 75.9221C198.419 77.9746 199.757 79.97 200.864 82.1196C201.713 83.7687 202.39 85.5007 203.32 87.1178C204.535 89.2287 205.373 91.531 205.93 93.9089C206.258 95.307 207.149 96.4583 207.436 97.8917C207.882 100.127 208.887 102.233 208.899 104.585C208.903 105.277 209.316 105.971 209.563 106.656C209.788 107.279 209.92 107.918 209.62 108.528C209.345 109.087 209.669 109.556 209.757 110.048C209.975 111.269 210.07 112.5 210.595 113.683C210.925 114.427 211 115.368 210.67 116.24C210.422 116.896 210.297 117.548 210.583 118.273C210.86 118.973 210.795 119.687 210.217 120.304C209.66 120.9 209.728 121.5 210.354 122.048C210.808 122.446 210.989 122.984 210.826 123.554C210.408 125.018 210.802 126.443 210.977 127.878C211.105 128.919 211.048 129.919 210.355 130.753C209.999 131.181 209.919 131.538 210.257 131.992C210.772 132.683 210.468 133.477 210.438 134.204C210.349 136.388 209.966 138.52 209.26 140.613C208.82 141.919 208.864 143.359 208.49 144.711C207.807 147.176 207.576 149.789 206.523 152.12C205.701 153.938 205.358 155.973 204.071 157.591C203.464 158.353 203.413 159.389 202.973 160.242C201.952 162.226 200.808 164.155 199.909 166.191C199.118 167.98 197.894 169.487 196.982 171.197C196.147 172.76 194.869 174.094 193.731 175.484C192.83 176.585 192.378 178.02 191.197 178.903C189.572 180.118 188.67 181.991 187.125 183.301C186.419 183.899 185.91 184.757 185.207 185.423C184.042 186.524 182.678 187.366 181.5 188.456C180.619 189.271 179.685 190.081 178.857 190.918C177.594 192.195 176.127 193.147 174.757 194.252C173.241 195.475 171.351 196.114 169.891 197.408C169.047 198.156 168.128 198.713 167.014 198.962C166.658 199.042 166.273 199.236 166.023 199.495C164.768 200.791 163.063 201.176 161.486 201.828C160.84 202.095 160.206 202.393 159.586 202.715C158.675 203.189 157.73 203.529 156.721 203.748C155.137 204.091 153.633 204.693 152.168 205.382C151.653 205.625 151.093 205.645 150.556 205.749C149.543 205.946 148.674 206.656 147.665 206.692C145.728 206.761 144.022 207.737 142.146 207.949C140.611 208.121 139.117 208.46 137.615 208.782C136.373 209.048 135.134 209.344 133.881 209.547C132.966 209.694 132.028 209.685 131.105 209.793C128.4 210.111 125.66 209.752 122.967 210.185C120.991 210.502 119.081 210.087 117.151 209.841C116.806 209.798 116.441 209.715 116.111 209.781C115.132 209.978 114.272 209.669 113.415 209.271C113.234 209.187 113.004 209.05 112.846 209.098C110.836 209.712 108.977 208.963 107.058 208.56C105.171 208.164 103.24 207.97 101.324 207.722C100.736 207.646 100.169 207.54 99.6601 207.235C98.2029 206.362 96.5749 205.718 94.9811 205.431C92.4393 204.973 90.4101 203.452 88.0455 202.702C87.0488 202.385 86.0434 202.085 85.0366 201.803C84.4903 201.65 83.9609 201.486 83.5316 201.145C82.0806 199.992 80.4054 199.229 78.7581 198.446C76.2768 197.266 74.2477 195.368 71.774 194.188C71.1891 193.909 70.7916 193.369 70.349 192.912C69.6072 192.145 68.5844 191.8 67.7862 191.126C67.6756 191.032 67.509 190.975 67.447 190.859C66.8861 189.809 65.8648 189.275 64.9308 188.682C61.75 186.662 59.5839 183.659 57.1346 180.911C56.0491 179.693 55.3026 178.223 54.0858 177.126C53.9793 177.03 53.882 176.909 53.8202 176.78C52.4397 173.906 50.2545 171.581 48.4828 168.975C48.0204 168.295 47.6494 167.582 47.4756 166.762C47.3687 166.258 46.972 165.863 46.7396 165.431C46.1387 164.313 45.2006 163.656 44.305 162.845C43.4929 162.109 43.0549 160.79 42.8011 159.652C42.4939 158.273 41.6872 157.171 41.1929 155.909C41.076 155.611 40.8238 155.314 40.9069 155.008C41.309 153.53 40.4182 152.368 40.0023 151.091C39.9301 150.869 39.8062 150.655 39.7834 150.43C39.5256 147.886 38.3381 145.608 37.7026 143.172C37.5478 142.578 37.363 142.004 37.3859 141.375C37.4005 140.973 37.389 140.535 37.2474 140.168C36.6938 138.731 36.6434 137.204 36.3917 135.716C36.2596 134.936 36.1288 134.168 35.817 133.438C35.7375 133.251 35.6156 133.038 35.6447 132.858C35.9117 131.21 35.0189 129.641 35.3933 127.952C35.5641 127.181 35.2168 126.288 35.0714 125.456C34.9238 124.611 34.8387 123.835 35.8222 123.38C36.2732 123.171 36.233 122.8 35.7748 122.628C35.0427 122.354 35.0244 121.846 35.1687 121.214C35.326 120.526 35.2883 119.829 35.234 119.126C35.1531 118.077 35.1808 117.04 35.6615 116.048C35.872 115.614 35.944 115.099 36.0136 114.612C36.2387 113.04 36.343 111.431 36.644 109.894C37.1559 107.281 37.2391 104.574 38.2131 102.05C38.537 101.211 38.3139 100.213 38.8181 99.4282C39.4292 98.477 39.7312 97.4152 40.0316 96.3581C40.5551 94.5139 41.2453 92.7321 41.9345 90.949C42.4044 89.734 43.1561 88.6446 43.5388 87.3894C43.9411 86.0702 44.6884 84.9159 45.4079 83.7725C46.7519 81.6369 47.8722 79.3743 49.1927 77.2222C50.1073 75.7312 51.3256 74.4611 52.0967 72.8579C52.7162 71.5703 53.6804 70.4278 54.602 69.3119C55.9682 67.6582 57.2796 65.9062 58.8974 64.5283C60.4678 63.1909 61.5389 61.3667 63.3398 60.274C63.9969 59.8756 64.5778 59.2784 65.049 58.6615C66.2001 57.1543 67.9138 56.3179 69.2305 55.0147C69.7476 54.503 70.4512 54.243 71.0514 53.8344C72.5421 52.8197 73.9672 51.727 75.3245 50.5467C76.0668 49.9011 77.0333 49.7006 77.8312 49.1479C79.5507 47.9574 81.3478 46.8643 83.2707 46.0384C85.0162 45.2889 86.6558 44.3608 88.309 43.4454C88.6625 43.2499 89.0554 43.0545 89.4471 43.0107C91.5257 42.7784 93.225 41.5404 95.1525 40.9022C96.8633 40.3357 98.4994 39.5633 100.318 39.3349C101.419 39.1966 102.491 38.8755 103.508 38.4344C104.231 38.1203 104.997 38.2047 105.736 38.0778C107.082 37.8469 108.372 37.3641 109.755 37.2906C110.975 37.2259 112.176 36.9954 113.374 36.7088C115.247 36.261 117.18 36.463 119.087 36.3973C119.26 36.3913 119.448 36.4761 119.606 36.434C121.62 35.8977 123.616 36.0882 125.66 36.3534C127.815 36.6331 130.016 36.3699 132.194 36.5359C132.971 36.5952 133.484 36.9632 133.894 37.5929C134.28 38.1844 134.088 38.5908 133.485 38.6999C132.557 38.8682 131.633 39.1316 130.655 38.7637C129.499 38.3289 128.33 38.2545 127.063 38.5504C125.651 38.8804 124.162 38.6209 122.722 38.4555C122.181 38.3934 121.647 38.2437 121.091 38.2881C118.864 38.4654 116.618 38.4289 114.407 38.7953C113.697 38.9132 113.008 39.1579 112.306 39.3308C112.081 39.3861 111.83 39.4666 111.618 39.4181C109.446 38.9225 107.53 40.0988 105.472 40.338C102.958 40.6299 100.651 41.8507 98.0672 41.9491C97.2695 41.9794 96.4947 42.6406 95.7135 43.0218C95.5581 43.0976 95.4346 43.2666 95.2755 43.3035C92.5776 43.9294 90.3838 45.8736 87.5919 46.2396C86.625 46.3663 86.0504 47.1296 85.274 47.5594C84.1036 48.2071 82.9152 48.8195 81.6369 49.2542C79.249 50.0661 77.4309 51.774 75.479 53.2671C75.3171 53.3908 75.1727 53.5427 74.9983 53.6437C71.8663 55.4601 69.3647 58.0773 66.5415 60.2855C63.5057 62.66 60.8848 65.4735 58.2492 68.2583C57.4256 69.1283 56.7314 70.1676 56.0188 71.16C53.8317 74.2062 51.4718 77.1475 49.6467 80.4245C47.9978 83.3855 46.1978 86.2762 44.8895 89.4221C44.0459 91.4507 43.1499 93.4582 42.519 95.5686C42.4438 95.8198 42.356 96.0677 42.2936 96.322C42.2533 96.4864 42.1971 96.6947 42.3943 96.7871C42.5979 96.8827 42.7133 96.6954 42.8093 96.557C43.2919 95.8607 43.6224 95.0851 43.9363 94.3051C44.8568 92.0182 45.5796 89.6282 46.7275 87.4632C47.8295 85.3849 48.704 83.1175 50.4755 81.4353C50.5919 81.3247 50.6245 81.1258 50.6962 80.968C51.1648 79.9365 51.5933 78.9031 52.4901 78.1135C53.2609 77.4349 53.5317 76.382 54.1069 75.5369C54.9049 74.3645 55.9752 73.4644 56.8546 72.3843C56.9274 72.2946 57.0481 72.2366 57.1014 72.1391C58.7148 69.1963 61.4458 67.2414 63.6318 64.8069C64.4541 63.8913 65.428 63.0595 66.5038 62.402C67.5331 61.7727 68.1283 60.6558 69.1791 60.0531C69.3286 59.9675 69.4408 59.8128 69.594 59.7389C69.8872 59.5977 70.2305 59.4666 70.4587 59.8061C70.6576 60.1018 70.4491 60.3598 70.2342 60.5727C69.161 61.6364 68.0628 62.6728 66.7788 63.4845C65.955 64.0053 65.2532 64.6388 64.6911 65.4441C64.1384 66.2363 63.3927 66.8488 62.6877 67.5055C61.4604 68.6488 60.2814 69.8283 59.2663 71.1988C58.3053 72.4957 57.3007 73.7892 56.1865 74.9683C55.4318 75.767 54.9189 76.6903 54.3964 77.6297C54.0012 78.3401 53.5953 79.0551 53.1037 79.6989C51.9775 81.1739 50.7047 82.5557 49.9443 84.268C49.1475 86.0618 47.7582 87.5396 47.2424 89.4811C47.1179 89.9504 46.8299 90.3762 46.6158 90.8217C45.305 93.5466 44.2325 96.3702 43.2807 99.2342C42.7323 100.884 42.4035 102.606 41.9203 104.279C41.6309 105.281 41.5035 106.312 41.1871 107.315C40.5942 109.195 40.3937 111.172 40.1344 113.123C40.0118 114.044 39.9421 114.973 39.7335 115.879C39.3384 117.596 39.3313 119.316 39.5653 121.157C40.1316 120.862 40.3102 120.443 40.4124 119.944C40.5293 119.375 40.6643 118.806 40.8437 118.254C40.9221 118.013 40.9123 117.571 41.3241 117.654C41.6801 117.725 41.6316 118.122 41.6313 118.395C41.6304 119.208 41.6838 120.034 41.6213 120.831C41.4809 122.619 41.4548 124.415 41.3296 126.203C41.2447 127.416 41.3355 128.703 41.6593 129.918C41.8271 130.547 41.9645 131.181 41.8936 131.817C41.6734 133.795 42.1822 135.694 42.5499 137.594C42.7335 138.541 42.6527 139.511 42.9544 140.441C43.5009 142.124 43.8588 143.859 44.382 145.555C45.249 148.366 46.2393 151.129 47.1739 153.914C47.4128 154.625 47.4892 155.393 47.6217 156.138C47.6921 156.533 47.5321 156.86 47.1384 156.956C46.2564 157.171 46.4399 157.754 46.7793 158.206C47.4767 159.134 47.4227 159.862 46.5031 160.595C46.065 160.944 46.4844 162.337 47.0293 162.511C47.4572 162.647 47.3534 162.325 47.3603 162.11C47.371 161.78 47.0986 161.345 47.5052 161.154C47.9546 160.943 48.3509 161.28 48.6816 161.553C49.432 162.172 49.6035 163.153 50.0989 163.936C50.5308 164.618 50.8782 165.353 51.3651 166.024C51.4354 165.318 51.0969 164.739 50.7205 164.201C49.5463 162.523 48.7976 160.65 48.1326 158.734C48.0641 158.537 47.985 158.309 48.2216 158.194C48.5192 158.051 48.7197 158.249 48.8668 158.485C49.4202 159.375 50.0624 160.225 50.4931 161.172C51.0066 162.3 51.8214 163.3 51.9664 164.599C52.0561 165.401 52.7647 165.857 53.1914 166.469C54.5304 168.387 55.8316 170.331 57.1347 172.273C58.5516 174.385 59.9551 176.548 61.9752 178.21C63.1623 179.186 63.9858 180.524 64.9816 181.692C65.114 181.847 65.2026 182.071 65.3671 182.163C67.1882 183.184 68.167 185.172 69.8727 186.237C71.3552 187.163 72.5411 188.448 74.12 189.263C75.5198 189.985 76.6158 191.285 78.0003 192.051C79.4831 192.87 80.747 194.028 82.3715 194.64C83.5764 195.094 84.6448 195.884 85.8252 196.449C88.5855 197.771 91.52 198.678 94.2613 199.998C97.0344 201.333 100.042 201.73 102.906 202.673C104.025 203.042 105.219 203.18 106.386 203.424C106.398 203.307 106.43 203.232 106.406 203.202C106.05 202.757 105.674 202.206 105.921 201.701C106.203 201.127 106.921 201.316 107.443 201.379C109.081 201.578 110.719 201.808 112.342 202.109C113.118 202.252 113.93 202.023 114.671 202.381C115.001 202.54 115.502 202.599 115.479 203.062C115.456 203.533 114.941 203.517 114.602 203.641C114.264 203.766 113.916 203.725 113.567 203.65C112.174 203.348 110.779 203.056 109.385 202.759C108.979 202.673 108.574 202.67 108.169 202.756C107.851 202.824 107.625 202.984 107.657 203.348C107.687 203.682 107.882 203.901 108.214 203.92C110.445 204.048 112.623 204.774 114.89 204.503C115.689 204.408 116.396 204.903 117.2 204.898C118.393 204.89 119.592 204.8 120.778 205.026C120.949 205.058 121.126 205.071 121.292 205.123C121.612 205.221 121.924 205.387 121.924 205.758C121.925 206.159 121.564 206.235 121.252 206.328C121.041 206.391 120.775 206.278 120.556 206.606Z" fill="black"/>
</g>
<path fill-rule="evenodd" clip-rule="evenodd" d="M60.5265 131.442C60.5749 130.738 60.343 130.254 60.3501 129.735C60.3693 128.36 60.387 126.98 60.2079 125.61C60.1738 125.348 60.1464 125 59.8305 125.02C59.4156 125.047 59.6348 125.398 59.6477 125.629C59.7201 126.921 60.1568 128.168 59.98 129.504C59.9062 130.062 60.0823 130.739 60.5265 131.442ZM129.835 182.85C131.167 182.919 132.296 182.473 133.466 182.428C133.603 182.422 133.764 182.335 133.713 182.142C133.663 181.955 133.485 181.843 133.324 181.835C132.111 181.781 130.821 181.457 129.835 182.85ZM171.082 83.6344C171.262 84.8667 173.661 87.5961 174.529 87.6659C173.929 85.8395 172.139 85.0591 171.082 83.6344ZM174.77 158.898C173.874 159.718 173.412 160.564 172.696 161.563C173.531 161.278 174.15 161.246 174.778 161.288C175.119 161.31 175.263 161.023 175.38 160.749C175.457 160.569 175.457 160.382 175.257 160.311C174.648 160.096 174.683 159.6 174.77 158.898ZM115.355 182.504C115.384 182.559 115.397 182.634 115.437 182.655C117.014 183.449 118.676 183.227 120.332 183.05C120.479 183.035 120.644 182.978 120.606 182.792C120.556 182.543 120.339 182.543 120.129 182.518C118.749 182.355 117.352 182.577 115.974 182.329C115.771 182.292 115.506 182.251 115.355 182.504ZM178.191 93.5094C178.356 93.1736 178.33 92.9013 178.187 92.7458C177.467 91.963 177.174 90.9434 176.64 90.0595C176.447 89.7388 176.227 89.4334 176.008 89.1295C175.874 88.9441 175.686 88.8781 175.475 88.9959C175.22 89.1382 175.308 89.3439 175.426 89.5134C175.611 89.7804 175.654 90.1225 175.817 90.3711C176.526 91.4535 176.868 92.8265 178.191 93.5094ZM168.953 165.638C168.291 166.099 168.023 166.86 167.447 167.182C165.793 168.107 164.651 169.641 163.097 170.671C162.685 170.943 162.306 171.263 162.028 171.681C161.871 171.918 161.93 172.104 162.226 172.059C162.658 171.994 163.243 171.793 163.322 171.474C163.638 170.204 164.935 170.001 165.644 169.166C166.379 168.3 167.742 168.062 168.137 166.792C168.18 166.654 168.388 166.558 168.533 166.463C168.788 166.296 168.976 166.096 168.953 165.638ZM150.109 177.112C150.357 177.233 150.574 177.13 150.777 177.023C152.401 176.172 154.028 175.325 155.639 174.45C155.914 174.301 156.443 174.14 156.252 173.764C156.079 173.423 155.585 173.555 155.232 173.727C155.103 173.79 154.95 173.852 154.869 173.96C154.386 174.604 153.667 174.869 152.957 175.092C151.967 175.403 151.315 176.284 150.315 176.568C150.132 176.62 149.911 176.833 150.109 177.112ZM93.9229 179.494C94.1789 179.763 94.5364 179.869 94.7719 179.608C95.3302 178.99 95.9306 179.101 96.5906 179.339C96.7872 179.41 97.0935 179.53 97.1406 179.186C97.1761 178.926 96.9404 178.782 96.6809 178.769C96.058 178.739 95.5771 178.39 95.1648 177.996C94.6095 177.466 93.8746 177.55 93.2388 177.31C93.0296 177.231 92.7405 177.382 92.8992 177.612C93.3095 178.206 93.419 178.958 93.9229 179.494ZM67.6637 149.442C67.1549 147.993 66.6985 146.655 66.2143 145.326C65.706 143.931 64.9495 142.618 64.8337 141.094C64.8137 140.831 64.6638 140.609 64.3904 140.687C64.071 140.779 64.1927 141.05 64.2816 141.267C64.8658 142.689 65.0884 144.216 65.5289 145.682C65.8926 146.891 66.6811 147.845 67.0813 149.003C67.1436 149.183 67.2904 149.353 67.6637 149.442ZM184.889 112.79C184.988 112.1 185.104 111.411 185.172 110.717C185.186 110.576 185.053 110.375 184.93 110.273C184.22 109.691 184.162 108.906 184.125 108.067C184.086 107.176 183.933 106.287 183.447 105.5C183.341 105.329 183.278 105.093 183.016 105.15C182.747 105.209 182.673 105.436 182.664 105.685C182.647 106.164 182.839 106.586 183.001 107.024C183.474 108.31 184.256 109.502 184.111 110.978C184.045 111.653 184.48 112.207 184.889 112.79ZM179.415 144.941C179.193 145.211 178.966 145.476 178.903 145.838C178.65 147.291 177.92 148.554 177.295 149.859C177.096 150.275 176.823 150.91 177.295 151.096C177.768 151.282 177.985 150.598 178.133 150.188C178.408 149.424 178.682 148.678 179.093 147.962C179.624 147.034 179.994 146.014 180.422 145.03C180.515 144.816 180.592 144.552 180.362 144.389C180.081 144.191 179.876 144.415 179.692 144.604C179.591 144.708 179.507 144.829 179.415 144.941ZM178.016 97.9575C177.871 98.435 178.06 98.8278 178.215 99.2201C178.954 101.096 179.838 102.907 180.354 104.879C180.615 105.873 180.935 106.873 181.292 107.849C181.361 108.038 181.431 108.265 181.696 108.227C181.972 108.187 181.955 107.96 181.938 107.752C181.866 106.852 181.782 105.95 181.293 105.159C180.931 104.574 180.696 103.94 180.731 103.266C180.77 102.508 180.456 102.015 179.87 101.594C179.553 101.366 179.051 101.095 179.174 100.67C179.535 99.4129 178.333 98.8921 178.016 97.9575ZM62.0051 125.151C61.1071 126.313 62.7764 137.581 63.9567 138.604C62.7927 134.243 62.6273 129.735 62.0051 125.151ZM185.317 131.697C185.662 131.735 185.781 131.483 185.875 131.216C186.129 130.492 185.926 129.721 186.059 128.998C186.257 127.921 186.65 126.877 186.223 125.767C186.155 125.591 186.224 125.364 186.212 125.162C186.08 123.003 186.151 120.829 185.747 118.69C185.714 118.516 185.689 118.294 185.494 118.281C185.202 118.261 185.222 118.535 185.212 118.726C185.197 119.015 185.19 119.308 185.222 119.595C185.371 120.935 185.765 122.248 185.589 123.622C185.512 124.22 185.427 124.841 185.503 125.431C185.723 127.151 185.604 128.837 185.226 130.519C185.144 130.885 185.131 131.268 185.317 131.697ZM181.874 103.241C182.124 103.535 182.281 103.697 182.503 103.551C182.806 103.351 182.726 103.07 182.645 102.771C182.247 101.299 181.26 100.026 181.189 98.4427C181.184 98.3359 181.119 98.2126 181.044 98.1311C180.24 97.2511 179.879 96.1326 179.379 95.0876C179.229 94.7757 179.135 94.2151 178.63 94.4746C178.152 94.7205 178.41 95.1806 178.588 95.5495C179.158 96.7275 179.745 97.897 180.297 99.0832C180.689 99.9239 181.17 100.756 181.178 101.709C181.183 102.425 181.52 102.915 181.874 103.241ZM182.585 115.07C182.21 116.179 182.479 117.103 183.145 117.935C183.493 118.368 183.797 118.814 183.452 119.347C183.083 119.918 183.206 120.502 183.216 121.113C183.238 122.344 183.48 123.579 183.288 124.803C182.936 127.041 182.838 129.288 183.145 131.524C183.313 132.753 182.601 133.656 182.288 134.705C182.218 134.939 181.961 135.158 181.658 135.043C181.399 134.945 181.26 134.69 181.233 134.424C181.213 134.229 181.293 134.027 181.315 133.826C181.465 132.457 181.933 131.11 181.606 129.709C181.559 129.505 181.687 129.162 181.36 129.138C181.043 129.115 180.829 129.365 180.738 129.663C180.502 130.436 180.153 131.164 180.087 132.002C179.992 133.215 179.927 134.469 179.566 135.616C178.713 138.33 178.535 141.22 177.285 143.833C176.551 145.368 176.088 147.032 175.386 148.585C174.295 150.996 172.605 153.078 171.512 155.501C171.186 156.224 170.686 156.964 170.069 157.441C168.887 158.353 168.005 159.499 167.229 160.712C166.414 161.985 165.379 163.018 164.272 164.001C162.385 165.676 160.435 167.284 158.597 169.011C157.398 170.138 156.12 171.192 154.665 171.862C153.483 172.406 152.424 173.038 151.449 173.863C151.383 173.918 151.307 173.968 151.228 174.001C150.043 174.493 149.013 175.269 147.737 175.63C146.611 175.947 145.643 176.771 144.482 177.076C142.773 177.523 141.212 178.482 139.404 178.568C138.815 178.596 138.264 178.717 137.7 178.88C135.971 179.381 134.212 179.755 132.41 179.857C131.842 179.889 131.281 179.715 130.711 180.003C129.85 180.437 128.914 180.593 127.944 180.549C127.66 180.536 127.338 180.52 127.151 180.8C127.052 180.947 127.051 181.153 127.184 181.291C127.436 181.55 127.799 181.587 128.077 181.45C128.957 181.018 129.846 181.27 130.734 181.333C130.964 181.349 131.184 181.379 131.423 181.333C133.009 181.025 134.456 180.312 136.163 180.252C137.946 180.19 139.707 179.451 141.472 178.985C141.839 178.888 142.23 178.634 142.448 179.12C142.642 179.553 142.251 179.781 141.936 179.891C140.273 180.471 138.639 181.216 136.83 181.168C135.882 181.143 135.22 181.588 134.603 182.252C136.21 181.587 137.993 182.061 139.598 181.338C140.516 180.925 141.51 180.569 142.5 180.46C143.413 180.359 144.157 179.959 144.955 179.633C145.355 179.469 145.544 179.176 145.318 178.727C145.012 178.117 145.256 177.757 145.846 177.499C147.517 176.768 149.262 176.197 150.794 175.162C151.938 174.388 153.359 174.102 154.379 173.074C154.75 172.7 155.322 172.506 155.829 172.291C156.22 172.126 156.62 172.135 156.911 172.558C157.469 173.37 158.012 173.412 158.678 172.663C159.535 171.697 160.565 170.938 161.604 170.199C163.291 168.999 164.771 167.573 166.27 166.159C166.794 165.665 167.062 164.932 167.64 164.563C168.287 164.149 168.879 163.711 169.36 163.123C170.553 161.663 171.696 160.159 172.94 158.743C174.363 157.126 175.178 155.15 176.288 153.349C176.442 153.099 176.682 152.69 176.382 152.475C176.033 152.224 175.867 152.705 175.64 152.889C175.429 153.06 175.221 153.251 174.945 153.077C174.666 152.903 174.596 152.608 174.684 152.308C174.739 152.119 174.842 151.924 174.976 151.782C175.569 151.156 175.87 150.373 176.263 149.627C176.7 148.798 176.797 147.85 177.28 147.069C177.82 146.196 178.221 145.262 178.497 144.297C179.061 142.32 179.877 140.414 180.188 138.364C180.252 137.945 180.502 137.641 180.967 137.728C181.388 137.807 181.456 138.195 181.469 138.549C181.477 138.776 181.446 139.027 181.352 139.231C180.873 140.268 180.817 141.431 180.366 142.475C180.271 142.694 180.201 142.949 180.482 143.082C180.733 143.2 180.952 143.055 181.071 142.844C181.197 142.621 181.28 142.367 181.346 142.117C181.606 141.139 181.65 140.098 182.165 139.195C182.418 138.752 182.475 138.292 182.529 137.79C182.661 136.583 182.84 135.37 183.138 134.194C183.451 132.954 183.89 131.81 183.97 130.453C184.071 128.713 183.588 126.894 184.336 125.191C184.416 125.009 184.355 124.711 184.258 124.518C183.946 123.896 183.879 123.23 183.89 122.564C183.903 121.74 183.651 120.909 183.725 120.128C183.898 118.313 184.003 116.58 182.585 115.07ZM128.496 183.014C127.732 182.533 127.102 182.555 126.481 182.721C126.051 182.836 125.682 182.743 125.298 182.586C124.699 182.341 124.496 182.066 125.201 181.687C125.463 181.547 125.594 181.334 125.515 181.041C125.437 180.755 125.174 180.747 124.945 180.74C124.103 180.716 123.267 180.614 122.42 180.736C120.234 181.051 118.057 180.69 115.963 180.227C114.542 179.913 113.136 179.784 111.714 179.647C111.187 179.597 110.71 179.465 110.212 179.276C109.579 179.035 109.019 178.352 108.286 178.634C107.332 179.001 106.516 178.737 105.691 178.336C104.721 177.866 103.742 177.389 102.696 177.152C101.194 176.814 99.8831 176.092 98.5276 175.417C97.696 175.003 97.0578 174.271 96.1496 174.032C94.9231 173.708 93.8186 173.169 92.8544 172.345C92.1213 171.719 91.31 171.209 90.4917 170.704C89.0096 169.79 87.6837 168.66 86.3095 167.599C84.5768 166.262 83.1272 164.629 81.813 162.893C81.3899 162.335 80.568 162.164 80.4212 161.406C80.336 160.966 80.125 160.655 79.777 160.417C78.7511 159.715 78.1526 158.656 77.6535 157.593C76.8682 155.92 75.6042 154.588 74.6104 153.069C73.9983 152.134 73.959 151.126 73.6376 150.161C73.5679 149.952 73.65 149.682 73.9042 149.573C74.1645 149.461 74.3602 149.628 74.5158 149.798C75.006 150.333 75.5299 150.845 75.7472 151.574C76.2291 153.19 77.1949 154.56 78.1509 155.895C79.7506 158.13 81.2778 160.43 83.2534 162.377C84.4521 163.559 85.5093 164.899 86.7896 165.979C88.512 167.432 90.3187 168.808 92.2618 169.962C93.1421 170.484 93.9527 171.051 94.7326 171.712C95.478 172.344 96.3095 172.982 97.2148 173.298C100.619 174.486 103.735 176.371 107.206 177.376C107.807 177.55 108.337 178.036 109.012 177.876C109.467 177.768 109.875 177.825 110.283 178.012C110.966 178.324 111.69 178.384 112.421 178.298C113.258 178.2 114.036 178.41 114.814 178.663C115.117 178.761 115.42 178.879 115.732 178.922C117.718 179.199 119.732 179.022 121.721 179.31C123.044 179.503 124.388 179.322 125.716 179.317C127.124 179.312 128.604 179.432 129.96 179.055C131.388 178.658 132.773 178.355 134.23 178.65C135.049 178.816 135.561 178.121 136.274 178.03C138.258 177.776 140.102 177.012 141.922 176.279C144.096 175.404 146.315 174.663 148.504 173.835C150.098 173.233 151.632 172.425 152.87 171.336C154.885 169.563 157.291 168.371 159.297 166.574C160.932 165.109 162.562 163.631 164.079 162.062C165.442 160.652 166.566 159.007 167.965 157.611C168.313 157.265 168.786 157.043 169.007 156.57C170.433 153.512 172.532 150.836 173.98 147.787C174.366 146.974 174.451 146.031 175.055 145.325C175.537 144.76 175.74 144.094 176 143.409C177.25 140.115 177.879 136.676 178.574 133.249C178.753 132.367 178.632 131.45 178.91 130.576C179.287 129.392 179.292 128.171 179.226 126.943C179.196 126.393 179.116 125.81 179.251 125.292C179.763 123.325 179.236 121.403 179.003 119.492C178.719 117.166 178.499 114.834 178.222 112.507C178.173 112.102 178.173 111.588 178.642 111.466C179.162 111.331 179.337 111.869 179.425 112.228C179.744 113.517 179.831 114.852 180.001 116.162C180.188 117.612 180.456 119.056 180.522 120.531C180.599 122.259 181.049 123.977 180.436 125.697C180.245 126.233 180.311 126.795 180.541 127.315C180.724 127.73 181.109 127.938 181.53 127.896C181.941 127.854 181.899 127.429 181.944 127.126C181.995 126.782 182.008 126.433 182.042 126.087C182.172 124.781 181.607 123.509 181.858 122.196C181.979 121.561 181.944 120.918 181.817 120.291C181.625 119.342 181.554 118.387 181.628 117.426C181.689 116.655 181.582 115.938 181.271 115.217C180.898 114.35 180.829 113.412 180.942 112.475C180.977 112.182 181.123 111.887 181.475 111.872C181.863 111.856 181.929 112.165 181.964 112.468C181.998 112.758 182.012 113.05 182.061 113.336C182.117 113.665 182.062 114.195 182.458 114.186C182.783 114.179 182.987 113.686 183.079 113.322C183.132 113.11 183.07 112.862 183.03 112.635C182.925 112.036 182.768 111.449 182.779 110.827C182.79 110.278 182.335 109.897 182.151 109.411C182.121 109.334 181.96 109.253 181.869 109.262C181.686 109.28 181.691 109.446 181.69 109.597C181.689 109.826 181.721 110.072 181.65 110.281C181.55 110.57 181.459 110.933 181.052 110.943C180.687 110.952 180.459 110.709 180.327 110.403C180.155 110.003 179.964 109.597 179.884 109.175C179.506 107.177 179.018 105.217 178.117 103.379C177.965 103.069 177.882 102.72 177.805 102.38C177.499 101.019 176.864 99.7769 176.369 98.4883C175.997 97.5229 175.724 96.5068 175.152 95.6102C174.925 95.2549 174.875 94.6978 175.456 94.5257C175.965 94.3749 176.156 94.7733 176.286 95.2004C176.361 95.4459 176.495 95.676 176.623 95.9018C176.693 96.0268 176.816 96.149 176.975 96.0642C177.137 95.9773 177.112 95.7809 177.034 95.6777C176.444 94.9058 176.266 93.9218 175.714 93.1359C174.517 91.4307 173.515 89.5989 172.226 87.9483C171.107 86.5156 170.216 84.9116 168.876 83.6396C168.461 83.2455 167.98 82.684 168.806 82.1292C169.118 81.9196 169.044 81.6338 168.808 81.3839C166.857 79.3164 165.205 76.9036 162.389 75.834C162.029 75.6968 161.787 75.3989 161.501 75.1524C160.496 74.2869 159.74 73.1147 158.434 72.6171C157.911 72.4176 157.505 72.054 157.053 71.7427C156.105 71.0887 155.192 70.3634 154.205 69.7917C153.292 69.2629 152.355 68.7198 151.323 68.3893C150.71 68.1931 150.209 67.7679 149.742 67.321C149.343 66.9382 149.2 66.5419 149.731 66.1643C150.278 65.7752 150.083 65.4717 149.603 65.3016C148.989 65.0842 148.463 64.7206 147.9 64.4204C145.684 63.2381 143.097 63.0698 140.898 61.8232C140.008 61.3189 138.836 61.4771 137.982 61.0098C135.881 59.8596 133.562 60.0322 131.354 59.7879C128.042 59.4213 124.686 59.7079 121.348 59.8296C120.03 59.8776 118.684 60.22 117.367 59.8262C116.585 59.5921 115.852 59.7673 115.166 60.0725C114.725 60.2688 114.273 60.4605 113.832 60.3987C112.198 60.1699 110.754 60.9404 109.245 61.2715C106.801 61.8077 104.477 62.8707 101.965 63.1486C100.796 63.2779 100.033 64.1544 98.981 64.5029C97.4686 65.004 95.8628 65.4711 94.5803 66.3612C92.569 67.7568 90.335 68.7684 88.3765 70.2409C86.242 71.8453 83.8226 73.0513 81.9394 75.0168C80.5752 76.4407 79.1034 77.7647 77.6393 79.0889C76.3837 80.2247 75.4604 81.655 74.2156 82.8058C73.582 83.3917 72.7715 83.7799 72.3071 84.5708C71.429 86.0657 70.5226 87.5456 69.5785 88.9998C68.8391 90.1395 68.4029 91.5023 67.2911 92.3689C66.6372 92.8785 66.3708 93.5465 66.2199 94.2919C66.1149 94.8107 65.879 95.2841 65.7553 95.7869C65.4373 97.0817 64.5234 98.0932 64.0991 99.3145C63.1381 102.082 62.1426 104.835 61.2995 107.648C60.6625 109.773 60.4899 111.955 59.9688 114.082C59.7815 114.846 59.7155 115.628 59.8028 116.419C59.8236 116.607 59.8461 116.778 60.0518 116.821C60.2676 116.867 60.3678 116.703 60.4239 116.534C60.6255 115.926 60.867 115.305 60.7292 114.662C60.5586 113.867 60.718 113.116 60.8031 112.334C60.9329 111.14 61.4372 110.058 61.671 108.914C62.0985 106.82 63.2743 104.946 63.405 102.774C63.4153 102.607 63.6509 102.464 63.7467 102.29C64.4275 101.055 65.6545 100.057 65.8383 98.6374C66.0455 97.0377 66.8602 95.8326 67.7188 94.5974C68.1487 93.9791 68.5878 93.3663 69.0472 92.7702C69.1829 92.5943 69.3955 92.4233 69.6499 92.5724C69.7213 92.6142 69.7901 92.8154 69.754 92.8626C69.2985 93.4589 69.3772 94.2519 68.9733 94.8753C68.0552 96.2925 67.3528 97.8209 66.8848 99.4425C66.6223 100.351 66.193 101.161 65.6661 101.928C65.4514 102.24 65.1971 102.528 65.0924 102.9C64.3309 105.6 62.8795 108.037 62.3768 110.87C61.9704 113.161 61.7168 115.46 61.4264 117.756C61.2823 118.895 61.3603 120.073 61.4335 121.226C61.5011 122.292 61.2953 123.41 61.8486 124.468C62.4217 123.415 62.4468 122.309 62.3489 121.273C62.1733 119.411 62.7086 117.677 62.9759 115.889C63.1074 115.01 63.6405 114.274 63.6956 113.389C63.895 110.183 65.0981 107.246 66.1512 104.27C66.3158 103.804 66.5782 103.384 67.1708 103.583C67.7591 103.782 67.6012 104.25 67.4752 104.679C66.6891 107.354 65.5989 109.93 64.8938 112.633C64.7087 113.343 64.4936 114.031 64.6289 114.772C64.6827 115.066 64.6634 115.354 64.5659 115.633C63.9656 117.352 63.8366 119.157 63.7881 120.941C63.7046 124 63.653 127.05 64.0347 130.124C64.3117 132.355 64.7911 134.555 65.0272 136.798C65.2624 139.033 66.1035 141.213 66.8321 143.377C67.2314 144.564 67.9127 145.64 68.2012 146.84C68.4628 147.926 69.1728 148.666 69.7644 149.512C69.847 149.631 69.9875 149.73 70.1385 149.664C70.3223 149.583 70.2122 149.43 70.2007 149.29C70.0588 147.547 69.0838 146.073 68.4749 144.512C67.6272 142.34 67.0927 140.115 66.5228 137.885C66.3406 137.172 66.2028 136.466 65.6614 135.921C65.417 135.675 65.2671 135.415 65.5297 135.081C65.9777 134.51 65.8722 133.895 65.6968 133.254C65.4292 132.275 65.0091 131.33 64.9686 130.298C64.8898 128.3 65.0033 126.305 65.0983 124.311C65.115 123.96 65.1624 123.618 65.0506 123.276C64.8277 122.594 64.9711 121.959 65.29 121.341C65.4249 121.079 65.5279 120.748 65.8773 120.784C66.3022 120.828 66.3083 121.222 66.3062 121.533C66.298 122.624 66.1387 123.7 66.2579 124.813C66.3549 125.717 66.4479 126.644 66.3887 127.584C66.3073 128.879 66.4767 130.19 66.3635 131.494C66.3071 132.143 66.858 132.609 66.8854 133.23C66.9894 135.595 67.6665 137.853 68.1698 140.143C68.2434 140.478 68.3993 140.803 68.5618 141.108C68.9203 141.781 69.1544 142.49 69.3482 143.226C69.6292 144.293 69.9965 145.344 70.5496 146.297C71.1645 147.357 71.7667 148.405 72.1023 149.598C72.3846 150.603 73.0004 151.502 73.0461 152.592C73.0531 152.759 73.3313 152.954 73.0757 153.101C72.8313 153.241 72.7101 152.998 72.6424 152.809C72.3595 152.024 71.7882 151.43 71.3082 150.776C71.1443 150.553 71.0115 150.096 70.5975 150.446C70.2994 150.697 69.9405 150.957 70.2312 151.466C70.6301 152.165 70.9509 152.911 71.3751 153.592C72.3419 155.146 73.3087 156.703 74.3551 158.203C75.5315 159.89 76.7284 161.572 78.0375 163.156C79.9114 165.423 82.1987 167.29 84.3387 169.293C85.4231 170.309 86.3895 171.481 87.8488 172.097C88.6772 172.446 89.3707 173.137 90.0909 173.716C91.4127 174.778 92.7077 175.868 94.5901 175.075C94.7332 175.015 94.9367 175.048 95.0982 175.09C96.1425 175.366 97.1381 175.761 98.0613 176.329C98.2868 176.468 98.4237 176.654 98.3169 176.906C98.1801 177.229 97.9065 177.187 97.6536 177.059C97.2434 176.853 96.8373 176.654 96.2217 176.774C96.7947 177.703 97.6465 178.105 98.4937 178.404C100.803 179.22 103.142 179.95 105.469 180.715C105.63 180.768 105.838 180.9 105.933 180.704C106.063 180.435 105.778 180.377 105.611 180.292C105.43 180.2 105.228 180.15 105.044 180.064C103.612 179.394 101.937 179.387 100.609 178.43C100.254 178.174 99.4701 178.117 99.6411 177.632C99.8419 177.062 100.555 177.413 100.954 177.569C102.608 178.217 104.329 178.634 106.018 179.158C108.683 179.983 111.402 180.575 114.127 181.131C114.964 181.302 115.854 181.273 116.72 181.366C118.192 181.523 119.641 182.046 121.171 181.599C121.8 181.416 122.275 182.028 122.057 182.677C121.886 183.19 122.112 183.219 122.488 183.239C124.427 183.342 126.353 183.112 128.496 183.014ZM178.736 159.136C177.284 161.096 175.884 163.097 174.267 164.922C172.304 167.137 170.392 169.41 167.986 171.182C167.255 171.72 166.84 172.559 166.077 173.086C164.196 174.386 162.33 175.712 160.506 177.091C158.668 178.482 156.622 179.495 154.612 180.588C153.624 181.126 152.657 181.727 151.71 182.337C150.46 183.142 149.025 183.395 147.687 183.926C146.068 184.569 144.451 185.289 142.764 185.661C141.468 185.947 140.175 186.276 138.869 186.527C137.359 186.817 135.937 187.434 134.384 187.598C131.363 187.915 128.365 188.511 125.319 188.501C124.141 188.497 122.951 188.794 121.77 188.439C121.447 188.342 121.085 188.416 120.735 188.486C119.878 188.655 119.007 188.788 118.165 188.418C117.468 188.112 116.779 188.556 116.098 188.417C114.777 188.147 113.431 187.961 112.113 187.738C110.134 187.403 108.284 186.54 106.262 186.451C105.443 186.415 104.831 185.837 104.143 185.476C103.632 185.208 103.134 185.038 102.56 185.152C102.173 185.228 101.803 185.136 101.445 185.013C99.3853 184.307 97.3135 183.622 95.4315 182.498C94.354 181.854 93.0827 181.6 92.0571 180.901C90.1653 179.613 88.0972 178.597 86.3104 177.151C86.1975 177.059 86.0929 176.926 85.963 176.891C84.4665 176.488 83.4625 175.394 82.3329 174.435C80.4729 172.856 78.6046 171.303 76.925 169.519C75.8341 168.361 74.8528 167.108 73.7049 165.988C72.8214 165.126 71.9335 164.161 71.376 162.977C70.9783 162.133 70.3091 161.454 69.688 160.764C68.8016 159.78 68.1683 158.661 67.5843 157.477C66.4426 155.161 65.1175 152.934 64.0058 150.605C62.8972 148.282 61.7451 145.968 61.1943 143.411C60.9078 142.08 60.4426 140.787 60.0329 139.485C59.2809 137.095 58.8676 134.633 58.5697 132.159C58.4606 131.254 58.0809 130.441 57.9918 129.533C57.821 127.789 58.2111 126.003 57.8107 124.317C57.3687 122.456 58.1454 120.7 57.927 118.889C57.6703 116.759 58.0266 114.626 58.3832 112.572C58.6801 110.861 58.8687 109.083 59.53 107.411C59.9734 106.29 60.3668 105.103 60.5754 103.916C60.8843 102.159 61.6381 100.607 62.4193 99.0557C62.8517 98.1967 63.2791 97.3607 63.4753 96.399C63.8073 94.7693 64.5896 93.2922 65.287 91.8036C65.8623 90.5764 66.774 89.5305 67.443 88.3337C68.1865 87.0036 69.1262 85.7735 70.0619 84.5633C71.0161 83.3289 72.2029 82.2587 73.0515 80.962C74.8363 78.235 77.4979 76.3944 79.6925 74.0877C79.9671 73.7987 80.3462 73.6116 80.6656 73.3626C83.1826 71.4008 85.7187 69.4609 88.4142 67.7519C89.7846 66.8832 91.2762 66.2079 92.6871 65.3997C94.0997 64.5905 95.5334 63.8287 97.0798 63.3161C98.0428 62.9969 98.8798 62.4161 99.7928 62.0034C101.267 61.3373 102.819 60.8984 104.328 60.5296C106.723 59.9438 108.994 58.9589 111.457 58.5584C113.002 58.3073 114.608 58.2946 116.116 57.7287C116.931 57.4233 117.843 57.4879 118.715 57.5453C121.039 57.6981 123.354 57.3887 125.672 57.4328C127.528 57.4682 129.381 57.6419 131.235 57.7582C132.248 57.8217 133.262 57.9674 134.272 57.9458C136.114 57.9064 137.876 58.5106 139.508 59.0775C141.633 59.8161 143.818 60.4308 145.913 61.2941C147.355 61.8886 148.763 62.5848 150.27 63.0467C151.143 63.3147 151.977 63.7957 152.746 64.3045C154.226 65.2831 155.844 66.0291 157.28 67.0794C157.72 67.4007 158.242 67.6266 158.755 67.8253C159.943 68.2865 160.941 68.981 161.749 69.975C162.11 70.4189 162.754 70.4161 163.207 70.7365C164.797 71.8589 166.218 73.1846 167.689 74.4509C167.886 74.6205 168.025 74.8628 168.235 75.0102C170.983 76.9443 172.941 79.623 175.064 82.1558C176.065 83.3503 176.762 84.6991 177.539 86.024C178.156 87.0758 179.123 87.9158 179.832 88.9219C180.511 89.8848 181.133 90.9054 181.452 92.063C181.621 92.6741 182.017 93.1513 182.381 93.6289C183.174 94.6694 183.579 95.8917 183.985 97.0864C184.47 98.5122 185.398 99.7748 185.535 101.33C185.555 101.566 185.741 101.806 185.896 102.009C186.26 102.487 186.504 103.004 186.507 103.611C186.512 104.986 187.317 106.14 187.548 107.46C187.912 109.539 188.632 111.546 188.716 113.689C188.756 114.722 189.095 115.734 189.209 116.776C189.298 117.586 189.408 118.38 189.358 119.203C189.281 120.472 189.598 121.717 189.556 123.006C189.451 126.244 189.498 129.493 188.908 132.689C188.598 134.37 188.116 136.025 187.618 137.664C187.347 138.555 187.238 139.475 186.985 140.372C186.652 141.554 186.339 142.712 185.605 143.718C185.508 143.85 185.415 144.069 185.457 144.205C185.906 145.654 184.902 146.699 184.429 147.878C184.084 148.739 183.683 149.566 183.502 150.491C183.324 151.404 183.001 152.263 182.418 153.033C181.292 154.519 180.576 156.253 179.632 157.85C179.367 158.299 179.037 158.709 178.736 159.136Z" fill="black"/>
<path fill-rule="evenodd" clip-rule="evenodd" d="M80.2153 191.75C79.4528 190.941 78.5726 190.409 77.5175 190.172C77.2975 190.123 77.0402 190.033 76.8985 189.873C75.9386 188.795 74.6113 188.188 73.5594 187.232C72.5645 186.328 71.4387 185.613 70.2956 184.92C70.0982 184.8 69.8638 184.686 69.7427 184.505C68.7639 183.044 67.2053 182.146 66.1499 180.749C65.5255 179.923 64.7514 179.195 63.9759 178.5C62.6132 177.278 61.8704 175.607 60.7646 174.2C59.9214 173.127 58.8948 172.236 58.0443 171.171C57.5261 170.523 57.1844 169.87 57.1015 169.075C57.0602 168.679 56.9225 168.445 56.5216 168.325C55.8812 168.134 55.5086 167.702 55.1982 167.073C54.6471 165.958 53.9389 164.917 53.2673 163.863C51.947 161.793 51.0025 159.534 49.9885 157.314C49.1805 155.546 48.5382 153.702 47.7961 151.903C47.1865 150.423 47.0785 148.797 46.4319 147.333C45.6866 145.647 45.4179 143.819 45.0532 142.052C44.5476 139.602 43.8999 137.174 43.6609 134.655C43.5202 133.169 43.3748 131.68 43.2833 130.19C42.9976 125.54 42.9294 120.891 43.4766 116.251C43.8258 113.29 44.3348 110.365 45.2876 107.531C45.3511 107.343 45.4375 107.15 45.5598 106.996C45.7224 106.791 45.9331 106.59 46.2284 106.749C46.4688 106.877 46.5227 107.151 46.4399 107.362C45.54 109.651 45.9444 112.202 45.0057 114.482C44.9192 114.692 44.8277 114.95 44.8727 115.157C45.3714 117.454 44.911 119.766 44.6301 121.992C44.3104 124.524 44.9825 126.999 44.526 129.519C44.2401 131.097 44.8068 132.747 45.0973 134.341C45.2539 135.201 45.1901 136.013 45.1257 136.843C45.0579 137.717 45.3536 138.495 45.6439 139.283C46.0709 140.442 46.1025 141.673 46.3129 142.872C46.6841 144.991 47.6695 146.954 48.0239 149.068C48.3697 151.131 49.6277 152.764 50.3483 154.634C51.5557 157.766 53.2552 160.644 54.7173 163.643C55.4641 165.174 56.5462 166.534 57.1819 168.14C57.3001 168.439 57.6268 168.67 57.891 168.892C59.1433 169.946 59.7289 171.463 60.6159 172.769C60.7112 172.91 60.808 173.075 60.9463 173.158C61.9861 173.785 62.4879 174.86 63.194 175.771C64.2573 177.144 65.4105 178.443 66.6037 179.71C67.8582 181.042 69.2427 182.229 70.5582 183.492C71.0613 183.975 71.4955 184.526 72.1378 184.83C73.7115 185.572 74.7957 186.964 76.224 187.892C77.7909 188.909 79.309 190.023 81.0402 190.753C81.5694 190.976 81.9243 191.392 82.4079 191.656C84.5465 192.82 86.6045 194.129 88.7836 195.222C89.4625 195.563 90.1208 195.886 90.9172 195.872C91.4048 195.864 91.9882 195.935 92.314 196.283C93.4568 197.503 94.9801 197.745 96.4838 198.045C97.8683 198.321 98.9948 199.256 100.388 199.508C101.728 199.749 103.024 200.211 104.398 200.29C104.764 200.31 105.28 200.343 105.28 200.809C105.279 201.392 104.703 201.284 104.331 201.29C103.696 201.299 103.064 201.258 102.442 201.047C101.124 200.602 99.7043 200.592 98.3846 200.106C97.9199 199.935 97.4512 199.826 97.059 199.5C96.8606 199.334 96.6324 199.132 96.3956 199.097C94.4918 198.817 92.8761 197.825 91.1369 197.12C89.259 196.36 87.3984 195.549 85.5396 194.75C83.6601 193.942 81.823 192.999 80.2153 191.75Z" fill="black"/>
<path fill-rule="evenodd" clip-rule="evenodd" d="M182.416 174.421C181.183 175.724 179.998 176.81 179.024 178.06C178.241 179.067 177.208 179.805 176.437 180.838C175.785 181.711 174.72 182.293 173.789 182.933C172.966 183.498 172.264 184.198 171.557 184.875C170.656 185.738 169.646 186.394 168.543 186.921C168.101 187.132 167.806 187.48 167.449 187.769C166.674 188.398 165.749 188.768 164.905 189.276C164.448 189.551 164.043 189.842 163.696 190.251C163.478 190.508 163.175 190.74 162.863 190.863C160.15 191.938 157.705 193.528 155.11 194.826C154.001 195.381 152.797 195.747 151.633 196.193C151.444 196.265 151.206 196.255 151.052 196.367C149.879 197.225 148.401 197.132 147.112 197.634C146.652 197.812 146.201 198.011 145.749 198.204C144.345 198.804 142.863 199.092 141.374 199.363C141.175 199.399 140.855 199.399 140.802 199.513C140.393 200.394 139.691 200.006 139.055 199.979C137.662 199.92 136.354 200.371 135.042 200.738C134.491 200.892 133.965 200.978 133.411 200.882C132.266 200.683 131.144 200.864 130.036 201.103C129.452 201.23 128.883 201.248 128.302 201.18C127.911 201.134 127.388 201.192 127.369 200.622C127.352 200.086 127.756 199.711 128.24 199.685C129.285 199.629 130.318 199.379 131.374 199.499C131.633 199.528 131.915 199.599 132.153 199.531C133.356 199.191 134.615 199.149 135.811 198.913C137.506 198.578 139.273 198.495 140.914 197.834C141.656 197.536 142.453 197.301 143.3 197.397C143.575 197.427 143.911 197.368 144.143 197.226C145.643 196.309 147.393 196.168 149.01 195.62C150.385 195.153 151.612 194.299 153.063 194.035C154.331 193.805 155.265 192.838 156.438 192.493C157.71 192.118 158.726 191.338 159.875 190.819C161.376 190.142 162.794 189.436 164.008 188.324C164.261 188.093 164.577 187.9 164.897 187.775C166.196 187.271 167.134 186.333 168.175 185.448C169.217 184.562 170.361 183.636 171.731 183.157C172.591 182.856 173.038 182.022 173.633 181.436C175.088 180.002 176.781 178.842 178.112 177.251C179.108 176.06 180.318 175.031 181.307 173.811C181.325 173.789 181.345 173.766 181.369 173.75C181.722 173.501 182.117 173.116 182.522 173.511C182.899 173.879 182.521 174.256 182.416 174.421Z" fill="black"/>
<path fill-rule="evenodd" clip-rule="evenodd" d="M199.701 152.631C198.529 153.277 198.696 154.549 198.218 155.483C197.142 157.587 196.085 159.702 195.06 161.832C194.153 163.713 192.984 165.424 191.738 167.082C191.127 167.894 190.561 168.726 190.043 169.6C189.81 169.995 189.51 170.358 189.195 170.694C188.967 170.937 188.652 170.895 188.402 170.685C188.15 170.473 188.226 170.224 188.384 169.984C189.462 168.349 190.442 166.652 191.675 165.117C192.727 163.807 193.544 162.306 194.315 160.84C195.302 158.962 196.285 157.066 197.189 155.139C197.517 154.437 197.638 153.638 197.967 152.937C198.7 151.377 199.484 149.84 200.288 148.316C200.708 147.519 200.61 146.629 200.831 145.794C201.41 143.613 201.935 141.413 202.373 139.199C202.675 137.669 202.718 136.086 203.173 134.582C203.304 134.149 203.216 133.408 203.892 133.489C204.677 133.584 204.644 134.365 204.528 134.898C204.155 136.616 204.076 138.411 203.282 140.023C203.219 140.15 203.168 140.301 203.173 140.439C203.242 142.393 202.291 144.084 201.828 145.9C201.348 147.783 200.576 149.558 199.798 151.327C199.601 151.776 199.857 152.25 199.701 152.631Z" fill="black"/>
<path fill-rule="evenodd" clip-rule="evenodd" d="M203.829 108.012C204.026 108.163 204.301 108.26 204.189 108.559C203.803 109.584 204.312 110.574 204.256 111.585C204.25 111.701 204.223 111.859 204.284 111.928C205.244 113.03 204.78 114.42 204.888 115.649C205.138 118.505 205.899 121.324 205.642 124.215C205.48 126.041 205.593 127.89 205.153 129.693C205.044 130.141 205.282 130.553 205.259 130.994C205.238 131.415 205.118 131.774 204.65 131.823C204.155 131.875 204.135 131.472 204.076 131.119C203.953 130.389 204.137 129.658 204.105 128.935C204.007 126.662 204.24 124.392 204.213 122.121C204.198 120.872 204.342 119.564 204.031 118.389C203.311 115.676 203.685 112.808 202.799 110.133C202.64 109.654 202.713 109.093 202.698 108.568C202.689 108.248 202.671 107.887 203.009 107.711C203.376 107.521 203.582 107.88 203.829 108.012Z" fill="black"/>
<path fill-rule="evenodd" clip-rule="evenodd" d="M187.176 173.127C186.052 174.706 184.61 176.028 183.564 177.672C183.282 178.115 182.73 178.381 182.31 178.737C180.872 179.957 179.789 181.517 178.278 182.686C175.615 184.747 173.109 187.004 170.432 189.046C169.758 189.559 168.873 189.901 168.091 190.333C167.876 190.451 167.533 190.528 167.35 190.264C167.125 189.939 167.48 189.827 167.659 189.657C169.249 188.16 171.195 187.122 172.888 185.754C173.564 185.207 173.826 184.302 174.704 183.929C176.735 183.066 177.88 181.176 179.475 179.804C182.086 177.558 184.106 174.772 186.368 172.207C186.616 171.926 186.898 171.67 187.192 171.436C187.352 171.31 187.578 171.266 187.768 171.437C187.953 171.604 187.95 171.825 187.85 172.009C187.642 172.391 187.402 172.755 187.176 173.127Z" fill="black"/>
<path fill-rule="evenodd" clip-rule="evenodd" d="M89.5867 192.534C89.8816 192.864 90.0922 193.023 90.3577 193.076C92.7199 193.549 94.7161 194.947 96.8949 195.883C97.2181 196.022 97.6003 196.234 97.4124 196.643C97.2188 197.064 96.7988 197.089 96.3845 196.867C94.8476 196.041 93.0672 195.911 91.5609 194.996C91.1552 194.75 91.0203 195.572 90.6079 195.231C90.3208 194.994 90.5293 194.539 90.1505 194.255C89.4315 193.714 88.5855 193.494 87.797 193.142C87.2106 192.881 86.6586 192.551 86.0805 192.301C84.9045 191.794 84.0829 190.802 82.9945 190.192C82.6192 189.982 82.4015 189.658 82.5852 189.267C82.7699 188.875 83.1789 189.017 83.502 189.108C84.5574 189.407 85.3445 190.208 86.2976 190.706C87.4563 191.312 88.5866 191.975 89.5867 192.534Z" fill="black"/>
<path fill-rule="evenodd" clip-rule="evenodd" d="M138.463 202.278C138.041 201.967 138.128 201.564 138.7 201.3C139.608 200.882 140.592 200.721 141.551 200.488C144.228 199.836 146.894 199.169 149.502 198.235C151.125 197.654 152.69 196.968 154.25 196.249C154.629 196.075 155.097 195.944 155.313 196.433C155.555 196.98 155.112 197.192 154.69 197.386C153.154 198.094 151.678 199.011 150.076 199.47C148.561 199.905 147.204 200.887 145.526 200.81C144.634 200.769 143.841 201.383 142.933 201.52C141.791 201.692 140.675 202.06 139.552 202.361C139.169 202.463 138.809 202.498 138.463 202.278Z" fill="black"/>
<path fill-rule="evenodd" clip-rule="evenodd" d="M193.532 156.656C193.907 156.337 194.081 155.894 194.231 155.452C195.019 153.125 196.217 150.977 197.078 148.681C197.449 147.692 197.913 146.744 198.004 145.666C198.039 145.25 198.199 144.864 198.426 144.519C198.609 144.242 198.867 144.004 199.235 144.127C199.613 144.253 199.68 144.608 199.62 144.937C199.521 145.485 199.405 146.035 199.228 146.56C198.66 148.247 197.791 149.819 197.408 151.578C197.305 152.051 196.999 152.441 196.649 152.741C196.084 153.225 195.716 153.876 195.634 154.534C195.407 156.351 193.941 157.526 193.436 159.184C193.336 159.51 192.992 159.674 192.631 159.536C192.216 159.376 192.252 158.988 192.388 158.706C192.727 158.002 192.965 157.232 193.532 156.656Z" fill="black"/>
<path fill-rule="evenodd" clip-rule="evenodd" d="M184.731 170.205C187.196 167.762 188.557 164.819 190.543 162.337C190.808 162.006 190.847 161.524 191.223 161.254C191.483 161.067 191.769 160.837 192.077 161.03C192.428 161.25 192.259 161.624 192.113 161.878C191.495 162.945 190.896 164.031 190.185 165.035C188.693 167.142 187.138 169.204 185.595 171.274C185.447 171.473 185.217 171.625 184.998 171.753C184.78 171.881 184.519 172.006 184.292 171.776C184.104 171.586 184.17 171.34 184.264 171.133C184.44 170.742 184.649 170.365 184.731 170.205Z" fill="black"/>
<path fill-rule="evenodd" clip-rule="evenodd" d="M119.384 203.252C119.176 203.097 119.027 202.985 119.065 202.779C119.103 202.579 119.274 202.513 119.444 202.466C119.811 202.363 120.185 202.317 120.572 202.359C123.206 202.644 125.832 202.277 128.466 202.426C128.951 202.453 129.439 202.248 129.932 202.21C130.335 202.178 130.855 202.169 130.917 202.702C130.969 203.157 130.452 203.188 130.144 203.238C128.305 203.534 126.473 203.87 124.593 203.915C123.064 203.951 121.548 203.942 120.059 203.498C119.806 203.423 119.561 203.318 119.384 203.252Z" fill="black"/>
<path fill-rule="evenodd" clip-rule="evenodd" d="M201.449 125.948C201.631 125.726 201.844 125.58 202.124 125.643C202.463 125.719 202.57 125.995 202.563 126.298C202.522 128.113 202.67 129.942 202.232 131.725C202.134 132.126 201.976 132.552 201.486 132.496C200.945 132.434 201.004 131.97 201.007 131.557C201.021 130.06 201.457 128.587 201.156 127.067C201.08 126.686 201.249 126.282 201.449 125.948Z" fill="black"/>
<path fill-rule="evenodd" clip-rule="evenodd" d="M201.49 114.973C201.737 114.663 202.034 114.584 202.18 114.951C202.556 115.898 202.953 116.839 202.799 117.943C202.673 118.843 202.585 119.761 202.784 120.651C202.902 121.176 202.647 121.473 202.207 121.58C201.721 121.698 201.649 121.284 201.608 120.929C201.437 119.451 201.289 117.969 201.11 116.493C201.042 115.93 201.3 115.459 201.49 114.973Z" fill="black"/>
<path fill-rule="evenodd" clip-rule="evenodd" d="M201.132 134.143C201.448 133.838 201.683 133.949 201.824 134.265C202.045 134.76 202.024 135.294 201.81 135.772C201.221 137.085 201.251 138.537 200.824 139.885C200.704 140.264 200.656 140.666 200.537 141.046C200.466 141.272 200.284 141.45 200.025 141.436C199.712 141.419 199.596 141.169 199.554 140.906C199.454 140.284 199.639 139.698 199.931 139.174C200.192 138.704 200.295 138.231 200.33 137.707C200.405 136.589 201.089 135.593 201.026 134.439C201.021 134.336 201.1 134.227 201.132 134.143Z" fill="black"/>
<path fill-rule="evenodd" clip-rule="evenodd" d="M97.8556 197.185C97.7566 197.075 97.3396 196.911 97.5499 196.526C97.7579 196.145 98.1814 196.312 98.427 196.447C99.8605 197.238 101.491 197.394 103.022 197.866C103.433 197.992 104.047 198.206 103.985 198.626C103.916 199.088 103.283 198.858 102.907 198.89C101.942 198.972 101.036 198.781 100.22 198.228C99.5394 197.766 98.5893 197.909 97.8556 197.185Z" fill="black"/>
<path fill-rule="evenodd" clip-rule="evenodd" d="M162.081 193.291C163.239 192.523 164.396 191.583 165.881 191.307C166.074 191.271 166.285 191.243 166.396 191.439C166.525 191.664 166.413 191.883 166.243 192.036C166.017 192.239 165.764 192.418 165.507 192.582C164.637 193.136 163.758 193.674 162.887 194.227C162.515 194.463 162.196 194.387 161.935 194.099C161.709 193.849 161.838 193.59 162.081 193.291Z" fill="black"/>
<path fill-rule="evenodd" clip-rule="evenodd" d="M155.527 196.509C155.268 196.287 155.337 195.983 155.649 195.923C157.007 195.664 158.122 194.85 159.375 194.36C159.642 194.255 159.931 194.249 160.055 194.582C160.169 194.886 160.036 195.174 159.741 195.227C158.587 195.435 157.725 196.299 156.611 196.591C156.243 196.688 155.905 196.73 155.527 196.509Z" fill="black"/>
<path fill-rule="evenodd" clip-rule="evenodd" d="M152.035 151.37C152.941 150.506 154.1 149.9 154.803 148.804C154.923 148.616 155.233 148.362 154.845 148.169C154.162 147.831 153.525 148.194 153.468 148.969C153.421 149.587 153.255 150.088 152.701 150.439C152.381 150.641 152.166 150.967 152.035 151.37ZM93.0493 100.253C91.4351 101.768 90.3917 103.641 89.5881 105.667C90.4351 104.778 90.6914 103.492 91.6909 102.706C92.4779 102.086 92.7026 101.134 93.0493 100.253ZM109.966 87.6941C108.673 87.3074 104.541 89.4052 104.274 90.5105C106.103 89.4561 107.912 88.4845 109.966 87.6941ZM92.0728 98.8094C92.3332 98.3367 92.6616 97.9022 93.1045 97.6497C93.7549 97.2788 94.1314 96.6544 94.6711 96.1912C95.1538 95.7769 95.2184 95.0897 95.7205 94.6967C95.9298 94.5331 96.3348 94.3449 95.9907 94.0426C95.6955 93.783 95.3651 94.0377 95.1974 94.3307C94.8153 94.9982 94.1843 95.4783 93.8014 96.1173C93.2504 97.0369 92.4047 97.7579 92.0728 98.8094ZM131.287 160.65C129.903 160.512 128.623 161.101 127.279 160.92C127.206 160.91 127.111 160.972 127.043 161.024C126.814 161.198 126.692 161.456 126.79 161.714C126.89 161.979 127.138 161.8 127.328 161.783C127.792 161.742 128.263 161.642 128.72 161.686C129.769 161.786 130.493 161.147 131.287 160.65ZM89.3981 136.986C89.5586 137.102 89.7069 137.314 89.9287 137.203C90.2067 137.062 90.0729 136.793 90.0407 136.575C90.0153 136.404 89.9599 136.234 89.8968 136.072C89.5354 135.14 88.863 134.325 88.9097 133.237C88.9199 132.996 88.7881 132.574 88.4 132.668C88.0517 132.752 88.0392 133.137 88.1514 133.407C88.5585 134.385 88.7282 135.422 88.9769 136.44C89.0367 136.684 89.2283 136.826 89.3981 136.986ZM160.094 107.802C160.282 107.569 160.234 107.305 160.129 107.126C159.344 105.786 158.996 104.196 157.817 103.082C157.468 102.753 157.179 102.354 157.209 101.87C157.243 101.325 156.899 101.02 156.621 100.658C156.497 100.497 156.354 100.303 156.122 100.412C155.853 100.539 156.002 100.77 156.069 100.944C156.518 102.117 157.316 103.085 158.038 104.079C158.699 104.99 159.206 105.941 159.497 107.011C159.596 107.374 159.778 107.62 160.094 107.802ZM155.275 99.7191C155.164 98.7008 151.029 94.0537 150.108 93.9658C151.93 95.7437 153.121 98.0838 155.275 99.7191ZM98.2934 152.12C98.2567 152.494 98.4985 152.676 98.6877 152.887C99.9542 154.304 101.648 155.187 103.077 156.401C103.293 156.585 103.592 156.848 103.832 156.554C104.07 156.262 103.687 156.049 103.535 155.826C103.458 155.712 103.32 155.635 103.202 155.552C101.581 154.417 99.9585 153.284 98.2934 152.12ZM142.812 156.303C143.923 156.392 144.591 155.87 144.99 154.959C145.164 154.563 145.532 154.54 145.863 154.475C147.196 154.21 147.659 152.987 148.475 152.104C147.796 152.575 146.95 152.607 146.307 153.115C145.365 153.859 144.741 154.984 143.499 155.376C143.119 155.496 142.796 155.799 142.812 156.303ZM141.935 156.897C141.552 156.662 141.265 156.828 140.961 156.913C140.131 157.147 139.493 157.736 138.727 158.088C136.771 158.988 134.723 159.595 132.622 160.037C132.565 160.049 132.507 160.055 132.45 160.07C132.306 160.108 132.156 160.164 132.145 160.332C132.132 160.523 132.307 160.544 132.442 160.59C133.005 160.783 133.565 160.678 134.055 160.425C135.513 159.67 137.154 159.456 138.643 158.819C139.8 158.324 140.986 157.84 141.935 156.897ZM97.5635 92.9279C97.958 92.8544 98.2386 92.7949 98.5219 92.751C98.8139 92.7056 99.1893 92.3682 99.3763 92.7578C99.5244 93.0666 99.059 93.0841 98.8745 93.2389C98.7044 93.3815 98.5624 93.5583 98.6848 93.7614C98.8382 94.0161 99.0494 93.8563 99.2025 93.7318C100.156 92.9551 101.188 92.3184 102.34 91.8736C102.597 91.7744 102.836 91.591 102.815 91.2037C102.142 91.2808 101.621 91.6147 101.058 91.8315C100.698 91.9697 100.348 91.8924 100.136 91.546C99.981 91.2922 99.8834 90.9852 100.187 90.7619C100.581 90.472 100.968 90.1442 101.411 89.9574C102.445 89.5214 103.365 88.8725 104.221 88.2093C105.486 87.2283 106.86 86.661 108.391 86.3663C108.886 86.271 109.183 85.9866 109.318 85.495C108.727 85.2867 108.351 85.5877 107.959 85.8384C107.54 86.1062 107.077 86.2889 106.682 85.877C106.179 85.3537 105.728 85.4786 105.209 85.8165C104.722 86.134 104.21 86.4141 103.703 86.7C103.265 86.9472 102.78 87.1397 103.115 87.8166C103.203 87.9954 103.044 88.2139 102.842 88.3131C102.383 88.5382 102.093 88.9567 101.714 89.2694C101.037 89.8271 100.201 90.1215 99.4357 90.5328C99.2524 90.6313 99.0091 90.6067 98.9002 90.386C98.7733 90.1291 98.9943 90.0301 99.1721 89.9279C99.449 89.7691 99.7164 89.6034 99.7247 89.1524C98.5145 89.1924 98.185 90.4054 97.2863 90.7927C98.4622 90.7806 98.4626 90.7845 97.5635 92.9279ZM85.4729 125.385C85.0692 126.333 84.7592 127.281 85.2518 128.288C85.3978 128.586 85.5269 128.909 85.4475 129.214C85.0639 130.687 85.8413 131.987 86.0597 133.364C86.2296 134.435 86.8453 135.401 87.1126 136.471C87.2739 137.116 87.2539 137.808 87.6344 138.402C88.2264 139.328 88.6067 140.358 89.0623 141.353C89.5819 142.487 90.0868 143.697 91.018 144.515C92.0881 145.454 92.7543 146.611 93.4322 147.8C93.7091 148.285 94.0635 148.714 94.6217 148.91C94.7881 148.969 94.9853 149.044 95.1059 148.885C95.2388 148.709 95.0614 148.546 94.9586 148.429C94.5555 147.969 94.0744 147.568 93.7218 147.074C91.8362 144.434 89.6906 141.938 88.943 138.649C88.8998 138.458 88.754 138.289 88.6473 138.115C88.0057 137.069 87.3731 136.029 87.4257 134.722C87.4403 134.354 87.3193 133.97 87.2035 133.612C86.7837 132.312 86.1976 131.087 86.0352 129.676C85.9562 128.991 86.1757 128.3 85.9427 127.66C85.6739 126.922 85.4617 126.187 85.4729 125.385ZM136.276 87.3538C136.668 87.9038 137.333 87.6646 137.786 87.9618C138.662 88.5361 139.569 89.0657 140.477 89.5894C142.64 90.8366 144.849 92.003 146.706 93.722C147.99 94.9105 149.433 95.9601 150.48 97.3574C151.336 98.5001 152.359 99.4855 153.213 100.63C154.498 102.351 155.978 103.916 156.751 105.981C157.161 107.077 158.173 107.89 158.279 109.154C158.3 109.397 158.568 109.659 158.859 109.575C159.237 109.468 159.001 109.159 158.991 108.915C158.962 108.2 158.569 107.568 158.256 107.027C157.098 105.023 155.983 102.977 154.503 101.175C153.768 100.28 153.49 99.0625 152.465 98.3617C152.166 98.1571 151.973 97.7924 151.743 97.4921C151.231 96.8243 150.709 96.1047 150.1 95.589C148.419 94.1631 146.577 92.9273 144.804 91.6077C143.806 90.8646 142.63 90.3358 141.696 89.5832C140.34 88.4905 138.782 88.0561 137.25 87.4703C136.977 87.3658 136.671 87.1794 136.276 87.3538ZM108.739 156.665C108.753 156.535 108.608 156.372 108.386 156.261C107.169 155.653 106.005 154.932 104.838 154.252C102.427 152.848 100.244 151.075 98.3729 148.974C97.7143 148.234 96.8313 147.704 96.3326 146.828C95.6826 145.685 94.817 144.698 94.0763 143.621C93.8222 143.251 93.4325 143.032 93.0568 142.806C92.8374 142.674 92.6023 142.669 92.3973 142.823C92.129 143.024 92.3187 143.244 92.4119 143.444C92.6226 143.898 92.8668 144.336 93.278 144.639C94.5007 145.538 95.2064 146.888 96.1924 147.994C96.6662 148.525 97.0176 149.238 96.2512 149.905C96.0614 150.07 95.9906 150.339 96.1849 150.534C96.621 150.97 97.0098 151.487 97.7285 151.704C97.4829 151.023 97.273 150.443 97.0119 149.72C98.5745 150.196 99.4136 151.422 100.538 152.235C101.502 152.93 102.263 154.062 103.316 154.443C105.177 155.117 106.441 157.143 108.739 156.665ZM87.645 101.966C87.8692 102.127 87.9712 102.062 88.0701 102.005C88.3287 101.857 88.6101 101.684 88.8747 101.927C89.1566 102.186 89.0498 102.525 88.9244 102.827C88.8015 103.123 88.6576 103.411 88.5019 103.692C87.7356 105.069 86.6799 106.315 86.5971 108.001C86.5865 108.218 86.4731 108.475 86.3228 108.634C85.3114 109.706 85.1379 111.141 84.7475 112.445C83.757 115.756 83.094 119.143 83.0056 122.616C82.9926 123.12 82.9664 124.003 83.3922 124.002C83.9455 124.001 83.9169 123.188 83.9704 122.643C84.1221 121.102 84.0669 119.535 84.5262 118.028C84.596 117.799 84.5799 117.519 84.9058 117.566C85.163 117.602 85.1272 117.835 85.1366 118.052C85.1764 118.958 85.4379 119.85 85.1682 120.786C85.5637 120.745 85.6542 120.534 85.6617 120.344C85.714 119.04 85.876 117.762 86.3 116.515C86.4182 116.167 86.6833 115.579 86.2665 115.401C85.8897 115.24 85.8169 115.888 85.5809 116.153C85.4651 116.284 85.375 116.464 85.1829 116.464C85.0154 116.464 84.9443 116.31 84.92 116.16C84.7819 115.304 84.5572 114.48 84.9689 113.595C85.6539 112.121 86.3228 110.626 86.8129 109.08C87.3386 107.422 87.6802 105.713 89.1029 104.515C89.2739 104.371 89.4728 104.135 89.4757 103.939C89.4905 103.007 90.0428 102.314 90.4212 101.536C90.6815 101.002 91.0375 100.548 91.3765 100.073C91.5097 99.8873 91.6898 99.6554 91.4922 99.4433C91.2547 99.1884 91.0084 99.4164 90.7873 99.5377C90.6876 99.5921 90.6128 99.6909 90.5244 99.7674C90.4009 99.8742 90.3015 100.104 90.1058 99.9797C89.8756 99.8339 90.0274 99.6109 90.0928 99.4296C90.3812 98.628 90.7036 97.8534 91.4261 97.3151C91.8494 96.9998 92.0219 96.5157 92.1005 95.9827C90.4565 97.8666 88.683 99.6486 87.645 101.966ZM126.296 85.1439C123.379 84.1765 113.676 85.2734 112.448 86.6838C112.774 86.8712 113.127 86.8214 113.47 86.8179C113.855 86.8142 114.322 86.7729 114.422 87.2316C114.539 87.7732 114.017 87.8296 113.653 88.0035C112.541 88.5341 111.253 88.5784 110.194 89.2097C109.066 89.8818 107.855 90.3814 106.703 91.003C104.2 92.3526 101.8 93.8643 99.7299 95.7792C97.922 97.4512 96.0673 99.0913 94.4717 101.005C93.2903 102.423 92.2655 103.936 91.424 105.537C90.58 107.144 89.7406 108.786 89.2705 110.572C88.9742 111.697 88.5229 112.77 88.0785 113.844C87.9968 114.042 87.9034 114.337 88.2131 114.447C88.4579 114.533 88.6862 114.429 88.7528 114.15C89.1243 112.591 89.7015 111.11 90.3068 109.628C90.9475 108.059 91.5126 106.478 92.7758 105.271C93.0747 104.986 93.3949 104.633 93.3811 104.231C93.3329 102.816 94.4752 101.953 95.2788 101.383C97.0451 100.132 98.3266 98.4111 100.013 97.1193C100.397 96.8252 100.712 96.0342 101.249 96.5234C101.712 96.945 101.065 97.4412 100.829 97.8821C100.101 99.2445 98.639 99.921 97.8205 101.25C96.5154 103.37 94.4117 104.933 93.4465 107.316C93.4359 107.341 93.412 107.363 93.3933 107.385C92.3979 108.572 92.0161 110.068 91.5107 111.463C90.9327 113.06 90.4875 114.721 90.0267 116.366C89.4916 118.277 88.882 120.14 88.8514 122.144C88.8243 123.909 88.5442 125.683 89.0817 127.424C89.1725 127.718 89.107 128.149 89.5427 128.16C89.9673 128.172 89.9683 127.735 90.0659 127.451C90.2244 126.989 90.1355 126.527 89.9769 126.078C89.8995 125.859 89.7771 125.646 89.7486 125.422C89.6941 124.992 89.7755 124.57 90.2541 124.426C90.7342 124.282 90.9969 124.566 91.2005 124.984C91.7038 126.019 91.8675 127.155 91.7017 128.23C91.5645 129.119 91.6844 129.891 91.9023 130.71C92.2389 131.975 92.6038 133.23 93.0461 134.462C93.1787 134.832 93.2061 135.246 92.8104 135.478C92.4891 135.667 92.2117 135.395 92.0749 135.169C91.4656 134.159 90.6332 133.239 90.7551 131.919C90.8087 131.336 90.7076 130.753 90.5231 130.191C90.4113 129.85 90.3034 129.451 89.842 129.556C89.3686 129.663 89.294 130.101 89.4237 130.473C90.1315 132.505 90.3686 134.691 91.4627 136.599C91.7607 137.119 92.1568 137.559 92.3505 138.18C92.7112 139.334 93.2094 140.441 93.9805 141.432C94.5864 142.211 95.3413 142.912 95.8219 143.729C96.9735 145.685 98.8511 147.017 100.028 148.926C100.13 149.092 100.32 149.211 100.485 149.331C101.781 150.269 103.114 151.162 104.369 152.155C105.059 152.7 105.872 153.051 106.531 153.617C107.946 154.835 109.699 155.395 111.421 155.78C112.245 155.964 113.024 156.14 113.735 156.552C114.282 156.868 114.868 156.993 115.457 157.161C116.934 157.581 118.487 157.175 119.962 157.622C120.429 157.764 120.961 157.888 121.426 157.808C123.572 157.44 125.768 157.81 127.914 157.217C129.137 156.878 130.518 157.302 131.749 156.695C132.006 156.568 132.304 156.514 132.589 156.454C132.812 156.407 132.989 156.514 133.095 156.715C133.205 156.925 133.159 157.13 132.988 157.27C132.787 157.435 132.572 157.636 132.334 157.69C131.129 157.959 129.886 157.963 128.674 158.257C127.58 158.523 126.405 158.469 125.316 158.751C124.317 159.009 123.268 159.159 122.309 159.141C120.4 159.105 118.437 159.164 116.579 158.564C115.677 158.272 114.741 158.247 113.839 158.047C112.797 157.815 111.796 157.386 110.792 157.005C110.27 156.808 109.814 156.811 109.352 157.133C109.544 157.484 109.875 157.467 110.121 157.603C111.214 158.206 112.452 158.318 113.627 158.633C114.388 158.837 115.09 159.194 115.879 159.331C118.611 159.806 121.364 159.911 124.127 159.885C124.444 159.882 124.793 160.053 125.072 159.965C126.654 159.468 128.316 159.403 129.925 159.024C131.327 158.693 132.797 158.667 134.182 158.154C136.836 157.17 139.455 156.087 141.935 154.737C143.687 153.782 145.844 153.319 146.855 151.275C146.911 151.163 147.127 151.137 147.206 151.027C147.674 150.378 148.649 150.415 149.047 149.789C149.803 148.599 150.441 147.338 151.588 146.448C151.697 146.364 151.767 146.215 151.826 146.084C152.331 144.946 153.504 144.309 154.005 143.157C154.161 142.798 154.551 142.682 154.892 142.961C155.3 143.293 155.03 143.583 154.748 143.821C154.19 144.292 153.865 144.895 153.67 145.587C153.616 145.779 153.549 146.028 153.404 146.124C152.252 146.895 151.952 148.1 151.677 149.426C152.286 148.921 152.575 148.162 153.342 147.957C153.418 147.937 153.49 147.776 153.506 147.672C153.71 146.33 154.559 145.284 155.362 144.33C156.003 143.57 156.559 142.813 156.981 141.93C157.633 140.563 158.601 139.372 159.122 137.926C159.542 136.763 160.55 135.912 160.65 134.52C160.744 133.21 161.269 131.919 161.642 130.654C161.938 129.651 161.885 128.602 162.294 127.624C162.575 126.951 162.605 126.137 161.844 125.543C161.6 125.797 161.611 126.101 161.541 126.372C161.291 127.331 161.295 128.326 161.064 129.309C160.74 130.68 160.213 132.034 160.101 133.445C159.996 134.767 159.194 135.797 158.86 137.002C158.539 138.159 157.561 139.004 157.428 140.214C157.36 140.828 156.954 141.205 156.605 141.621C156.299 141.988 155.836 142.13 155.42 141.883C154.949 141.603 155.167 141.143 155.357 140.792C155.634 140.283 156.086 139.848 156.276 139.315C156.777 137.914 157.603 136.671 158.145 135.297C158.359 134.752 158.983 134.3 158.876 133.745C158.649 132.562 159.4 131.657 159.569 130.594C159.793 129.178 160.552 127.842 159.993 126.328C159.865 125.982 159.761 125.514 159.951 125.125C160.303 124.405 160.214 123.648 160.219 122.892C160.226 121.789 160.243 120.685 160.289 119.583C160.3 119.309 160.336 119.038 160.13 118.846C159.334 118.101 159.552 116.992 159.134 116.104C158.924 115.659 159.374 115.306 159.705 115.017C159.848 114.892 160.092 114.858 160.164 115.039C160.429 115.704 161.169 116.219 160.983 117.013C160.432 119.363 161.967 121.501 161.625 123.822C161.602 123.977 161.7 124.21 161.902 124.21C162.193 124.209 162.154 123.933 162.176 123.744C162.347 122.311 162.64 120.926 162.284 119.423C162.099 118.642 162.204 117.785 161.696 117.053C161.311 116.497 161.473 115.705 160.996 115.205C160.667 114.861 160.103 114.687 160.927 114.247C161.215 114.093 161.075 113.655 160.957 113.355C160.786 112.922 160.604 112.491 160.395 112.074C160.251 111.787 160.166 111.265 159.711 111.49C159.296 111.694 159.521 112.152 159.72 112.408C160.117 112.916 160.122 113.5 160.14 114.073C160.156 114.563 159.755 114.763 159.343 114.874C159.082 114.944 158.95 114.75 158.933 114.534C158.825 113.196 158.234 112.016 157.726 110.812C157.141 109.423 156.488 108.069 155.735 106.758C155.383 106.145 154.638 105.799 154.513 105.109C154.309 103.992 153.7 103.052 153.021 102.289C151.961 101.096 150.832 99.9611 149.833 98.7082C149.717 98.5629 149.573 98.3674 149.338 98.5129C149.094 99.3102 149.603 99.8845 150.065 100.677C148.8 100.26 147.855 99.7205 147.158 98.8495C146.92 98.5516 146.587 98.0678 146.992 97.6581C147.384 97.2618 147.737 97.6816 148.088 97.8455C148.168 97.8825 148.241 97.9378 148.323 97.9623C148.537 98.0258 148.79 98.2542 148.966 98.0328C149.171 97.7761 148.936 97.5459 148.748 97.3582C148.604 97.2138 148.456 97.0679 148.291 96.9489C146.334 95.537 144.387 94.1095 142.402 92.7359C141.9 92.3881 141.399 92.0371 140.896 91.6907C140.247 91.2439 139.735 90.6226 139.013 90.2739C137.354 89.4723 135.65 88.8009 133.848 88.3868C133.31 88.2632 132.769 88.0931 132.361 87.681C132.027 87.3445 131.858 86.9996 132.416 86.7114C132.599 86.6164 132.812 86.5491 132.781 86.2869C132.746 85.9981 132.509 85.9309 132.276 85.8788C131.394 85.6811 130.513 85.4807 129.628 85.2985C129.38 85.2475 129.055 85.1029 128.884 85.3363C128.658 85.6433 129.06 85.7611 129.198 85.9537C129.58 86.4913 129.452 87.0717 128.862 87.0681C127.616 87.0607 126.356 86.9852 125.173 86.5015C124.968 86.4178 124.841 86.2479 124.83 86.0294C124.818 85.7446 125.046 85.6436 125.258 85.5365C125.566 85.3817 125.966 85.4973 126.296 85.1439ZM87.2581 123.567C86.5745 124.361 86.591 125.247 86.8905 126.185C86.9681 126.428 86.9998 126.704 86.9794 126.958C86.8897 128.087 87.604 129.123 87.3529 130.271C87.3323 130.365 87.4221 130.49 87.4773 130.592C87.6013 130.821 87.7959 130.94 88.0563 130.866C88.3519 130.781 88.3588 130.535 88.3067 130.296C88.0422 129.084 88.2143 127.789 87.6061 126.64C87.4947 126.43 87.5277 126.195 87.5406 125.957C87.5842 125.147 87.5614 124.339 87.2551 123.567C87.3518 122.802 87.4453 122.037 87.5461 121.272C87.7695 119.579 87.7586 117.861 88.094 116.18C88.1476 115.911 88.3776 115.525 88.0184 115.412C87.6358 115.292 87.5352 115.729 87.4168 116.017C87.3736 116.122 87.3706 116.245 87.3578 116.361C87.1503 118.235 86.9471 120.109 86.7364 121.982C86.6675 122.594 86.7528 123.148 87.2581 123.567ZM97.4425 158.809C95.7056 157.838 93.8838 155.666 91.742 153.871C91.4439 153.621 91.2795 153.273 91.0404 152.985C90.0465 151.789 89.2152 150.473 88.0294 149.412C87.0552 148.541 86.4984 147.294 85.9455 146.098C85.7986 145.78 85.7194 145.399 85.4918 145.157C84.2601 143.847 83.6707 142.193 83.0158 140.585C81.9572 137.986 80.6667 135.451 80.5111 132.568C80.5064 132.48 80.5102 132.382 80.4719 132.309C79.6147 130.684 79.9224 128.817 79.3996 127.128C78.9412 125.647 79.3151 124.168 79.3483 122.693C79.3813 121.239 79.4843 119.777 79.6996 118.34C79.9734 116.51 80.2648 114.678 80.8875 112.914C81.3109 111.715 81.6553 110.482 81.9481 109.244C82.227 108.065 82.7837 107.001 83.24 105.902C83.9402 104.216 84.6845 102.532 85.6025 100.959C86.1013 100.104 86.9271 99.4301 87.4125 98.5222C88.6588 96.1903 90.7722 94.6191 92.4951 92.7025C94.4081 90.574 96.7447 88.9881 98.9689 87.2535C99.9989 86.4504 101.102 85.7285 102.173 84.9962C103.495 84.0928 105.053 83.2518 106.6 83.0348C108.499 82.7686 110.112 81.7508 112.008 81.5332C113.884 81.3177 115.701 80.6158 117.576 80.3744C119.213 80.1638 120.89 80.2404 122.55 80.1435C125.024 79.9991 127.509 80.0557 129.97 80.4276C131.117 80.6011 132.273 80.7091 133.339 81.2945C133.793 81.5438 134.425 81.4493 134.965 81.5679C136.56 81.919 138.066 82.5683 139.648 82.9878C142.985 83.8729 145.587 86.1088 148.391 87.9717C150.001 89.0418 151.561 90.1654 152.885 91.5812C153.664 92.4149 154.587 93.0775 155.428 93.8349C155.895 94.2557 156.192 94.8583 156.621 95.3293C158.653 97.5625 160.367 100.036 161.876 102.63C163.074 104.69 164.095 106.853 164.788 109.168C165.171 110.446 165.45 111.743 165.793 113.007C166.275 114.781 166.333 116.622 166.908 118.359C166.926 118.414 166.955 118.474 166.949 118.528C166.699 120.604 167.273 122.633 167.285 124.711C167.303 127.925 166.554 130.974 165.818 134.022C165.421 135.669 164.736 137.291 164.3 138.931C163.816 140.752 162.758 142.251 162.111 143.959C161.714 145.005 161.132 145.942 160.255 146.673C160.078 146.821 159.893 146.998 159.801 147.202C158.896 149.199 157.283 150.675 155.991 152.386C155.007 153.691 153.578 154.536 152.453 155.714C150.778 157.469 148.598 158.619 146.722 160.141C145.636 161.022 144.307 161.431 143.121 162.111C141.566 163.003 139.761 163.355 138.25 164.245C136.73 165.14 134.952 164.715 133.507 165.533C132.213 166.265 130.792 166.165 129.424 166.358C127.174 166.675 124.907 166.951 122.639 167.048C121.106 167.113 119.557 166.863 118.019 166.712C116.773 166.589 115.527 166.442 114.292 166.237C112.799 165.991 111.323 165.658 109.905 165.11C108.193 164.449 106.458 163.853 104.759 163.15C102.367 162.16 100.224 160.784 97.4425 158.809Z" fill="black"/>
<path fill-rule="evenodd" clip-rule="evenodd" d="M143.57 141.161C142.994 142.366 141.749 143.201 140.739 144.24C140.023 144.976 138.986 145.344 138.124 145.939C136.863 146.809 135.568 147.673 134.102 148.206C133.863 148.293 133.4 148.351 133.545 148.729C133.689 149.104 134.112 149.249 134.512 149.064C135.226 148.733 135.925 148.367 136.623 148.002C138.018 147.273 139.364 146.468 140.562 145.433C140.794 145.233 141.093 145.121 141.346 145.392C141.571 145.633 141.435 145.926 141.262 146.107C140.528 146.874 139.939 147.732 138.925 148.284C137.352 149.14 135.671 149.703 134.067 150.457C132.831 151.038 131.523 151.29 130.19 151.466C130.104 151.478 130.009 151.452 129.929 151.478C129.532 151.609 129.062 151.787 129.159 152.27C129.265 152.795 129.775 152.604 130.115 152.519C131.686 152.128 133.181 151.475 134.725 151.029C136.388 150.549 137.887 149.752 139.292 148.864C140.898 147.851 142.527 146.825 143.93 145.478C144.599 144.836 145.455 144.401 145.925 143.53C146.104 143.2 146.374 142.926 146.424 142.526C146.463 142.221 146.639 141.944 146.893 141.81C148.039 141.204 148.612 140.181 149.206 139.077C149.932 137.727 150.975 136.527 151.56 135.112C151.967 134.13 152.188 133.063 152.593 132.054C152.795 131.552 152.877 130.958 153.073 130.408C153.757 128.491 153.982 126.517 153.671 124.494C153.614 124.124 153.625 123.736 153.658 123.362C153.744 122.386 153.67 121.412 153.354 120.507C152.693 118.62 153.009 116.566 152.314 114.687C152.176 114.312 152.282 113.824 152.824 113.738C153.365 113.653 153.569 114.071 153.607 114.484C153.76 116.119 154.655 117.567 154.738 119.214C154.831 121.061 155.054 122.908 154.848 124.755C154.792 125.262 154.906 125.739 154.862 126.229C154.621 128.929 154.212 131.599 152.943 134.036C152.624 134.648 152.599 135.31 152.279 135.913C151.277 137.803 150.269 139.688 149.04 141.444C148.723 141.898 148.364 142.328 147.9 142.652C147.188 143.15 147.16 144.129 146.419 144.646C144.311 146.117 142.831 148.34 140.565 149.628C139.804 150.061 139.026 150.466 138.233 150.837C136.243 151.766 134.264 152.774 132.087 153.155C130.331 153.462 128.678 154.333 126.818 154.113C126.351 154.058 125.834 154.239 125.366 154.393C123.8 154.909 122.216 154.872 120.617 154.652C119.066 154.438 117.481 154.365 115.971 153.991C114.47 153.62 112.94 153.326 111.503 152.657C109.94 151.928 108.226 151.484 106.849 150.409C105.108 149.051 103.071 147.992 102.025 145.881C101.727 145.28 101.1 145.357 100.633 145.459C100.251 145.542 100.449 145.99 100.579 146.273C100.746 146.635 101.306 147.035 100.815 147.371C100.404 147.653 100.029 147.124 99.7719 146.793C99.1417 145.983 98.2303 145.477 97.5834 144.677C97.258 144.275 97.058 143.849 96.9007 143.382C96.8021 143.089 96.7877 142.782 97.1061 142.612C97.4188 142.445 97.643 142.624 97.8592 142.859C98.3299 143.37 98.69 143.989 99.2956 144.367C99.4867 144.486 99.732 144.682 99.9332 144.516C100.183 144.308 99.9238 144.041 99.8024 143.911C98.878 142.918 98.6536 141.533 97.7692 140.483C96.6837 139.195 96.1683 137.525 95.5221 135.977C95.0531 134.853 94.5079 133.754 94.1291 132.593C93.712 131.314 94.2454 130.059 94.3637 128.798C94.4123 128.28 95.0489 128.242 95.3309 128.724C95.6235 129.225 95.8021 129.761 95.8305 130.374C95.9592 133.163 96.9726 135.702 98.1315 138.185C98.3141 138.576 98.5524 138.935 98.6714 139.364C99.0159 140.606 99.8051 141.578 100.636 142.52C100.751 142.65 100.901 142.769 100.965 142.923C102.177 145.87 104.809 147.283 107.276 148.921C108.136 149.493 108.888 150.261 109.891 150.573C112.032 151.236 114.05 152.223 116.264 152.719C118.041 153.118 119.802 153.262 121.602 153.271C122.161 153.274 122.704 153.206 123.254 153.135C124.056 153.033 124.835 152.918 125.657 153.241C126.22 153.462 126.937 153.471 127.319 152.724C127.507 152.357 127.429 152.151 127.004 152.18C126.51 152.214 125.947 152.153 125.542 152.371C124.841 152.749 124.312 152.316 123.714 152.209C123.507 152.173 123.329 152.039 123.32 151.8C123.31 151.495 123.554 151.453 123.778 151.364C124.834 150.946 125.963 150.882 127.049 150.898C129.116 150.928 130.943 149.915 132.94 149.7C133.18 149.674 133.327 149.539 133.245 149.282C133.154 149.003 132.953 148.862 132.647 148.878C131.506 148.937 130.412 149.283 129.291 149.44C127.657 149.669 126.039 150.462 124.428 150.222C122.279 149.902 120.062 150.083 117.967 149.361C117.231 149.107 116.436 149.021 115.664 148.875C113.826 148.527 112.403 147.389 110.935 146.362C110.222 145.864 109.475 145.395 108.813 144.844C106.507 142.921 104.674 140.63 103.766 137.7C103.617 137.219 103.638 136.733 104.139 136.478C104.61 136.239 105.026 136.491 105.255 136.892C105.916 138.049 106.667 139.157 107.148 140.414C107.442 141.183 107.853 141.863 108.533 142.379C109.249 142.921 109.941 143.491 110.552 144.169C111.357 145.063 112.387 145.639 113.535 146.042C115.174 146.618 116.776 147.297 118.408 147.894C120.312 148.59 122.336 148.203 124.287 148.457C126.617 148.759 128.785 148.019 130.983 147.482C133.667 146.825 136.149 145.554 138.225 143.849C140.259 142.178 142.242 140.403 143.89 138.202C145.738 135.734 146.706 133.083 147.396 130.21C147.497 129.79 147.729 129.403 147.9 129C148.061 128.619 148.297 128.307 148.756 128.454C149.179 128.589 149.337 128.976 149.24 129.372C148.942 130.587 148.819 131.856 148.206 132.979C147.99 133.373 147.815 133.781 147.796 134.217C147.749 135.324 147.269 136.273 146.624 137.1C145.617 138.392 144.822 139.84 143.57 141.161Z" fill="black"/>
<path fill-rule="evenodd" clip-rule="evenodd" d="M155.965 138.406C155.734 138.666 155.433 138.925 155.083 138.65C154.768 138.402 154.921 138.069 155.111 137.788C156.282 136.054 156.968 134.072 157.473 132.104C157.926 130.336 158.228 128.465 158.153 126.587C158.142 126.301 158.213 126.009 158.261 125.722C158.401 124.88 158.469 124.05 158.106 123.234C157.582 122.056 158.01 120.806 157.862 119.592C157.719 118.415 157.685 117.284 157.165 116.13C156.731 115.167 156.618 114.016 156.279 112.959C155.933 111.877 155.489 110.857 155.01 109.834C154.672 109.113 154.623 108.274 154.162 107.574C153.996 107.322 154.123 106.978 154.474 106.877C154.842 106.771 155.045 106.985 155.24 107.293C156.058 108.585 156.364 110.084 156.977 111.451C157.614 112.873 157.831 114.403 158.335 115.858C158.813 117.238 159.033 118.742 159.159 120.229C159.285 121.712 159.316 123.206 159.442 124.678C159.547 125.904 159.364 127.042 159.244 128.222C158.975 130.877 158.578 133.463 157.138 135.814C156.658 136.598 156.68 137.674 155.965 138.406Z" fill="black"/>
<path fill-rule="evenodd" clip-rule="evenodd" d="M151.404 104.088C151.701 104.524 152.182 105.008 152.401 105.592C153.054 107.33 154.273 108.755 154.962 110.464C155.66 112.194 156.103 113.998 156.557 115.808C157.372 119.062 157.319 122.384 157.421 125.695C157.453 126.715 157.191 127.728 156.814 128.693C156.76 128.831 156.726 128.989 156.544 128.995C156.319 129.002 156.258 128.827 156.218 128.652C156.039 127.871 156.004 127.081 156.18 126.296C156.312 125.71 156.303 125.136 156.21 124.552C156.035 123.452 155.902 122.355 156.037 121.229C156.164 120.167 155.901 119.128 155.691 118.098C155.527 117.295 155.388 116.488 155.232 115.686C154.901 113.981 154.068 112.46 153.293 110.932C152.978 110.309 152.564 109.756 152.443 109.033C152.28 108.063 151.436 107.492 150.955 106.703C150.586 106.098 150.22 105.505 150.112 104.795C150.056 104.427 150.159 104.09 150.521 103.895C150.813 103.738 151.086 103.771 151.404 104.088Z" fill="black"/>
<path fill-rule="evenodd" clip-rule="evenodd" d="M145.089 140.515C146.775 138.698 148.052 136.703 148.905 134.472C149.795 132.147 150.548 129.728 150.567 127.27C150.579 125.621 151.053 123.991 150.791 122.348C150.769 122.208 150.782 122.057 150.801 121.913C150.869 121.403 150.994 120.807 151.588 120.813C152.184 120.818 152.079 121.456 152.183 121.895C152.667 123.948 152.118 126.003 151.989 128.041C151.856 130.148 151.069 132.169 150.287 134.167C149.544 136.066 148.367 137.707 147.353 139.439C146.517 140.867 145.385 142.113 144.268 143.346C144.003 143.64 143.681 143.948 143.302 143.642C142.871 143.295 143.162 142.907 143.422 142.578C143.987 141.865 144.565 141.162 145.089 140.515Z" fill="black"/>
<path fill-rule="evenodd" clip-rule="evenodd" d="M108.587 148.909C106.866 147.659 105.163 146.388 103.846 144.703C102.684 143.218 101.414 141.803 100.534 140.12C100.344 139.757 100.077 139.332 100.528 139.053C101.035 138.738 101.375 139.205 101.554 139.566C102.2 140.877 103.313 141.876 103.974 143.182C104.554 144.327 105.612 145.083 106.654 145.763C107.488 146.309 108.275 146.895 109.036 147.53C110.274 148.565 111.664 149.22 113.217 149.712C114.961 150.264 116.77 150.48 118.486 151.091C119.259 151.367 120.026 151.112 120.794 151.241C121.346 151.333 122.08 151.383 122.057 152.022C122.035 152.65 121.198 152.639 120.789 152.51C119.019 151.955 117.176 152.13 115.375 151.553C113.214 150.86 111.163 149.935 109.063 149.112C108.903 149.049 108.746 148.977 108.587 148.909Z" fill="black"/>
<path fill-rule="evenodd" clip-rule="evenodd" d="M144.846 148.945C144.332 149.47 143.49 149.699 143.546 150.626C143.548 150.654 143.46 150.708 143.409 150.714C141.284 150.975 139.83 152.567 138.009 153.431C137.448 153.697 136.862 153.936 136.295 154.085C135.036 154.418 133.887 154.922 132.816 155.636C132.768 155.668 132.707 155.697 132.652 155.696C129.724 155.684 126.961 156.835 124.039 156.864C123.48 156.869 122.922 156.903 122.363 156.921C121.947 156.934 121.528 156.932 121.17 156.678C120.678 156.328 120.715 155.959 121.258 155.713C121.365 155.665 121.48 155.593 121.59 155.597C122.965 155.65 124.275 155.09 125.668 155.227C127.359 155.394 128.992 154.941 130.641 154.663C132.017 154.431 133.244 153.753 134.607 153.425C135.805 153.136 137.044 152.635 138.181 152.009C139.176 151.462 140.26 151.109 141.23 150.468C141.967 149.981 142.691 149.498 143.331 148.897C143.617 148.628 143.942 148.441 144.281 148.265C144.508 148.147 144.767 147.911 144.992 148.182C145.227 148.464 144.991 148.729 144.846 148.945Z" fill="black"/>
<path fill-rule="evenodd" clip-rule="evenodd" d="M154.474 140.052C153.693 142.218 152.608 144.085 151.233 145.822C150.289 147.015 149.186 147.994 148.013 148.928C147.649 149.217 147.331 149.558 147.115 149.98C147.088 150.031 147.07 150.113 147.028 150.127C146.094 150.431 145.589 151.345 144.718 151.715C144.095 151.979 143.548 152.267 143.104 152.814C142.429 153.647 141.326 153.892 140.414 154.369C139.217 154.995 138.013 155.636 136.756 156.159C136.301 156.348 135.817 156.473 135.366 156.67C134.909 156.869 134.434 156.935 134.267 156.383C134.107 155.853 134.537 155.387 135 155.393C135.967 155.405 136.76 155.04 137.563 154.632C138.953 153.925 140.415 153.348 141.721 152.489C142.11 152.233 142.463 151.938 142.964 151.897C143.268 151.872 143.635 151.722 143.658 151.448C143.723 150.668 144.424 150.608 144.853 150.227C145.986 149.222 147.335 148.454 148.182 147.126C148.692 146.325 149.429 145.669 149.932 144.864C150.669 143.683 151.911 142.897 152.497 141.646C152.872 140.843 153.337 140.296 154.168 140.042C154.218 140.027 154.278 140.044 154.474 140.052Z" fill="black"/>
<path fill-rule="evenodd" clip-rule="evenodd" d="M146.601 146.281C147.883 144.699 149.11 143.066 150.468 141.552C151.253 140.677 151.324 139.571 151.774 138.595C152.003 138.099 152.165 137.61 152.652 137.256C153.039 136.974 153.233 136.476 153.406 136.018C153.838 134.867 154.228 133.701 154.688 132.561C154.867 132.116 155.015 131.356 155.654 131.579C156.241 131.783 156.029 132.515 155.851 132.96C154.914 135.303 154.063 137.692 152.711 139.845C151.643 141.546 150.559 143.239 149.434 144.903C148.853 145.764 147.911 146.281 147.183 147.011C146.925 147.269 146.458 147.556 146.107 147.167C145.707 146.723 146.271 146.479 146.601 146.281Z" fill="black"/>
<path fill-rule="evenodd" clip-rule="evenodd" d="M112.949 155.08C112.55 154.708 112.147 154.506 112.334 154.1C112.555 153.619 113.003 153.832 113.328 153.968C115.214 154.762 117.208 155.094 119.207 155.429C119.568 155.49 120.125 155.531 120.019 156.12C119.905 156.753 119.443 156.575 118.99 156.485C117.737 156.237 116.466 156.074 115.217 155.81C114.379 155.633 113.536 155.422 112.949 155.08Z" fill="black"/>
</svg>
