<svg width="299" height="63" viewBox="0 0 299 63" fill="none" xmlns="http://www.w3.org/2000/svg">
<path fill-rule="evenodd" clip-rule="evenodd" d="M5.81552 48.3016L1 49.1246L4.60468 52.3197L3.92744 57L8.18324 54.6733L12.5801 56.7425L11.6051 52.1102L15 48.7081L10.1418 48.1729L7.84375 44L5.81552 48.3016Z" fill="#114837"/>
<path fill-rule="evenodd" clip-rule="evenodd" d="M27.9266 33L28.6047 28.3189L25 25.1254L29.8146 24.3016L31.8429 20L34.141 24.1729L39 24.7081L35.6042 28.1102L36.5792 32.7425L32.1832 30.6725L27.9266 33Z" fill="#F6D500"/>
<path fill-rule="evenodd" clip-rule="evenodd" d="M59 13.9615L65.2638 10.3187L65.8681 3L71.2058 7.94036L78.2288 6.26411L75.2634 12.9596L79 19.2425L71.8297 18.4399L67.1159 24L65.6494 16.8087L59 13.9615Z" fill="#80A08D"/>
<path fill-rule="evenodd" clip-rule="evenodd" d="M233 17.9615L239.264 14.3187L239.868 7L245.206 11.9404L252.229 10.2641L249.263 16.9596L253 23.2425L245.83 22.4399L241.116 28L239.649 20.8087L233 17.9615Z" fill="#80A08D"/>
<path fill-rule="evenodd" clip-rule="evenodd" d="M133.998 7.44303L130 9.15195L133.717 11.4608L134.022 16L137.253 12.9836L141.439 14.0802L139.717 9.90716L142 6.04642L142 6.04554L137.706 6.48314L134.93 3L133.998 7.44303Z" fill="#F7B8AE"/>
<path fill-rule="evenodd" clip-rule="evenodd" d="M298.185 40.8024L291.858 44.3354L291.126 51.6424L285.876 46.6096L278.824 48.1631L281.906 41.5204L278.28 35.1732L285.435 36.1008L290.245 30.6238L291.586 37.8396L298.185 40.8024Z" fill="#C9CFDA"/>
</svg>
