<svg width="320" height="54" viewBox="0 0 320 54" fill="none" xmlns="http://www.w3.org/2000/svg">
<path fill-rule="evenodd" clip-rule="evenodd" d="M11.8155 45.3016L7 46.1246L10.6047 49.3197L9.92744 54L14.1832 51.6733L18.5801 53.7425L17.6051 49.1102L21 45.7081L16.1418 45.1729L13.8437 41L11.8155 45.3016Z" fill="#114837"/>
<path fill-rule="evenodd" clip-rule="evenodd" d="M33.9266 30L34.6047 25.3189L31 22.1254L35.8146 21.3016L37.8429 17L40.141 21.1729L45 21.7081L41.6042 25.1102L42.5792 29.7425L38.1832 27.6725L33.9266 30Z" fill="#F6D500"/>
<path fill-rule="evenodd" clip-rule="evenodd" d="M65 10.9615L71.2638 7.31867L71.8681 0L77.2058 4.94036L84.2288 3.26411L81.2634 9.95959L85 16.2425L77.8297 15.4399L73.1159 21L71.6494 13.8087L65 10.9615Z" fill="#80A08D"/>
<path fill-rule="evenodd" clip-rule="evenodd" d="M239 14.9615L245.264 11.3187L245.868 4L251.206 8.94036L258.229 7.26411L255.263 13.9596L259 20.2425L251.83 19.4399L247.116 25L245.649 17.8087L239 14.9615Z" fill="#80A08D"/>
<path fill-rule="evenodd" clip-rule="evenodd" d="M139.998 4.44303L136 6.15195L139.717 8.46081L140.022 13L143.253 9.98358L147.439 11.0802L145.717 6.90716L148 3.04642V3.04554L143.706 3.48314L140.93 0L139.998 4.44303Z" fill="#F7B8AE"/>
</svg>
