<svg width="430" height="452" viewBox="0 0 430 452" fill="none" xmlns="http://www.w3.org/2000/svg">
<mask id="mask0" mask-type="alpha" maskUnits="userSpaceOnUse" x="-22" y="0" width="452" height="452">
<path fill-rule="evenodd" clip-rule="evenodd" d="M429.524 202.227L227.647 451.525L-21.5886 249.698L180.288 0.400675L429.524 202.227Z" fill="white"/>
</mask>
<g mask="url(#mask0)">
<path fill-rule="evenodd" clip-rule="evenodd" d="M355.758 254.749C354.156 255.969 352.811 261.166 353.598 263.496C354.907 260.485 355.088 257.561 355.758 254.749M90.9253 328.833C89.196 327.407 87.9357 325.576 86.6206 323.793C86.3545 323.433 86.0414 323.032 85.6143 323.441C85.2614 323.779 85.6442 324.111 85.8979 324.379C86.4784 324.996 87.196 325.459 87.6885 326.182C89.0533 328.188 90.2991 330.295 92.255 331.829C92.5694 332.075 92.8105 332.644 93.2686 332.226C93.613 331.912 93.4573 331.33 93.1985 331.043C92.4935 330.259 91.6901 329.564 90.9253 328.833M121.943 355.511C122.214 355.846 122.499 356.165 122.975 356.175C123.246 356.182 123.556 356.148 123.593 355.831C123.611 355.678 123.437 355.436 123.284 355.34C120.67 353.707 118.045 352.091 115.422 350.472C115.15 350.305 114.792 350.074 114.564 350.371C114.248 350.78 114.67 351.049 114.954 351.255C116.834 352.619 118.589 354.2 120.9 354.847C121.326 354.967 121.699 355.125 121.943 355.511M124.897 356.588C124.948 357.443 125.188 357.714 125.498 357.938C127.745 359.555 130.499 360.27 132.688 361.99C132.768 362.052 132.882 362.087 132.985 362.102C133.357 362.156 133.811 362.681 134.078 362.104C134.287 361.651 133.802 361.397 133.473 361.114C131.01 358.994 127.707 358.576 124.897 356.588M328.447 130.855C326.183 127.19 322.875 124.536 320.988 120.818C320.729 120.308 320.173 120.056 319.637 120.469C319.145 120.846 319.148 121.426 319.464 121.906C319.719 122.294 320.091 122.622 320.46 122.917C322.962 124.914 325.303 127.063 327.106 129.742C327.397 130.174 327.677 130.645 328.447 130.855M307.335 109.825C307.838 109.999 308.243 110.425 308.726 110.106C309.068 109.88 308.858 109.513 308.688 109.255C307.34 107.202 305.377 105.83 303.357 104.539C303.018 104.322 302.478 104.232 302.224 104.716C301.96 105.219 302.2 105.685 302.665 105.932C304.509 106.914 306.309 107.938 307.335 109.825M344.614 156.102C342.834 151.748 340.557 147.679 337.517 144.067C339.545 148.274 341.559 152.488 344.614 156.102M356.332 250.905C357.379 249.688 357.781 248.019 357.836 246.69C357.968 243.494 358.685 240.368 358.692 237.178C358.693 236.757 358.669 236.331 358.59 235.92C358.555 235.744 358.368 235.495 358.213 235.464C357.878 235.398 357.784 235.714 357.736 235.972C357.523 237.122 357.033 238.33 357.418 239.437C358.119 241.451 357.225 243.325 357.219 245.263C357.213 247.183 356.322 248.938 356.332 250.905M100.946 340.895C101.763 341.44 102.659 342.122 103.638 342.65C104.077 342.887 104.725 343.629 105.136 342.976C105.574 342.282 104.636 342.102 104.205 341.781C102.045 340.174 99.797 338.671 97.9575 336.675C97.3095 335.972 96.7522 335.183 96.0852 334.5C95.7455 334.152 95.252 333.536 94.7529 334.014C94.2032 334.54 94.7529 335.145 95.1456 335.519C97.0205 337.31 98.9439 339.049 100.946 340.895M356.382 202.646C355.395 207.078 357.045 210.987 357.391 215.451C358.678 213.281 359.099 211.49 358.211 209.501C357.782 208.538 357.297 207.526 357.53 206.432C357.827 205.041 357.214 203.968 356.382 202.646M325.502 319.353C325.38 319.268 325.258 319.182 325.137 319.097C324.989 319.234 324.832 319.364 324.694 319.511C322.325 322.026 319.962 324.546 317.589 327.057C317.084 327.59 316.41 328.01 316.433 328.863C316.435 328.948 316.677 329.112 316.783 329.095C317.618 328.958 318.119 328.395 318.69 327.793C319.869 326.549 320.71 324.93 322.347 324.166C324.459 323.181 324.62 321.058 325.502 319.353M307.904 337.779C309.656 336.93 311.293 336.567 312.639 335.531C312.83 335.385 313.055 335.088 313.032 334.888C312.882 333.624 313.766 332.987 314.507 332.231C315.104 331.623 315.921 330.541 315.358 330.095C314.704 329.578 313.562 330.297 313.001 331.074C312.411 331.89 311.715 332.571 311.052 333.299C309.923 334.538 308.546 335.691 307.904 337.779M352.584 266.506C352.329 268.752 350.164 270.223 350.343 272.679C350.465 274.337 349.951 275.967 348.933 277.34C347.738 278.953 347.544 281.028 346.408 282.668C346.172 283.009 346.178 283.491 346.786 283.842C347.177 282.455 348.902 281.842 349.011 280.486C349.236 277.677 350.813 275.411 351.611 272.849C352.244 270.814 353.248 268.824 352.584 266.506M293.872 99.1681C296.185 101.028 298.408 102.264 300.648 103.469C300.953 103.633 301.417 103.808 301.635 103.367C301.843 102.945 301.444 102.677 301.147 102.475C297.565 100.027 293.981 97.5801 290.375 95.1673C289.866 94.8266 289.138 94.7754 288.822 95.3805C288.55 95.9002 289.129 96.1303 289.558 96.3935C291.132 97.3585 292.667 98.3867 293.872 99.1681M306.43 339.477C304.934 339.346 304.237 339.867 303.609 340.52C301.985 342.208 300.393 343.911 298.172 344.885C297.532 345.166 296.901 345.673 296.682 346.476C296.532 347.026 296.094 347.314 295.615 347.598C294.516 348.248 293.451 348.955 292.378 349.648C291.736 350.063 291.321 350.613 291.248 351.959C296.624 347.928 301.696 344.244 306.43 339.477M274.589 361.715C273.203 361.35 272.12 361.055 271.567 362.546C271.469 362.81 271.217 363.028 270.953 362.976C269.084 362.606 267.746 363.965 266.179 364.508C264.948 364.935 263.513 365.018 262.489 365.893C260.626 367.484 258.378 368.064 256.087 368.568C255.498 368.698 254.964 368.896 254.499 369.263C254.253 369.457 253.966 369.695 254.21 370.057C254.382 370.312 254.686 370.301 254.933 370.193C255.567 369.918 256.237 369.684 256.802 369.302C258.707 368.015 260.899 367.59 263.081 367.144C263.977 366.961 264.927 366.832 265.153 368.18C265.249 368.754 265.755 368.732 266.168 368.517C266.648 368.266 266.514 367.958 266.171 367.643C265.409 366.942 266.173 366.751 266.566 366.344C268.73 364.099 271.808 363.467 274.589 361.715M50.1236 222.737C50.4738 224.373 49.388 225.516 49.6167 226.723C50.1393 229.487 49.7819 232.371 50.8069 235.056C51.0289 235.638 50.8127 236.204 50.7083 236.781C50.3969 238.5 50.763 239.762 51.7015 240.363C52.1234 238.313 51.4546 236.231 51.679 234.249C51.9496 231.858 51.9739 229.485 52.0226 227.102C52.0549 225.533 51.6436 224.097 50.1236 222.737M59.0327 276.39C59.3329 275.527 59.1535 275.122 59.0377 274.722C57.9135 270.843 56.5557 267.048 55.7821 263.047C55.2723 260.409 54.8926 257.73 54.2582 255.094C53.2727 250.996 52.9878 246.731 52.4071 242.537C52.3581 242.185 52.4546 241.686 51.8979 241.727C51.4412 241.76 51.3418 242.176 51.3751 242.576C51.5273 244.429 51.6732 246.282 51.8592 248.132C51.9553 249.087 52.7077 249.862 52.6546 250.875C52.5023 253.794 53.5196 256.526 54.0647 259.33C54.7088 262.645 55.4915 265.933 56.1339 269.248C56.6155 271.736 57.714 273.932 59.0327 276.39M304.684 110.354C304.435 110.152 304.209 109.909 303.933 109.758C303.478 109.51 303.071 108.602 302.522 109.264C302.123 109.745 302.113 110.602 302.569 111.217C302.849 111.597 303.227 111.929 303.62 112.196C307.86 115.075 311.21 118.974 314.952 122.399C317.634 124.853 320.448 127.465 322.107 130.905C322.316 131.337 322.682 131.779 322.199 132.19C321.77 132.555 321.251 132.367 320.883 132.039C320.33 131.547 319.862 130.959 319.323 130.449C319.055 130.196 318.681 129.932 318.317 130.188C317.874 130.499 318.021 130.974 318.263 131.334C319.005 132.438 319.703 133.587 320.569 134.587C323.605 138.093 326.468 141.726 329.045 145.583C330.198 147.308 331.504 148.929 332.53 150.745C332.757 151.146 333.215 151.796 333.789 151.394C334.265 151.062 333.829 150.516 333.6 150.112C333.223 149.447 333.002 148.738 332.985 147.98C332.975 147.492 332.516 146.836 333.202 146.558C333.854 146.295 334.286 146.851 334.631 147.33C336.058 149.312 337.507 151.278 338.477 153.548C338.676 154.013 338.698 155.004 339.507 154.63C340.279 154.273 339.742 153.493 339.493 152.949C339.323 152.576 338.95 152.3 338.702 151.957C337.71 150.586 336.624 149.268 335.772 147.814C334.187 145.111 332.649 142.371 331.272 139.559C330.452 137.885 329.066 136.715 327.931 135.355C326.031 133.076 325.097 129.85 321.855 128.795C321.603 128.713 321.368 128.351 321.267 128.069C320.449 125.776 318.959 124.018 317.263 122.283C313.218 118.143 309.333 113.852 304.684 110.354M274.245 86.4293C274.794 87.0662 275.05 87.902 275.827 88.4003C278.297 89.9832 281.04 91.0294 283.616 92.4022C284.508 92.8775 285.231 93.7299 286.294 93.9234C286.469 93.4301 286.121 93.2581 285.937 93.0275C284.313 90.9879 281.86 90.1696 279.694 88.9878C277.945 88.0336 276.346 86.6585 274.246 86.4171C270.284 84.2454 266.249 82.3347 261.929 80.8561C258.526 79.6919 255.174 78.3324 251.713 77.2678C249.482 76.5814 247.222 76.2867 244.843 75.8521C245.075 76.6315 245.452 76.948 245.991 77.1401C248.297 77.9611 250.547 79.0064 252.91 79.5901C258.27 80.9147 263.37 82.9403 268.529 84.8432C270.36 85.5189 272.022 87.0881 274.245 86.4293M198.612 378.081C200.073 378.534 201.46 378.956 202.958 378.723C203.845 378.584 204.417 378.137 204.401 377.129C204.376 375.573 205.393 374.945 206.698 375.165C209.74 375.677 212.616 374.758 215.551 374.384C217.545 374.13 219.574 374.249 221.542 373.679C224.519 372.816 227.755 373.354 230.648 372.403C232.78 371.702 234.815 371.537 236.987 371.315C239.788 371.029 242.5 369.78 245.22 368.856C246.138 368.544 247.03 368.228 248.004 368.225C248.715 368.223 249.417 368.083 250.006 367.73C252.914 365.984 256.195 365.146 259.375 364.215C262.189 363.391 264.835 362.186 267.594 361.26C269.584 360.592 271.397 359.382 273.263 358.364C276.518 356.586 279.757 354.778 282.994 352.966C284.528 352.107 285.742 350.773 287.173 349.839C289.909 348.052 292.6 346.203 295.293 344.356C296.538 343.502 297.916 342.897 298.827 341.498C299.589 340.33 301.292 340.18 302.317 339.067C304.079 337.154 305.784 335.022 308.115 333.871C310.344 332.771 311.333 330.613 313.074 329.12C314.818 327.623 316.082 325.571 317.582 323.784C319.355 321.67 321.143 319.569 322.95 317.484C323.589 316.746 324.037 316.1 323.306 315.104C322.794 314.405 323.012 313.698 324.011 313.667C327.483 313.558 328.878 311.017 330.095 308.393C330.496 307.527 330.998 306.851 331.668 306.248C331.947 305.998 332.299 305.773 332.658 306.119C332.928 306.379 332.839 306.707 332.707 307.009C332.643 307.155 332.571 307.305 332.469 307.424C330.612 309.586 329.945 312.396 328.48 314.773C328.128 315.347 327.617 315.701 327.161 316.14C326.967 316.326 326.775 316.568 326.94 316.838C327.163 317.201 327.54 317.095 327.778 316.904C328.19 316.573 328.549 316.172 328.905 315.777C330.611 313.882 331.812 311.551 333.923 309.998C334.196 309.797 334.431 309.384 334.466 309.047C334.731 306.466 336.225 304.432 337.435 302.28C338.224 300.879 339.531 300.173 341.122 300.175C341.708 300.175 342.178 300.268 342.385 299.59C342.527 299.125 342.461 298.994 341.881 298.945C339.352 298.732 337.814 300.358 336.18 301.842C335.986 302.018 335.779 302.179 335.572 302.339C335.54 302.363 335.473 302.342 335.285 302.342C335.045 300.251 335.702 298.429 336.876 296.742C338.486 294.429 340.15 292.158 341.216 289.506C341.679 288.353 342.126 287.234 342.086 285.973C342.072 285.533 342.19 285.132 342.469 284.781C344.96 281.649 346.011 277.926 346.847 274.114C346.927 273.75 346.916 273.296 347.132 273.041C349.557 270.178 349.243 266.159 351.324 263.156C351.499 262.904 351.649 262.561 351.639 262.265C351.558 259.789 352.73 257.535 352.933 255.147C353.153 252.545 353.574 249.974 353.876 247.388C354.493 242.109 355.356 236.856 355.538 231.534C355.652 228.243 355.447 224.949 355.092 221.684C354.813 219.124 355.159 216.587 355.086 214.036C354.984 210.516 353.856 207.26 353.302 203.869C353.053 202.349 353.054 201.145 354.715 200.438C355.519 200.096 355.848 199.207 355.745 198.425C355.312 195.165 355.119 191.863 354.208 188.677C354.097 188.291 353.928 187.986 353.48 187.967C353.163 190.45 354.435 192.787 354.075 195.297C353.957 196.121 355.022 196.818 354.931 197.804C354.88 198.365 355.268 199.025 354.716 199.461C354.275 199.809 353.794 199.514 353.402 199.224C352.792 198.772 351.992 198.178 352.396 197.423C353.265 195.798 352.344 194.623 351.835 193.225C351.184 191.435 350.706 189.536 350.493 187.647C350.301 185.941 349.574 184.477 348.954 182.972C347.278 178.903 346.318 174.578 344.23 170.64C343.009 168.336 342.33 165.753 340.942 163.48C340.238 162.328 339.683 160.464 340.772 159.757C341.413 159.341 342.976 161.098 343.339 162.356C344.146 165.153 345.393 167.694 347.323 170.337C347.153 168.86 347.393 167.644 346.629 166.523C345.458 164.805 344.417 163.049 343.825 161.001C343.499 159.87 342.623 158.886 341.935 157.876C341.488 157.222 340.896 157.471 340.397 157.844C339.315 158.652 338.621 158.148 338.069 157.183C337.513 156.211 336.968 155.23 336.46 154.232C336.213 153.745 335.953 153.291 335.486 152.993C335.181 152.798 334.861 152.423 334.492 152.69C334.107 152.968 334.35 153.354 334.528 153.689C335.652 155.806 336.435 158.137 337.603 160.159C338.898 162.402 340.104 164.603 341.113 167.01C343.324 172.287 345.792 177.442 346.761 183.153C347.098 185.142 348.112 186.964 348.391 188.986C348.484 189.661 348.853 190.546 348.036 190.816C347.337 191.047 346.769 190.293 346.487 189.665C346.03 188.647 345.626 187.59 345.344 186.511C344.255 182.335 342.576 178.357 341.285 174.265C340.479 171.712 339.222 169.394 338.383 166.887C338.05 165.893 337.415 164.999 336.932 164.053C334.813 159.9 333.221 155.46 330.538 151.62C328.725 149.028 327.121 146.188 324.252 144.495C324.045 144.374 323.828 144.108 323.792 143.882C323.334 140.985 321.072 139.216 319.414 137.135C315.569 132.31 311.231 127.913 306.903 123.516C306.052 122.651 305.4 121.585 304.695 120.585C304.31 120.041 304.025 119.376 304.685 118.876C305.297 118.413 305.955 118.735 306.419 119.201C307.696 120.484 309.032 121.728 310.236 123.056C311.972 124.969 314.038 126.598 315.406 128.852C315.862 129.602 316.878 129.616 317.414 129.284C318.09 128.865 317.233 128.308 317.045 127.815C316.76 127.071 316.026 126.76 315.487 126.256C312.767 123.712 310.171 121.081 306.982 119.027C304.74 117.583 303.017 115.345 301.016 113.512C297.235 110.052 292.894 107.335 288.793 104.297C286.046 102.262 283.159 100.502 280.242 98.7615C279.455 98.2913 278.701 97.7883 278.203 97C277.937 96.5787 277.347 96.1667 277.794 95.6063C278.147 95.1628 278.686 95.4337 279.142 95.5584C280.752 95.9996 282.189 96.7901 283.603 97.6693C288.994 101.021 294.26 104.555 299.377 108.311C299.463 108.374 299.547 108.443 299.642 108.491C300.429 108.888 301.416 108.886 301.802 108.236C302.179 107.601 301.235 106.776 300.764 106.672C298.275 106.121 296.951 103.921 294.897 102.742C291.358 100.71 287.903 98.4885 284.513 96.228C281.785 94.4092 278.746 93.33 275.98 91.6575C274.233 90.6012 272.173 90.0357 270.38 88.994C267.496 87.3186 264.105 86.7514 261.346 84.8133C261.261 84.7529 261.159 84.6929 261.058 84.6779C257.959 84.2169 255.368 82.1082 252.169 81.948C250.82 81.8803 249.615 81.2877 248.367 80.7939C246.401 80.0161 244.26 79.7493 242.315 78.8421C241.617 78.5163 240.911 78.2959 240.675 77.4773C240.402 76.5337 241.302 76.5153 241.76 76.1652C242.068 75.9296 242.402 75.7264 242.281 75.2784C242.166 74.8536 241.768 74.7823 241.407 74.6775C238.737 73.9032 236.026 73.289 233.253 73.1421C231.105 73.0284 229.218 72.2068 227.306 71.3922C226.674 71.1231 226.352 70.5409 226.089 69.9563C225.528 68.708 226.213 67.647 227.523 67.9794C229.835 68.5659 232.311 68.4574 234.482 69.645C235.473 70.1872 236.615 69.7034 237.632 69.974C242.254 71.2049 247.064 71.6772 251.533 73.5488C254.076 74.6135 256.935 74.6458 259.439 75.9977C262.092 77.4296 264.802 78.8764 267.657 79.7802C270.678 80.7364 273.52 82.0025 276.353 83.3544C280.767 85.4609 284.946 87.9728 289.167 90.4369C294.339 93.4561 299.248 96.7981 303.911 100.52C307.106 103.071 310.272 105.651 313.188 108.544C315.447 110.784 318.069 112.668 320.033 115.204C323.901 120.2 328.658 124.445 331.98 129.929C333.923 133.138 336.896 135.724 338.833 138.934C341.099 142.69 343.547 146.342 345.572 150.276C347.126 153.293 348.365 156.463 350.067 159.422C352.29 163.285 353.824 167.498 354.844 171.85C355.444 174.408 357.075 176.515 357.599 179.138C358.416 183.229 360.256 187.083 360.277 191.387C360.284 192.652 361.04 193.922 361.492 195.176C361.904 196.316 362.145 197.485 361.596 198.601C361.093 199.625 361.686 200.484 361.847 201.384C362.246 203.618 362.419 205.871 363.38 208.035C363.985 209.397 364.122 211.118 363.517 212.715C363.064 213.914 362.835 215.109 363.358 216.435C363.865 217.716 363.747 219.023 362.689 220.152C361.669 221.242 361.794 222.34 362.939 223.343C363.77 224.071 364.101 225.056 363.803 226.099C363.037 228.778 363.758 231.386 364.079 234.011C364.313 235.916 364.209 237.746 362.94 239.273C362.289 240.056 362.143 240.709 362.762 241.54C363.704 242.804 363.148 244.258 363.094 245.587C362.93 249.585 362.228 253.485 360.937 257.316C360.132 259.706 360.213 262.341 359.528 264.815C358.279 269.326 357.857 274.108 355.928 278.373C354.424 281.7 353.798 285.425 351.442 288.384C350.331 289.78 350.237 291.676 349.433 293.237C347.563 296.867 345.471 300.396 343.825 304.124C342.379 307.397 340.138 310.155 338.469 313.283C336.941 316.143 334.603 318.585 332.52 321.128C330.871 323.143 330.044 325.77 327.883 327.385C324.909 329.608 323.259 333.036 320.431 335.433C319.138 336.528 318.208 338.099 316.92 339.316C314.79 341.331 312.294 342.872 310.138 344.867C308.526 346.358 306.817 347.841 305.301 349.373C302.99 351.708 300.306 353.452 297.799 355.474C295.024 357.712 291.566 358.881 288.894 361.249C287.35 362.618 285.668 363.637 283.629 364.093C282.978 364.239 282.273 364.594 281.815 365.068C279.519 367.44 276.398 368.145 273.512 369.337C272.331 369.826 271.171 370.372 270.037 370.961C268.369 371.827 266.639 372.45 264.793 372.85C261.894 373.479 259.142 374.579 256.462 375.841C255.518 376.286 254.494 376.321 253.511 376.513C251.658 376.873 250.068 378.172 248.22 378.238C244.676 378.365 241.555 380.151 238.122 380.537C235.312 380.853 232.579 381.473 229.83 382.062C227.556 382.549 225.29 383.091 222.997 383.462C221.323 383.732 219.605 383.715 217.917 383.913C212.967 384.495 207.952 383.837 203.024 384.629C199.409 385.211 195.914 384.45 192.381 384.001C191.75 383.921 191.082 383.77 190.479 383.89C188.686 384.251 187.113 383.685 185.545 382.958C185.213 382.804 184.793 382.553 184.503 382.642C180.825 383.765 177.424 382.393 173.912 381.656C170.459 380.932 166.926 380.577 163.419 380.123C162.342 379.984 161.305 379.79 160.374 379.232C157.707 377.633 154.728 376.456 151.812 375.931C147.16 375.093 143.447 372.309 139.12 370.936C137.296 370.357 135.456 369.808 133.614 369.292C132.614 369.012 131.645 368.711 130.86 368.087C128.204 365.976 125.139 364.581 122.124 363.147C117.583 360.988 113.87 357.516 109.344 355.356C108.273 354.846 107.546 353.858 106.736 353.021C105.378 351.618 103.507 350.986 102.046 349.752C101.844 349.581 101.539 349.476 101.425 349.264C100.399 347.343 98.5299 346.365 96.8207 345.28C91.0001 341.584 87.0361 336.089 82.554 331.06C80.5676 328.832 79.2014 326.141 76.9749 324.134C76.78 323.958 76.6019 323.736 76.4887 323.501C73.9626 318.241 69.9637 313.987 66.7216 309.217C65.8754 307.972 65.1966 306.669 64.8783 305.167C64.6828 304.245 63.9569 303.523 63.5315 302.732C62.432 300.686 60.7152 299.484 59.0764 297.999C57.5902 296.653 56.7888 294.24 56.3243 292.156C55.762 289.634 54.2859 287.617 53.3813 285.308C53.1674 284.762 52.7059 284.218 52.8579 283.659C53.5938 280.954 51.9637 278.827 51.2025 276.49C51.0705 276.085 50.8437 275.693 50.802 275.281C50.3303 270.625 48.1571 266.456 46.9942 261.999C46.7109 260.913 46.3728 259.861 46.4147 258.71C46.4414 257.974 46.4203 257.173 46.1612 256.501C45.1482 253.873 45.056 251.078 44.5953 248.356C44.3536 246.927 44.1142 245.523 43.5437 244.186C43.3981 243.845 43.175 243.454 43.2284 243.124C43.717 240.11 42.0831 237.238 42.7683 234.147C43.0809 232.736 42.4453 231.102 42.1793 229.58C41.9091 228.034 41.7534 226.613 43.5531 225.78C44.3785 225.398 44.3049 224.718 43.4663 224.404C42.1267 223.902 42.0933 222.973 42.3574 221.816C42.6451 220.557 42.5761 219.283 42.4768 217.995C42.3287 216.076 42.3794 214.178 43.2591 212.364C43.6443 211.569 43.7761 210.627 43.9035 209.735C44.3153 206.859 44.5061 203.914 45.0571 201.102C45.9937 196.319 46.146 191.367 47.9283 186.748C48.5212 185.212 48.113 183.385 49.0355 181.95C50.1538 180.209 50.7066 178.266 51.2562 176.331C52.2142 172.957 53.4771 169.696 54.7385 166.433C55.5983 164.21 56.9739 162.216 57.6742 159.919C58.4105 157.505 59.7779 155.393 61.0945 153.3C63.5541 149.392 65.6042 145.252 68.0206 141.314C69.6943 138.585 71.9237 136.261 73.3349 133.327C74.4685 130.971 76.2329 128.88 77.9195 126.838C80.4196 123.812 82.8194 120.606 85.7798 118.084C88.6535 115.637 90.6137 112.299 93.9094 110.299C95.1117 109.57 96.1747 108.477 97.037 107.348C99.1435 104.59 102.279 103.06 104.689 100.675C105.635 99.7383 106.923 99.2625 108.021 98.5147C110.749 96.658 113.357 94.6583 115.841 92.4985C117.199 91.317 118.968 90.95 120.428 89.9387C123.574 87.7601 126.863 85.7598 130.382 84.2485C133.576 82.8768 136.577 81.1785 139.602 79.5034C140.249 79.1456 140.968 78.788 141.685 78.7078C145.488 78.2828 148.598 76.0172 152.125 74.8494C155.256 73.8127 158.25 72.3993 161.578 71.9813C163.593 71.7282 165.554 71.1407 167.415 70.3335C168.739 69.7586 170.141 69.913 171.493 69.6809C173.956 69.2584 176.316 68.3748 178.847 68.2404C181.079 68.1219 183.277 67.7002 185.47 67.1757C188.897 66.3562 192.434 66.7258 195.925 66.6057C196.241 66.5947 196.584 66.7499 196.874 66.6727C200.559 65.6914 204.212 66.0399 207.953 66.5252C211.896 67.0371 215.924 66.5555 219.91 66.8593C221.331 66.9678 222.271 67.6413 223.021 68.7935C223.726 69.876 223.376 70.6195 222.272 70.8192C220.574 71.1273 218.884 71.6093 217.094 70.9359C214.979 70.1403 212.838 70.0042 210.521 70.5456C207.936 71.1496 205.211 70.6747 202.576 70.372C201.586 70.2583 200.609 69.9844 199.592 70.0656C195.516 70.3902 191.407 70.3233 187.361 70.9938C186.06 71.2096 184.8 71.6573 183.515 71.9737C183.104 72.075 182.645 72.2223 182.256 72.1335C178.282 71.2266 174.776 73.3792 171.009 73.817C166.41 74.3511 162.187 76.5851 157.459 76.7651C155.999 76.8206 154.581 78.0306 153.152 78.7281C152.867 78.8669 152.641 79.1762 152.35 79.2437C147.413 80.3891 143.399 83.9469 138.29 84.6165C136.52 84.8485 135.469 86.2452 134.048 87.0317C131.906 88.217 129.731 89.3377 127.392 90.1333C123.022 91.619 119.695 94.7443 116.124 97.4766C115.827 97.703 115.563 97.9809 115.244 98.1658C109.512 101.49 104.935 106.279 99.7683 110.32C94.2129 114.665 89.4167 119.814 84.5936 124.91C83.0866 126.502 81.8161 128.404 80.5122 130.22C76.5099 135.794 72.1912 141.177 68.8515 147.174C65.834 152.592 62.54 157.882 60.1459 163.639C58.6022 167.351 56.9626 171.025 55.808 174.887C55.6705 175.346 55.5097 175.8 55.3956 176.265C55.3219 176.566 55.2189 176.947 55.5798 177.117C55.9524 177.291 56.1636 176.949 56.3393 176.695C57.2224 175.421 57.8273 174.002 58.4017 172.574C60.0862 168.39 61.4088 164.016 63.5094 160.054C65.5261 156.251 67.1264 152.102 70.3681 149.023C70.5811 148.821 70.6408 148.457 70.772 148.168C71.6295 146.281 72.4137 144.389 74.0547 142.945C75.4653 141.703 75.9608 139.776 77.0135 138.229C78.4737 136.084 80.4323 134.437 82.0416 132.46C82.1748 132.296 82.3957 132.19 82.4932 132.012C85.4457 126.626 90.4433 123.049 94.4435 118.594C95.9484 116.918 97.7307 115.396 99.6992 114.193C101.583 113.041 102.672 110.998 104.595 109.895C104.869 109.738 105.074 109.455 105.354 109.32C105.891 109.061 106.519 108.821 106.937 109.443C107.301 109.984 106.919 110.456 106.526 110.846C104.562 112.792 102.552 114.689 100.202 116.174C98.6949 117.127 97.4106 118.286 96.3822 119.76C95.3707 121.21 94.0061 122.331 92.7159 123.532C90.47 125.624 88.3126 127.783 86.4549 130.291C84.6963 132.664 82.8579 135.031 80.8191 137.189C79.4379 138.651 78.4994 140.34 77.5432 142.059C76.82 143.359 76.0772 144.668 75.1776 145.846C73.1167 148.545 70.7875 151.074 69.3961 154.207C67.938 157.49 65.3955 160.194 64.4517 163.747C64.2238 164.606 63.6968 165.385 63.3051 166.2C60.9063 171.187 58.9436 176.354 57.202 181.595C56.1984 184.614 55.5966 187.764 54.7124 190.826C54.1829 192.66 53.9497 194.547 53.3708 196.383C52.2857 199.822 51.9188 203.439 51.4443 207.01C51.2201 208.695 51.0925 210.396 50.7107 212.054C49.9877 215.196 49.9746 218.344 50.4028 221.713C51.4392 221.172 51.766 220.406 51.9531 219.493C52.167 218.451 52.414 217.41 52.7423 216.4C52.8857 215.959 52.8679 215.15 53.6214 215.301C54.2729 215.432 54.1841 216.159 54.1836 216.659C54.1819 218.146 54.2797 219.657 54.1652 221.115C53.9084 224.388 53.8605 227.674 53.6315 230.947C53.4762 233.166 53.6423 235.522 54.2349 237.745C54.5419 238.896 54.7933 240.056 54.6635 241.219C54.2606 244.84 55.1917 248.314 55.8646 251.791C56.2005 253.525 56.0528 255.299 56.6049 257C57.6048 260.081 58.2599 263.256 59.2173 266.361C60.8038 271.503 62.6161 276.56 64.3263 281.656C64.7635 282.958 64.9032 284.363 65.1458 285.726C65.2746 286.45 64.9818 287.047 64.2614 287.223C62.6474 287.616 62.9831 288.683 63.6043 289.51C64.8804 291.209 64.7815 292.54 63.0989 293.882C62.297 294.521 63.0646 297.071 64.0618 297.388C64.8447 297.637 64.6548 297.049 64.6675 296.655C64.687 296.051 64.1885 295.256 64.9325 294.906C65.7549 294.519 66.4803 295.135 67.0853 295.635C68.4586 296.768 68.7723 298.563 69.679 299.997C70.4693 301.245 71.1051 302.59 71.996 303.818C72.1246 302.526 71.5053 301.466 70.8164 300.482C68.6677 297.411 67.2976 293.982 66.0808 290.477C65.9554 290.115 65.8106 289.698 66.2436 289.489C66.7882 289.226 67.1552 289.589 67.4243 290.021C68.4369 291.65 69.6121 293.206 70.4004 294.938C71.34 297.003 72.8311 298.833 73.0965 301.21C73.2604 302.677 74.5573 303.511 75.3381 304.631C77.7884 308.142 80.1695 311.699 82.5542 315.253C85.1471 319.118 87.7154 323.077 91.4121 326.117C93.5844 327.904 95.0914 330.352 96.9137 332.49C97.156 332.773 97.3182 333.182 97.6191 333.35C100.952 335.22 102.743 338.858 105.864 340.806C108.577 342.5 110.747 344.853 113.637 346.343C116.198 347.664 118.204 350.045 120.737 351.445C123.451 352.945 125.764 355.064 128.737 356.184C130.941 357.014 132.896 358.46 135.057 359.494C140.108 361.912 145.478 363.572 150.494 365.988C155.569 368.431 161.074 369.157 166.313 370.883C168.361 371.558 170.547 371.811 172.682 372.258C172.704 372.043 172.762 371.907 172.718 371.852C172.067 371.037 171.38 370.029 171.832 369.105C172.346 368.054 173.661 368.399 174.616 368.515C177.615 368.88 180.612 369.3 183.582 369.851C185.002 370.114 186.487 369.694 187.843 370.349C188.447 370.64 189.363 370.748 189.322 371.595C189.28 372.457 188.337 372.427 187.717 372.655C187.098 372.883 186.461 372.809 185.822 372.671C183.274 372.118 180.721 371.584 178.17 371.041C177.428 370.883 176.685 370.877 175.945 371.035C175.363 371.16 174.949 371.453 175.008 372.119C175.063 372.73 175.419 373.131 176.028 373.165C180.11 373.4 184.095 374.729 188.243 374.232C189.707 374.057 190.999 374.963 192.472 374.954C194.654 374.941 196.848 374.776 199.018 375.189C199.332 375.248 199.657 375.273 199.96 375.366C200.545 375.547 201.116 375.85 201.117 376.53C201.117 377.262 200.457 377.402 199.887 377.572C199.5 377.687 199.013 377.48 198.612 378.081" fill="black"/>
</g>
<path fill-rule="evenodd" clip-rule="evenodd" d="M88.761 240.534C88.8496 239.245 88.4252 238.36 88.4383 237.41C88.4733 234.893 88.5058 232.369 88.1781 229.861C88.1157 229.381 88.0655 228.744 87.4874 228.781C86.7281 228.83 87.1293 229.473 87.1529 229.896C87.2854 232.26 88.0846 234.542 87.7609 236.988C87.6259 238.008 87.9482 239.248 88.761 240.534M215.592 334.608C218.031 334.735 220.097 333.919 222.237 333.835C222.488 333.825 222.783 333.666 222.689 333.313C222.598 332.97 222.273 332.765 221.978 332.752C219.758 332.653 217.397 332.059 215.592 334.608M291.073 153.048C291.402 155.303 295.792 160.297 297.38 160.425C296.282 157.083 293.007 155.655 291.073 153.048M297.823 290.777C296.182 292.278 295.337 293.825 294.026 295.653C295.554 295.132 296.687 295.073 297.836 295.15C298.46 295.191 298.724 294.666 298.939 294.163C299.079 293.835 299.079 293.492 298.712 293.363C297.599 292.97 297.663 292.061 297.823 290.777M189.096 333.975C189.148 334.076 189.172 334.213 189.246 334.251C192.132 335.705 195.171 335.299 198.202 334.975C198.471 334.946 198.774 334.843 198.705 334.501C198.612 334.047 198.216 334.047 197.83 334.001C195.305 333.702 192.749 334.109 190.228 333.654C189.857 333.587 189.371 333.512 189.096 333.975M304.082 171.118C304.385 170.504 304.337 170.006 304.075 169.721C302.757 168.289 302.221 166.423 301.245 164.805C300.891 164.218 300.488 163.66 300.087 163.104C299.842 162.764 299.498 162.643 299.112 162.859C298.646 163.119 298.807 163.496 299.022 163.806C299.36 164.295 299.44 164.921 299.738 165.375C301.036 167.356 301.662 169.869 304.082 171.118M287.178 303.111C285.966 303.955 285.476 305.346 284.421 305.937C281.394 307.629 279.305 310.437 276.46 312.32C275.706 312.819 275.013 313.404 274.505 314.17C274.217 314.603 274.326 314.943 274.868 314.861C275.657 314.741 276.728 314.375 276.873 313.79C277.451 311.466 279.824 311.095 281.123 309.566C282.467 307.983 284.962 307.547 285.685 305.222C285.763 304.97 286.144 304.795 286.408 304.621C286.875 304.315 287.219 303.95 287.178 303.111M252.694 324.109C253.147 324.328 253.543 324.141 253.916 323.945C256.888 322.388 259.865 320.838 262.813 319.236C263.316 318.963 264.285 318.669 263.935 317.981C263.618 317.358 262.714 317.599 262.068 317.914C261.832 318.029 261.553 318.143 261.405 318.34C260.521 319.518 259.205 320.004 257.906 320.412C256.094 320.981 254.9 322.592 253.071 323.112C252.736 323.207 252.331 323.596 252.694 324.109M149.875 328.466C150.343 328.958 150.998 329.153 151.429 328.676C152.45 327.545 153.549 327.748 154.757 328.184C155.117 328.313 155.677 328.533 155.763 327.902C155.828 327.428 155.397 327.164 154.922 327.141C153.782 327.085 152.902 326.447 152.148 325.726C151.132 324.755 149.787 324.909 148.623 324.47C148.24 324.326 147.711 324.602 148.002 325.023C148.753 326.11 148.953 327.486 149.875 328.466M101.822 273.472C100.891 270.822 100.056 268.372 99.1695 265.941C98.2393 263.388 96.855 260.986 96.643 258.197C96.6064 257.715 96.3321 257.309 95.8319 257.452C95.2474 257.619 95.4701 258.117 95.6327 258.513C96.7019 261.114 97.1091 263.91 97.9153 266.591C98.5807 268.805 100.024 270.55 100.756 272.669C100.87 272.999 101.139 273.31 101.822 273.472M316.34 206.402C316.521 205.138 316.733 203.877 316.858 202.608C316.883 202.349 316.64 201.982 316.414 201.795C315.115 200.729 315.01 199.293 314.942 197.758C314.869 196.127 314.59 194.502 313.7 193.061C313.507 192.749 313.39 192.316 312.912 192.421C312.419 192.528 312.284 192.943 312.268 193.399C312.237 194.276 312.588 195.047 312.884 195.85C313.751 198.203 315.181 200.385 314.916 203.085C314.795 204.321 315.59 205.335 316.34 206.402M306.323 265.237C305.917 265.729 305.5 266.215 305.384 266.877C304.921 269.537 303.587 271.847 302.443 274.236C302.079 274.998 301.58 276.159 302.443 276.499C303.309 276.84 303.706 275.589 303.977 274.838C304.48 273.44 304.981 272.075 305.732 270.764C306.704 269.067 307.381 267.201 308.166 265.398C308.336 265.008 308.476 264.524 308.055 264.227C307.54 263.864 307.165 264.274 306.828 264.62C306.644 264.81 306.49 265.03 306.323 265.237M303.763 179.258C303.496 180.132 303.843 180.851 304.126 181.569C305.478 185.001 307.096 188.316 308.041 191.924C308.518 193.743 309.104 195.573 309.757 197.36C309.883 197.705 310.011 198.121 310.496 198.051C311.001 197.979 310.97 197.562 310.94 197.181C310.808 195.534 310.654 193.884 309.759 192.437C309.097 191.366 308.666 190.206 308.73 188.973C308.802 187.585 308.227 186.684 307.155 185.913C306.575 185.496 305.657 185 305.88 184.222C306.542 181.922 304.341 180.969 303.763 179.258M91.4668 229.022C89.8235 231.148 92.8782 251.768 95.0382 253.639C92.9081 245.66 92.6054 237.41 91.4668 229.022M317.122 241.001C317.754 241.069 317.972 240.609 318.144 240.121C318.608 238.795 318.237 237.385 318.481 236.062C318.844 234.091 319.563 232.179 318.781 230.149C318.656 229.826 318.783 229.411 318.76 229.041C318.518 225.09 318.649 221.113 317.909 217.198C317.848 216.879 317.803 216.472 317.446 216.449C316.913 216.414 316.949 216.913 316.931 217.264C316.903 217.793 316.891 218.33 316.949 218.854C317.221 221.306 317.943 223.71 317.62 226.224C317.479 227.318 317.323 228.454 317.462 229.533C317.866 232.68 317.647 235.767 316.956 238.845C316.805 239.515 316.782 240.215 317.122 241.001M310.822 188.928C311.28 189.466 311.567 189.761 311.973 189.494C312.528 189.128 312.381 188.613 312.233 188.067C311.505 185.373 309.698 183.043 309.568 180.146C309.56 179.951 309.44 179.725 309.304 179.576C307.832 177.966 307.171 175.919 306.256 174.007C305.982 173.436 305.81 172.41 304.886 172.885C304.011 173.335 304.483 174.177 304.809 174.852C305.851 177.008 306.926 179.148 307.936 181.318C308.653 182.857 309.533 184.38 309.548 186.123C309.558 187.434 310.175 188.33 310.822 188.928M312.123 210.574C311.436 212.603 311.929 214.294 313.148 215.816C313.784 216.609 314.342 217.424 313.71 218.4C313.034 219.445 313.259 220.514 313.278 221.632C313.318 223.884 313.762 226.144 313.409 228.385C312.765 232.48 312.586 236.591 313.147 240.683C313.456 242.932 312.153 244.586 311.579 246.505C311.451 246.933 310.981 247.333 310.427 247.124C309.953 246.944 309.698 246.477 309.648 245.99C309.612 245.635 309.759 245.264 309.799 244.897C310.073 242.392 310.929 239.925 310.332 237.362C310.245 236.988 310.481 236.362 309.882 236.318C309.302 236.276 308.911 236.733 308.744 237.278C308.311 238.692 307.672 240.025 307.552 241.558C307.378 243.779 307.259 246.073 306.599 248.172C305.037 253.138 304.711 258.427 302.425 263.208C301.08 266.018 300.234 269.063 298.949 271.905C296.953 276.317 293.861 280.127 291.861 284.561C291.264 285.884 290.349 287.237 289.219 288.11C287.056 289.779 285.442 291.876 284.021 294.097C282.532 296.425 280.638 298.316 278.611 300.114C275.157 303.18 271.59 306.123 268.226 309.284C266.032 311.346 263.694 313.274 261.031 314.5C258.867 315.496 256.93 316.653 255.146 318.161C255.025 318.263 254.886 318.355 254.74 318.415C252.574 319.315 250.688 320.736 248.353 321.395C246.292 321.976 244.521 323.484 242.397 324.041C239.269 324.86 236.412 326.614 233.104 326.772C232.026 326.824 231.017 327.045 229.985 327.344C226.822 328.261 223.602 328.944 220.305 329.131C219.265 329.19 218.239 328.872 217.195 329.398C215.62 330.192 213.907 330.479 212.133 330.397C211.612 330.373 211.023 330.345 210.681 330.857C210.501 331.125 210.498 331.503 210.742 331.755C211.203 332.23 211.867 332.297 212.376 332.047C213.987 331.255 215.613 331.716 217.239 331.832C217.66 331.862 218.061 331.916 218.498 331.831C221.401 331.268 224.05 329.963 227.173 329.854C230.435 329.74 233.659 328.388 236.888 327.535C237.559 327.359 238.275 326.892 238.674 327.782C239.029 328.576 238.314 328.993 237.737 329.194C234.694 330.255 231.704 331.618 228.393 331.531C226.658 331.485 225.447 332.299 224.318 333.514C227.258 332.297 230.522 333.164 233.458 331.841C235.138 331.085 236.957 330.433 238.769 330.234C240.439 330.05 241.802 329.318 243.262 328.721C243.995 328.422 244.339 327.886 243.926 327.062C243.367 325.947 243.812 325.287 244.892 324.815C247.95 323.478 251.144 322.433 253.947 320.539C256.041 319.123 258.641 318.6 260.508 316.718C261.187 316.034 262.233 315.679 263.16 315.286C263.876 314.983 264.608 315.001 265.14 315.775C266.162 317.261 267.156 317.336 268.373 315.966C269.943 314.199 271.827 312.81 273.728 311.458C276.815 309.262 279.525 306.651 282.268 304.064C283.227 303.16 283.717 301.819 284.775 301.143C285.959 300.386 287.041 299.584 287.921 298.508C290.106 295.837 292.196 293.084 294.473 290.494C297.076 287.534 298.569 283.918 300.6 280.622C300.881 280.166 301.32 279.417 300.771 279.023C300.133 278.564 299.83 279.443 299.414 279.781C299.027 280.094 298.648 280.443 298.142 280.125C297.633 279.806 297.504 279.267 297.664 278.718C297.766 278.372 297.954 278.015 298.2 277.755C299.284 276.609 299.835 275.176 300.554 273.811C301.353 272.295 301.532 270.56 302.415 269.13C303.403 267.532 304.137 265.824 304.641 264.058C305.675 260.44 307.167 256.952 307.738 253.2C307.854 252.434 308.312 251.878 309.161 252.037C309.933 252.182 310.057 252.892 310.081 253.538C310.096 253.954 310.039 254.414 309.867 254.786C308.991 256.685 308.889 258.814 308.062 260.724C307.888 261.124 307.76 261.592 308.274 261.834C308.734 262.05 309.135 261.785 309.353 261.398C309.583 260.99 309.734 260.526 309.856 260.069C310.332 258.279 310.412 256.373 311.355 254.721C311.817 253.91 311.921 253.069 312.021 252.151C312.262 249.941 312.59 247.721 313.134 245.569C313.708 243.301 314.511 241.207 314.657 238.723C314.843 235.539 313.959 232.211 315.328 229.094C315.473 228.762 315.363 228.216 315.186 227.863C314.613 226.725 314.492 225.506 314.511 224.287C314.534 222.78 314.074 221.258 314.21 219.829C314.526 216.508 314.718 213.337 312.123 210.574M213.143 334.907C211.745 334.028 210.591 334.068 209.454 334.372C208.668 334.583 207.993 334.413 207.29 334.125C206.195 333.677 205.823 333.174 207.112 332.481C207.591 332.224 207.832 331.833 207.687 331.298C207.545 330.775 207.063 330.76 206.644 330.747C205.104 330.703 203.573 330.516 202.023 330.74C198.024 331.316 194.04 330.655 190.208 329.808C187.608 329.233 185.035 328.998 182.432 328.748C181.467 328.655 180.595 328.414 179.683 328.067C178.525 327.628 177.5 326.377 176.158 326.893C174.412 327.565 172.919 327.081 171.41 326.348C169.636 325.487 167.844 324.614 165.929 324.182C163.181 323.562 160.782 322.241 158.301 321.007C156.78 320.249 155.612 318.909 153.95 318.471C151.705 317.879 149.684 316.891 147.92 315.385C146.578 314.239 145.094 313.306 143.596 312.382C140.884 310.709 138.458 308.641 135.943 306.7C132.772 304.253 130.119 301.265 127.715 298.088C126.94 297.066 125.436 296.753 125.168 295.366C125.012 294.562 124.625 293.992 123.989 293.557C122.111 292.272 121.016 290.333 120.103 288.389C118.666 285.328 116.353 282.891 114.534 280.11C113.414 278.398 113.342 276.555 112.754 274.788C112.626 274.405 112.776 273.912 113.242 273.712C113.718 273.507 114.076 273.813 114.361 274.124C115.258 275.103 116.217 276.04 116.614 277.374C117.496 280.331 119.264 282.839 121.013 285.282C123.94 289.371 126.735 293.581 130.35 297.144C132.544 299.306 134.479 301.759 136.821 303.735C139.973 306.394 143.28 308.913 146.835 311.023C148.446 311.979 149.93 313.016 151.357 314.225C152.721 315.382 154.243 316.55 155.899 317.128C162.129 319.303 167.83 322.752 174.183 324.591C175.282 324.909 176.253 325.798 177.488 325.505C178.32 325.308 179.066 325.412 179.813 325.754C181.064 326.325 182.389 326.435 183.726 326.278C185.258 326.099 186.681 326.484 188.105 326.945C188.659 327.125 189.214 327.341 189.785 327.421C193.418 327.928 197.105 327.603 200.744 328.131C203.166 328.483 205.625 328.152 208.054 328.143C210.632 328.133 213.34 328.353 215.822 327.663C218.434 326.937 220.969 326.383 223.636 326.923C225.133 327.226 226.072 325.954 227.376 325.787C231.007 325.322 234.38 323.925 237.711 322.584C241.69 320.982 245.751 319.627 249.757 318.112C252.673 317.009 255.48 315.531 257.746 313.538C261.434 310.293 265.836 308.112 269.507 304.823C272.499 302.143 275.482 299.439 278.259 296.566C280.752 293.986 282.808 290.977 285.37 288.422C286.006 287.788 286.872 287.382 287.276 286.516C289.885 280.921 293.727 276.024 296.376 270.444C297.082 268.957 297.239 267.231 298.343 265.938C299.226 264.905 299.597 263.687 300.073 262.432C302.36 256.405 303.511 250.111 304.784 243.84C305.111 242.227 304.89 240.548 305.398 238.95C306.087 236.782 306.098 234.549 305.976 232.301C305.922 231.293 305.774 230.227 306.021 229.279C306.96 225.68 305.995 222.162 305.568 218.666C305.049 214.409 304.646 210.141 304.138 205.884C304.05 205.143 304.05 204.201 304.907 203.979C305.86 203.732 306.179 204.716 306.341 205.373C306.924 207.731 307.084 210.174 307.394 212.572C307.737 215.225 308.228 217.868 308.348 220.567C308.489 223.73 309.312 226.874 308.191 230.02C307.841 231.002 307.963 232.029 308.382 232.981C308.718 233.741 309.422 234.121 310.192 234.044C310.945 233.968 310.868 233.191 310.95 232.635C311.043 232.006 311.067 231.367 311.13 230.734C311.368 228.344 310.334 226.017 310.792 223.613C311.014 222.452 310.95 221.275 310.718 220.127C310.366 218.391 310.236 216.644 310.373 214.885C310.483 213.474 310.287 212.161 309.719 210.842C309.036 209.256 308.91 207.54 309.116 205.825C309.181 205.289 309.448 204.75 310.091 204.722C310.801 204.692 310.923 205.258 310.987 205.813C311.049 206.342 311.075 206.877 311.165 207.401C311.267 208.002 311.167 208.973 311.891 208.956C312.486 208.943 312.858 208.04 313.027 207.375C313.125 206.988 313.011 206.533 312.938 206.118C312.745 205.021 312.458 203.947 312.479 202.809C312.497 201.804 311.665 201.107 311.328 200.219C311.274 200.076 310.98 199.929 310.813 199.945C310.478 199.978 310.487 200.281 310.486 200.557C310.484 200.977 310.543 201.428 310.412 201.81C310.23 202.339 310.063 203.003 309.318 203.021C308.651 203.037 308.232 202.592 307.991 202.033C307.676 201.302 307.327 200.559 307.181 199.786C306.488 196.13 305.596 192.544 303.946 189.179C303.669 188.612 303.516 187.973 303.376 187.352C302.817 184.862 301.654 182.588 300.747 180.23C300.068 178.463 299.567 176.604 298.521 174.963C298.106 174.313 298.014 173.293 299.077 172.978C300.008 172.702 300.358 173.431 300.597 174.213C300.734 174.662 300.979 175.083 301.213 175.496C301.342 175.725 301.566 175.949 301.856 175.794C302.153 175.635 302.109 175.275 301.964 175.086C300.886 173.674 300.56 171.873 299.55 170.435C297.358 167.315 295.525 163.962 293.166 160.942C291.118 158.32 289.489 155.385 287.036 153.057C286.277 152.336 285.397 151.308 286.908 150.293C287.479 149.91 287.343 149.387 286.911 148.929C283.341 145.146 280.318 140.731 275.166 138.773C274.506 138.522 274.063 137.977 273.539 137.526C271.701 135.942 270.317 133.797 267.928 132.886C266.97 132.521 266.227 131.856 265.401 131.286C263.665 130.089 261.996 128.762 260.189 127.716C258.517 126.748 256.804 125.755 254.915 125.15C253.794 124.791 252.876 124.013 252.023 123.195C251.292 122.494 251.029 121.769 252.001 121.078C253.002 120.366 252.645 119.811 251.767 119.499C250.645 119.102 249.682 118.436 248.652 117.887C244.596 115.723 239.862 115.415 235.838 113.134C234.21 112.211 232.064 112.501 230.502 111.645C226.657 109.541 222.413 109.857 218.372 109.409C212.312 108.739 206.171 109.263 200.061 109.486C197.65 109.574 195.187 110.2 192.777 109.48C191.345 109.051 190.005 109.372 188.75 109.93C187.943 110.289 187.115 110.64 186.308 110.527C183.318 110.109 180.676 111.519 177.914 112.124C173.442 113.106 169.188 115.051 164.592 115.559C162.452 115.796 161.056 117.4 159.131 118.038C156.364 118.955 153.425 119.81 151.078 121.438C147.398 123.992 143.309 125.843 139.726 128.538C135.819 131.474 131.392 133.681 127.946 137.278C125.449 139.884 122.756 142.306 120.077 144.729C117.779 146.808 116.09 149.425 113.812 151.531C112.652 152.603 111.169 153.314 110.319 154.761C108.712 157.497 107.053 160.205 105.326 162.866C103.973 164.952 103.174 167.446 101.14 169.031C99.9434 169.964 99.4559 171.186 99.1797 172.55C98.9876 173.5 98.5559 174.366 98.3296 175.286C97.7477 177.656 96.0752 179.507 95.2987 181.742C93.5402 186.805 91.7185 191.844 90.1757 196.992C89.01 200.881 88.6941 204.874 87.7405 208.766C87.3977 210.163 87.2769 211.595 87.4367 213.042C87.4749 213.386 87.516 213.699 87.8923 213.778C88.2872 213.862 88.4707 213.561 88.5732 213.252C88.9423 212.14 89.3842 211.003 89.132 209.827C88.8198 208.373 89.1116 206.997 89.2671 205.566C89.5048 203.381 90.4276 201.402 90.8554 199.309C91.6377 195.477 93.7894 192.048 94.0287 188.073C94.0475 187.767 94.4785 187.504 94.6538 187.187C95.8996 184.927 98.145 183.1 98.4814 180.502C98.8607 177.575 100.352 175.37 101.923 173.109C102.709 171.978 103.513 170.857 104.354 169.766C104.602 169.444 104.991 169.131 105.457 169.404C105.587 169.48 105.713 169.848 105.647 169.935C104.813 171.026 104.957 172.477 104.218 173.618C102.538 176.211 101.253 179.008 100.396 181.976C99.9161 183.639 99.1305 185.121 98.1663 186.524C97.7734 187.096 97.3081 187.623 97.1164 188.302C95.723 193.244 93.067 197.703 92.1471 202.888C91.4034 207.079 90.9393 211.287 90.4077 215.489C90.1441 217.574 90.2868 219.728 90.4208 221.839C90.5446 223.79 90.1679 225.835 91.1805 227.772C92.2291 225.845 92.2751 223.821 92.096 221.925C91.7745 218.518 92.7543 215.344 93.2434 212.072C93.4839 210.463 94.4596 209.117 94.5603 207.498C94.9252 201.631 97.1269 196.257 99.054 190.81C99.3552 189.958 99.8355 189.188 100.92 189.553C101.996 189.916 101.707 190.774 101.477 191.559C100.038 196.454 98.0433 201.168 96.7531 206.114C96.4142 207.412 96.0208 208.673 96.2682 210.028C96.3667 210.566 96.3314 211.092 96.1529 211.604C95.0545 214.75 94.8183 218.052 94.7296 221.317C94.5768 226.915 94.4824 232.496 95.1808 238.121C95.6877 242.204 96.5652 246.23 96.9971 250.335C97.4275 254.424 98.9667 258.414 100.3 262.375C101.031 264.546 102.277 266.515 102.805 268.711C103.284 270.698 104.583 272.053 105.666 273.602C105.817 273.818 106.074 273.999 106.351 273.878C106.687 273.732 106.485 273.45 106.464 273.195C106.205 270.005 104.421 267.307 103.306 264.451C101.755 260.476 100.777 256.405 99.734 252.324C99.4007 251.019 99.1484 249.727 98.1576 248.731C97.7105 248.28 97.4361 247.804 97.9166 247.192C98.7365 246.148 98.5435 245.023 98.2225 243.85C97.7328 242.059 96.9641 240.328 96.8899 238.44C96.7457 234.784 96.9534 231.133 97.1272 227.484C97.1578 226.842 97.2446 226.216 97.04 225.589C96.632 224.342 96.8944 223.18 97.4781 222.048C97.7249 221.57 97.9135 220.964 98.5528 221.03C99.3304 221.111 99.3416 221.831 99.3377 222.4C99.3226 224.398 99.0311 226.367 99.2494 228.402C99.4267 230.057 99.5969 231.753 99.4887 233.474C99.3396 235.844 99.6496 238.242 99.4425 240.629C99.3393 241.817 100.347 242.669 100.398 243.806C100.588 248.133 101.827 252.265 102.748 256.456C102.883 257.069 103.168 257.663 103.465 258.222C104.121 259.453 104.55 260.751 104.904 262.098C105.419 264.05 106.091 265.974 107.103 267.718C108.228 269.658 109.33 271.575 109.944 273.759C110.461 275.598 111.588 277.243 111.671 279.236C111.684 279.543 112.193 279.9 111.726 280.169C111.278 280.425 111.057 279.98 110.933 279.635C110.415 278.198 109.37 277.11 108.491 275.914C108.191 275.506 107.948 274.67 107.191 275.309C106.645 275.77 105.988 276.246 106.52 277.177C107.25 278.456 107.837 279.82 108.614 281.068C110.383 283.912 112.152 286.761 114.067 289.506C116.22 292.593 118.41 295.67 120.805 298.569C124.235 302.717 128.42 306.134 132.336 309.8C134.321 311.658 136.089 313.803 138.76 314.93C140.276 315.569 141.545 316.833 142.863 317.893C145.282 319.837 147.651 321.831 151.096 320.381C151.358 320.271 151.73 320.33 152.026 320.408C153.937 320.912 155.759 321.636 157.448 322.676C157.861 322.93 158.111 323.27 157.916 323.731C157.666 324.323 157.165 324.244 156.702 324.011C155.951 323.634 155.208 323.269 154.082 323.49C155.13 325.19 156.689 325.925 158.24 326.473C162.465 327.966 166.746 329.302 171.004 330.702C171.298 330.799 171.678 331.039 171.852 330.681C172.091 330.189 171.569 330.083 171.263 329.927C170.932 329.759 170.564 329.667 170.227 329.51C167.606 328.283 164.54 328.271 162.111 326.52C161.461 326.051 160.026 325.947 160.339 325.059C160.707 324.017 162.011 324.658 162.742 324.944C165.769 326.131 168.917 326.893 172.009 327.851C176.886 329.362 181.861 330.445 186.848 331.463C188.379 331.775 190.008 331.722 191.593 331.892C194.286 332.18 196.938 333.137 199.738 332.32C200.89 331.983 201.757 333.104 201.36 334.292C201.046 335.231 201.459 335.284 202.148 335.32C205.697 335.509 209.22 335.088 213.143 334.907M305.08 291.213C302.423 294.799 299.861 298.461 296.901 301.801C293.31 305.853 289.811 310.014 285.407 313.256C284.07 314.24 283.31 315.776 281.914 316.74C278.471 319.119 275.058 321.547 271.72 324.07C268.356 326.614 264.612 328.469 260.934 330.469C259.125 331.453 257.356 332.553 255.623 333.669C253.335 335.142 250.71 335.605 248.261 336.577C245.299 337.753 242.34 339.071 239.253 339.752C236.881 340.276 234.515 340.877 232.124 341.336C229.361 341.867 226.76 342.997 223.918 343.296C218.389 343.877 212.903 344.968 207.329 344.949C205.173 344.941 202.995 345.486 200.833 344.836C200.242 344.658 199.581 344.794 198.939 344.921C197.373 345.232 195.777 345.474 194.238 344.798C192.961 344.238 191.701 345.05 190.455 344.796C188.038 344.302 185.574 343.962 183.163 343.554C179.541 342.94 176.156 341.361 172.456 341.199C170.957 341.133 169.837 340.075 168.577 339.414C167.642 338.922 166.73 338.612 165.68 338.82C164.973 338.96 164.295 338.791 163.64 338.566C159.871 337.275 156.08 336.021 152.636 333.964C150.664 332.785 148.338 332.32 146.461 331.042C142.999 328.685 139.214 326.825 135.945 324.179C135.738 324.011 135.546 323.767 135.309 323.703C132.57 322.967 130.733 320.963 128.666 319.209C125.262 316.32 121.843 313.478 118.77 310.213C116.773 308.093 114.978 305.801 112.877 303.752C111.26 302.175 109.635 300.407 108.615 298.241C107.887 296.697 106.663 295.454 105.526 294.192C103.904 292.391 102.745 290.344 101.676 288.177C99.5873 283.938 97.1624 279.863 95.128 275.601C93.0993 271.35 90.9911 267.115 89.9831 262.436C89.4589 260.001 88.6076 257.635 87.8578 255.252C86.4817 250.879 85.7254 246.373 85.1803 241.845C84.9805 240.189 84.2857 238.702 84.1226 237.039C83.81 233.849 84.524 230.581 83.7912 227.495C82.9823 224.09 84.4037 220.877 84.0041 217.561C83.5342 213.664 84.1862 209.762 84.8389 206.001C85.3823 202.872 85.7273 199.617 86.9375 196.557C87.7488 194.506 88.4687 192.334 88.8506 190.162C89.4159 186.946 90.7953 184.107 92.2248 181.268C93.016 179.696 93.7983 178.166 94.1572 176.406C94.7648 173.424 96.1963 170.721 97.4726 167.997C98.5253 165.751 100.194 163.837 101.418 161.647C102.779 159.213 104.498 156.962 106.21 154.747C107.957 152.489 110.128 150.53 111.681 148.157C114.947 143.167 119.818 139.799 123.834 135.577C124.337 135.049 125.03 134.706 125.615 134.251C130.221 130.661 134.862 127.111 139.794 123.983C142.302 122.394 145.032 121.158 147.614 119.679C150.199 118.198 152.822 116.804 155.652 115.866C157.414 115.282 158.946 114.219 160.617 113.464C163.314 112.245 166.155 111.442 168.915 110.767C173.298 109.695 177.455 107.892 181.962 107.16C184.789 106.7 187.727 106.677 190.488 105.641C191.979 105.082 193.649 105.2 195.244 105.306C199.496 105.585 203.733 105.019 207.974 105.1C211.371 105.164 214.762 105.482 218.156 105.695C220.009 105.811 221.864 106.078 223.713 106.039C227.083 105.966 230.308 107.072 233.294 108.109C237.183 109.461 241.181 110.586 245.015 112.166C247.654 113.254 250.23 114.528 252.987 115.373C254.586 115.863 256.111 116.744 257.52 117.675C260.227 119.466 263.189 120.831 265.817 122.753C266.62 123.341 267.577 123.754 268.514 124.118C270.689 124.962 272.516 126.232 273.995 128.052C274.656 128.864 275.832 128.859 276.663 129.445C279.571 131.499 282.172 133.925 284.863 136.242C285.224 136.553 285.48 136.996 285.863 137.266C290.891 140.805 294.474 145.707 298.359 150.342C300.192 152.528 301.467 154.996 302.889 157.42C304.018 159.345 305.788 160.882 307.086 162.724C308.328 164.486 309.466 166.353 310.05 168.472C310.359 169.59 311.084 170.463 311.75 171.337C313.2 173.241 313.942 175.478 314.686 177.664C315.573 180.273 317.271 182.584 317.521 185.429C317.559 185.862 317.899 186.3 318.183 186.673C318.848 187.547 319.295 188.493 319.299 189.603C319.309 192.12 320.783 194.231 321.206 196.647C321.871 200.453 323.188 204.124 323.342 208.047C323.416 209.937 324.036 211.789 324.244 213.696C324.407 215.178 324.609 216.631 324.517 218.137C324.376 220.459 324.957 222.738 324.88 225.097C324.688 231.022 324.773 236.966 323.694 242.815C323.126 245.892 322.244 248.92 321.333 251.919C320.837 253.551 320.638 255.234 320.175 256.875C319.565 259.038 318.993 261.157 317.649 262.999C317.473 263.24 317.302 263.64 317.379 263.889C318.2 266.541 316.363 268.453 315.498 270.61C314.866 272.186 314.132 273.699 313.802 275.393C313.476 277.064 312.884 278.635 311.817 280.044C309.757 282.764 308.448 285.936 306.72 288.859C306.235 289.68 305.63 290.431 305.08 291.213" fill="black"/>
<path fill-rule="evenodd" clip-rule="evenodd" d="M124.791 350.895C123.396 349.414 121.785 348.441 119.854 348.007C119.451 347.917 118.98 347.752 118.721 347.461C116.965 345.487 114.536 344.376 112.611 342.627C110.79 340.973 108.73 339.665 106.638 338.396C106.277 338.177 105.848 337.968 105.626 337.637C103.835 334.964 100.983 333.32 99.0517 330.764C97.909 329.251 96.4926 327.92 95.0733 326.647C92.5798 324.412 91.2205 321.355 89.1968 318.779C87.6539 316.816 85.7752 315.184 84.2188 313.236C83.2706 312.049 82.6453 310.856 82.4935 309.4C82.418 308.676 82.166 308.247 81.4324 308.028C80.2604 307.679 79.5786 306.888 79.0105 305.738C78.002 303.696 76.706 301.791 75.4771 299.863C73.0611 296.075 71.3326 291.941 69.477 287.879C67.9985 284.643 66.8231 281.269 65.465 277.976C64.3495 275.269 64.1518 272.292 62.9686 269.614C61.6047 266.528 61.113 263.182 60.4456 259.949C59.5205 255.466 58.3351 251.024 57.8978 246.414C57.6403 243.695 57.3741 240.968 57.2067 238.242C56.6839 229.733 56.5592 221.226 57.5604 212.735C58.1995 207.317 59.131 201.963 60.8746 196.777C60.9908 196.432 61.1489 196.08 61.3726 195.799C61.6702 195.424 62.0558 195.056 62.5962 195.346C63.0361 195.581 63.1348 196.081 62.9832 196.467C61.3365 200.656 62.0766 205.325 60.3587 209.498C60.2004 209.882 60.0329 210.355 60.1153 210.733C61.0279 214.937 60.1854 219.168 59.6713 223.24C59.0864 227.875 60.3163 232.404 59.4809 237.014C58.9577 239.903 59.9947 242.921 60.5263 245.838C60.8129 247.412 60.6961 248.898 60.5783 250.416C60.4543 252.016 60.9953 253.44 61.5266 254.883C62.3079 257.004 62.3658 259.256 62.7507 261.451C63.4301 265.327 65.2333 268.92 65.8819 272.788C66.5147 276.563 68.8167 279.552 70.1354 282.973C72.345 288.705 75.455 293.972 78.1305 299.459C79.4972 302.262 81.4774 304.75 82.6406 307.69C82.8569 308.236 83.4548 308.66 83.9383 309.066C86.2299 310.994 87.3015 313.77 88.9248 316.161C89.0991 316.419 89.2762 316.72 89.5294 316.873C91.4321 318.02 92.3504 319.987 93.6425 321.654C95.5883 324.167 97.6986 326.543 99.8822 328.862C102.178 331.3 104.711 333.471 107.119 335.782C108.039 336.666 108.834 337.676 110.009 338.231C112.889 339.59 114.873 342.137 117.487 343.834C120.354 345.695 123.132 347.734 126.3 349.07C127.269 349.479 127.918 350.241 128.803 350.723C132.717 352.853 136.483 355.247 140.471 357.249C141.713 357.873 142.918 358.463 144.375 358.439C145.267 358.423 146.335 358.554 146.931 359.19C149.022 361.422 151.81 361.865 154.562 362.414C157.095 362.919 159.157 364.631 161.707 365.091C164.158 365.533 166.529 366.379 169.044 366.522C169.714 366.56 170.658 366.62 170.657 367.473C170.657 368.539 169.603 368.342 168.922 368.352C167.759 368.369 166.604 368.293 165.464 367.908C163.053 367.093 160.455 367.075 158.04 366.186C157.189 365.873 156.332 365.673 155.614 365.076C155.251 364.774 154.834 364.403 154.4 364.34C150.916 363.827 147.96 362.011 144.777 360.722C141.34 359.331 137.936 357.848 134.534 356.385C131.095 354.907 127.733 353.181 124.791 350.895" fill="black"/>
<path fill-rule="evenodd" clip-rule="evenodd" d="M311.814 319.184C309.558 321.569 307.389 323.554 305.607 325.843C304.173 327.686 302.283 329.036 300.872 330.926C299.68 332.523 297.731 333.589 296.027 334.76C294.521 335.794 293.235 337.075 291.943 338.314C290.294 339.893 288.445 341.094 286.428 342.057C285.618 342.444 285.077 343.08 284.424 343.611C283.007 344.761 281.314 345.438 279.769 346.368C278.933 346.871 278.192 347.403 277.557 348.151C277.157 348.621 276.604 349.046 276.032 349.272C271.067 351.238 266.593 354.149 261.844 356.524C259.815 357.54 257.611 358.21 255.483 359.025C255.137 359.157 254.701 359.139 254.42 359.344C252.273 360.914 249.568 360.744 247.208 361.662C246.368 361.989 245.541 362.352 244.715 362.705C242.146 363.803 239.434 364.33 236.708 364.826C236.344 364.892 235.759 364.892 235.662 365.102C234.914 366.713 233.629 366.002 232.466 365.953C229.916 365.846 227.522 366.671 225.12 367.343C224.114 367.625 223.15 367.782 222.137 367.606C220.042 367.242 217.988 367.572 215.961 368.011C214.892 368.242 213.85 368.275 212.788 368.151C212.072 368.067 211.115 368.174 211.081 367.131C211.048 366.15 211.789 365.463 212.674 365.416C214.586 365.313 216.477 364.856 218.408 365.075C218.883 365.129 219.399 365.257 219.835 365.134C222.036 364.512 224.341 364.435 226.528 364.003C229.631 363.389 232.864 363.238 235.867 362.029C237.225 361.482 238.683 361.054 240.234 361.228C240.736 361.284 241.351 361.175 241.776 360.915C244.52 359.237 247.723 358.98 250.681 357.976C253.198 357.122 255.443 355.558 258.099 355.077C260.419 354.656 262.129 352.887 264.276 352.254C266.602 351.569 268.463 350.14 270.565 349.191C273.311 347.952 275.906 346.66 278.128 344.626C278.592 344.202 279.169 343.849 279.755 343.621C282.132 342.699 283.848 340.982 285.754 339.362C287.661 337.741 289.754 336.047 292.261 335.17C293.835 334.619 294.653 333.093 295.742 332.02C298.403 329.396 301.503 327.273 303.937 324.363C305.76 322.183 307.974 320.3 309.784 318.067C309.818 318.026 309.854 317.985 309.897 317.955C310.545 317.499 311.267 316.795 312.008 317.518C312.698 318.192 312.007 318.881 311.814 319.184" fill="black"/>
<path fill-rule="evenodd" clip-rule="evenodd" d="M343.445 279.309C341.301 280.491 341.605 282.818 340.731 284.528C338.762 288.378 336.828 292.248 334.951 296.145C333.293 299.589 331.153 302.718 328.872 305.753C327.755 307.24 326.718 308.763 325.772 310.36C325.344 311.083 324.796 311.748 324.22 312.363C323.802 312.808 323.225 312.732 322.768 312.347C322.307 311.96 322.446 311.504 322.735 311.064C324.708 308.072 326.501 304.966 328.758 302.157C330.683 299.761 332.178 297.013 333.588 294.331C335.396 290.894 337.194 287.425 338.847 283.897C339.448 282.614 339.67 281.151 340.272 279.869C341.613 277.015 343.047 274.202 344.518 271.412C345.288 269.954 345.108 268.325 345.513 266.797C346.572 262.806 347.533 258.781 348.334 254.728C348.887 251.928 348.966 249.031 349.799 246.28C350.039 245.487 349.877 244.13 351.114 244.28C352.55 244.454 352.49 245.882 352.278 246.859C351.595 250.001 351.451 253.287 349.998 256.236C349.883 256.468 349.789 256.745 349.798 256.998C349.924 260.573 348.185 263.668 347.337 266.991C346.458 270.437 345.047 273.685 343.623 276.923C343.262 277.743 343.73 278.612 343.445 279.309" fill="black"/>
<path fill-rule="evenodd" clip-rule="evenodd" d="M351 197.658C351.359 197.934 351.863 198.111 351.658 198.658C350.951 200.535 351.882 202.346 351.781 204.196C351.769 204.408 351.72 204.697 351.831 204.824C353.589 206.841 352.739 209.384 352.936 211.633C353.394 216.86 354.786 222.017 354.317 227.309C354.02 230.649 354.227 234.033 353.423 237.333C353.223 238.153 353.658 238.907 353.616 239.713C353.577 240.483 353.358 241.141 352.501 241.23C351.595 241.325 351.559 240.589 351.451 239.943C351.226 238.606 351.562 237.27 351.505 235.947C351.325 231.785 351.751 227.632 351.702 223.476C351.675 221.191 351.938 218.797 351.368 216.646C350.052 211.683 350.735 206.434 349.114 201.538C348.824 200.662 348.958 199.635 348.929 198.676C348.912 198.09 348.879 197.43 349.498 197.108C350.17 196.759 350.547 197.416 351 197.658" fill="black"/>
<path fill-rule="evenodd" clip-rule="evenodd" d="M320.524 316.815C318.467 319.705 315.828 322.124 313.914 325.132C313.398 325.943 312.389 326.43 311.621 327.081C308.989 329.314 307.007 332.169 304.241 334.309C299.369 338.08 294.783 342.21 289.884 345.946C288.65 346.886 287.031 347.512 285.599 348.301C285.206 348.517 284.578 348.658 284.244 348.176C283.833 347.581 284.481 347.375 284.81 347.065C287.718 344.325 291.28 342.425 294.377 339.922C295.616 338.921 296.095 337.265 297.701 336.583C301.417 335.004 303.513 331.545 306.432 329.035C311.211 324.923 314.906 319.825 319.047 315.132C319.501 314.618 320.016 314.149 320.554 313.722C320.846 313.49 321.26 313.41 321.608 313.723C321.947 314.028 321.941 314.432 321.757 314.77C321.376 315.469 320.939 316.135 320.524 316.815" fill="black"/>
<path fill-rule="evenodd" clip-rule="evenodd" d="M141.94 352.329C142.48 352.933 142.865 353.225 143.351 353.322C147.674 354.188 151.327 356.745 155.314 358.458C155.905 358.712 156.605 359.099 156.261 359.848C155.907 360.62 155.138 360.665 154.38 360.258C151.567 358.747 148.309 358.509 145.553 356.835C144.81 356.384 144.564 357.89 143.809 357.266C143.284 356.832 143.665 355.999 142.972 355.479C141.656 354.49 140.108 354.085 138.665 353.443C137.592 352.965 136.582 352.36 135.524 351.904C133.372 350.975 131.868 349.16 129.877 348.044C129.19 347.66 128.792 347.066 129.128 346.351C129.466 345.633 130.214 345.893 130.805 346.06C132.737 346.607 134.177 348.073 135.921 348.985C138.042 350.093 140.11 351.306 141.94 352.329" fill="black"/>
<path fill-rule="evenodd" clip-rule="evenodd" d="M231.382 370.16C230.609 369.592 230.769 368.854 231.816 368.372C233.478 367.606 235.278 367.312 237.032 366.884C241.932 365.691 246.81 364.471 251.582 362.762C254.552 361.698 257.416 360.444 260.271 359.129C260.965 358.809 261.822 358.57 262.217 359.464C262.659 360.465 261.848 360.854 261.076 361.209C258.266 362.504 255.564 364.183 252.633 365.023C249.861 365.818 247.378 367.616 244.306 367.474C242.674 367.399 241.224 368.523 239.561 368.774C237.472 369.089 235.429 369.762 233.374 370.312C232.673 370.5 232.015 370.564 231.382 370.16" fill="black"/>
<path fill-rule="evenodd" clip-rule="evenodd" d="M332.156 286.673C332.842 286.09 333.161 285.279 333.435 284.471C334.877 280.213 337.069 276.282 338.645 272.08C339.324 270.27 340.172 268.535 340.339 266.563C340.403 265.801 340.697 265.094 341.112 264.464C341.447 263.957 341.919 263.521 342.592 263.746C343.283 263.978 343.406 264.628 343.297 265.23C343.116 266.232 342.903 267.238 342.579 268.2C341.54 271.285 339.95 274.163 339.249 277.381C339.06 278.248 338.501 278.961 337.86 279.51C336.825 280.396 336.153 281.587 336.002 282.791C335.586 286.117 332.903 288.266 331.98 291.3C331.798 291.897 331.167 292.198 330.507 291.944C329.747 291.652 329.814 290.942 330.062 290.426C330.683 289.137 331.118 287.728 332.156 286.673" fill="black"/>
<path fill-rule="evenodd" clip-rule="evenodd" d="M316.051 311.469C320.562 306.997 323.051 301.612 326.686 297.071C327.171 296.465 327.243 295.583 327.931 295.088C328.407 294.746 328.93 294.325 329.494 294.679C330.135 295.081 329.826 295.766 329.558 296.229C328.429 298.183 327.332 300.17 326.03 302.008C323.3 305.862 320.455 309.636 317.632 313.424C317.361 313.788 316.939 314.067 316.539 314.301C316.139 314.535 315.662 314.763 315.247 314.344C314.903 313.995 315.024 313.546 315.195 313.166C315.518 312.45 315.901 311.761 316.051 311.469" fill="black"/>
<path fill-rule="evenodd" clip-rule="evenodd" d="M196.467 371.944C196.088 371.658 195.814 371.454 195.885 371.077C195.953 370.712 196.267 370.591 196.578 370.504C197.25 370.315 197.933 370.232 198.642 370.309C203.462 370.829 208.268 370.158 213.088 370.431C213.974 370.481 214.868 370.105 215.77 370.035C216.508 369.978 217.459 369.962 217.572 370.936C217.669 371.77 216.721 371.826 216.158 371.917C212.792 372.458 209.44 373.074 206 373.155C203.202 373.221 200.428 373.206 197.703 372.393C197.24 372.255 196.792 372.063 196.467 371.944" fill="black"/>
<path fill-rule="evenodd" clip-rule="evenodd" d="M346.644 230.479C346.977 230.074 347.367 229.807 347.879 229.922C348.5 230.06 348.695 230.566 348.682 231.121C348.607 234.441 348.877 237.789 348.077 241.052C347.898 241.785 347.607 242.565 346.711 242.463C345.722 242.349 345.829 241.499 345.835 240.745C345.86 238.004 346.658 235.309 346.107 232.527C345.969 231.83 346.278 231.092 346.644 230.479" fill="black"/>
<path fill-rule="evenodd" clip-rule="evenodd" d="M346.719 210.396C347.17 209.829 347.714 209.683 347.981 210.356C348.67 212.089 349.396 213.811 349.113 215.831C348.883 217.478 348.722 219.159 349.087 220.786C349.303 221.747 348.836 222.291 348.03 222.487C347.142 222.702 347.009 221.945 346.934 221.295C346.622 218.59 346.35 215.879 346.024 213.177C345.899 212.146 346.371 211.285 346.719 210.396" fill="black"/>
<path fill-rule="evenodd" clip-rule="evenodd" d="M346.063 245.475C346.641 244.919 347.071 245.122 347.33 245.7C347.734 246.606 347.696 247.583 347.304 248.457C346.226 250.859 346.282 253.517 345.5 255.983C345.28 256.677 345.192 257.413 344.974 258.109C344.845 258.522 344.512 258.848 344.038 258.822C343.464 258.791 343.253 258.334 343.176 257.852C342.993 256.714 343.331 255.641 343.866 254.682C344.344 253.822 344.532 252.958 344.596 251.998C344.733 249.952 345.984 248.13 345.87 246.019C345.86 245.828 346.005 245.63 346.063 245.475" fill="black"/>
<path fill-rule="evenodd" clip-rule="evenodd" d="M157.072 360.841C156.891 360.639 156.128 360.34 156.513 359.634C156.893 358.937 157.668 359.243 158.118 359.491C160.741 360.938 163.724 361.222 166.526 362.086C167.278 362.318 168.403 362.708 168.288 363.478C168.162 364.322 167.003 363.902 166.316 363.961C164.55 364.111 162.892 363.762 161.399 362.749C160.153 361.904 158.414 362.165 157.072 360.841" fill="black"/>
<path fill-rule="evenodd" clip-rule="evenodd" d="M274.601 353.714C276.721 352.31 278.839 350.589 281.556 350.084C281.908 350.018 282.294 349.967 282.499 350.326C282.734 350.737 282.529 351.138 282.218 351.417C281.804 351.79 281.342 352.118 280.872 352.417C279.279 353.431 277.67 354.416 276.076 355.427C275.395 355.859 274.812 355.72 274.334 355.193C273.92 354.735 274.156 354.262 274.601 353.714" fill="black"/>
<path fill-rule="evenodd" clip-rule="evenodd" d="M262.609 359.604C262.135 359.198 262.261 358.641 262.832 358.531C265.316 358.057 267.357 356.568 269.65 355.67C270.139 355.478 270.666 355.467 270.894 356.077C271.103 356.634 270.859 357.16 270.32 357.257C268.208 357.638 266.631 359.219 264.591 359.754C263.918 359.931 263.3 360.007 262.609 359.604" fill="black"/>
<path fill-rule="evenodd" clip-rule="evenodd" d="M256.217 277.001C257.876 275.421 259.997 274.31 261.283 272.305C261.504 271.962 262.071 271.497 261.36 271.144C260.111 270.524 258.945 271.19 258.839 272.607C258.755 273.738 258.45 274.654 257.436 275.296C256.851 275.667 256.458 276.263 256.217 277.001M148.276 183.46C145.323 186.231 143.413 189.659 141.943 193.367C143.493 191.739 143.962 189.386 145.791 187.947C147.231 186.813 147.642 185.071 148.276 183.46M179.233 160.477C176.867 159.769 169.305 163.608 168.818 165.631C172.165 163.701 175.474 161.923 179.233 160.477M146.49 180.817C146.966 179.952 147.567 179.157 148.377 178.695C149.568 178.016 150.257 176.874 151.244 176.026C152.128 175.268 152.246 174.01 153.165 173.291C153.548 172.992 154.289 172.647 153.659 172.094C153.119 171.619 152.514 172.085 152.207 172.621C151.508 173.843 150.353 174.722 149.653 175.891C148.644 177.574 147.097 178.893 146.49 180.817M218.25 293.983C215.718 293.731 213.376 294.809 210.916 294.477C210.782 294.459 210.608 294.573 210.484 294.667C210.065 294.986 209.841 295.457 210.02 295.93C210.204 296.416 210.658 296.087 211.005 296.057C211.855 295.982 212.716 295.799 213.552 295.879C215.472 296.063 216.797 294.893 218.25 293.983M141.595 250.678C141.889 250.891 142.16 251.28 142.566 251.075C143.075 250.819 142.83 250.326 142.771 249.927C142.724 249.613 142.623 249.303 142.508 249.005C141.846 247.301 140.616 245.809 140.701 243.818C140.72 243.378 140.479 242.605 139.768 242.777C139.131 242.931 139.108 243.636 139.313 244.129C140.058 245.918 140.369 247.816 140.824 249.679C140.933 250.127 141.284 250.386 141.595 250.678M270.966 197.273C271.309 196.847 271.222 196.364 271.03 196.036C269.593 193.584 268.956 190.675 266.799 188.637C266.161 188.033 265.632 187.304 265.687 186.419C265.749 185.42 265.118 184.862 264.61 184.2C264.383 183.905 264.122 183.55 263.697 183.749C263.204 183.981 263.477 184.405 263.599 184.724C264.422 186.869 265.882 188.641 267.203 190.461C268.413 192.127 269.34 193.868 269.873 195.826C270.053 196.491 270.386 196.94 270.966 197.273M262.147 182.482C261.944 180.619 254.377 172.115 252.691 171.954C256.026 175.207 258.204 179.489 262.147 182.482M157.873 278.374C157.806 279.057 158.248 279.39 158.595 279.777C160.912 282.37 164.011 283.987 166.626 286.208C167.022 286.544 167.57 287.025 168.008 286.488C168.444 285.954 167.743 285.564 167.466 285.155C167.324 284.947 167.072 284.805 166.856 284.654C163.89 282.577 160.92 280.504 157.873 278.374M239.34 286.029C241.373 286.191 242.596 285.235 243.326 283.568C243.644 282.844 244.317 282.803 244.923 282.683C247.362 282.198 248.21 279.96 249.703 278.343C248.461 279.206 246.912 279.265 245.735 280.195C244.012 281.555 242.87 283.615 240.598 284.332C239.903 284.552 239.312 285.106 239.34 286.029M237.735 287.116C237.034 286.685 236.509 286.989 235.953 287.145C234.434 287.573 233.266 288.65 231.865 289.295C228.286 290.941 224.538 292.052 220.692 292.861C220.589 292.883 220.482 292.894 220.379 292.921C220.114 292.99 219.84 293.094 219.819 293.401C219.796 293.751 220.117 293.789 220.364 293.874C221.394 294.226 222.419 294.035 223.316 293.57C225.983 292.189 228.986 291.799 231.711 290.633C233.829 289.726 236 288.84 237.735 287.116M156.537 170.054C157.259 169.92 157.773 169.811 158.291 169.731C158.825 169.647 159.512 169.03 159.855 169.743C160.126 170.308 159.274 170.34 158.936 170.624C158.625 170.884 158.365 171.208 158.589 171.58C158.87 172.046 159.256 171.753 159.536 171.525C161.281 170.104 163.17 168.939 165.277 168.125C165.748 167.943 166.186 167.608 166.148 166.899C164.915 167.04 163.962 167.651 162.932 168.048C162.274 168.301 161.633 168.159 161.246 167.525C160.961 167.061 160.783 166.499 161.338 166.091C162.058 165.56 162.768 164.96 163.579 164.618C165.47 163.821 167.154 162.633 168.72 161.419C171.035 159.624 173.549 158.586 176.352 158.047C177.257 157.873 177.801 157.352 178.048 156.452C176.966 156.071 176.277 156.622 175.56 157.081C174.795 157.571 173.946 157.905 173.223 157.151C172.304 156.194 171.478 156.422 170.529 157.041C169.638 157.622 168.701 158.134 167.773 158.658C166.97 159.11 166.083 159.462 166.696 160.701C166.857 161.028 166.566 161.428 166.196 161.609C165.357 162.021 164.827 162.787 164.133 163.359C162.894 164.38 161.364 164.919 159.963 165.671C159.628 165.852 159.183 165.807 158.983 165.403C158.751 164.933 159.156 164.751 159.481 164.564C159.988 164.274 160.477 163.971 160.492 163.145C158.278 163.219 157.675 165.438 156.03 166.147C158.182 166.125 158.183 166.132 156.537 170.054M134.412 229.449C133.673 231.184 133.106 232.92 134.007 234.761C134.274 235.307 134.511 235.899 134.365 236.457C133.664 239.151 135.086 241.53 135.486 244.05C135.797 246.01 136.923 247.778 137.413 249.737C137.708 250.917 137.671 252.182 138.367 253.271C139.451 254.964 140.147 256.85 140.98 258.67C141.931 260.746 142.855 262.959 144.559 264.456C146.518 266.176 147.737 268.292 148.977 270.468C149.484 271.356 150.132 272.14 151.154 272.5C151.458 272.607 151.819 272.744 152.04 272.453C152.283 272.131 151.958 271.833 151.77 271.618C151.033 270.777 150.152 270.043 149.507 269.14C146.057 264.308 142.13 259.74 140.762 253.721C140.683 253.373 140.416 253.063 140.221 252.745C139.047 250.831 137.889 248.927 137.985 246.535C138.012 245.863 137.791 245.159 137.579 244.504C136.811 242.125 135.738 239.884 135.441 237.302C135.296 236.048 135.698 234.783 135.272 233.612C134.78 232.262 134.391 230.918 134.412 229.449M227.379 159.854C228.098 160.861 229.314 160.423 230.143 160.967C231.746 162.018 233.406 162.987 235.067 163.945C239.025 166.227 243.068 168.362 246.466 171.508C248.816 173.682 251.457 175.603 253.372 178.16C254.939 180.251 256.81 182.054 258.374 184.149C260.725 187.298 263.434 190.162 264.848 193.941C265.599 195.947 267.45 197.435 267.644 199.747C267.682 200.192 268.173 200.671 268.706 200.519C269.396 200.322 268.966 199.757 268.947 199.31C268.894 198.001 268.174 196.845 267.602 195.856C265.483 192.189 263.443 188.444 260.735 185.146C259.39 183.508 258.881 181.28 257.006 179.998C256.458 179.624 256.105 178.956 255.683 178.407C254.746 177.185 253.791 175.868 252.678 174.924C249.601 172.315 246.229 170.053 242.986 167.638C241.159 166.279 239.007 165.311 237.298 163.934C234.817 161.934 231.966 161.139 229.161 160.067C228.661 159.876 228.103 159.535 227.379 159.854M176.988 286.691C177.014 286.453 176.748 286.154 176.342 285.951C174.115 284.839 171.984 283.519 169.849 282.276C165.436 279.705 161.442 276.461 158.019 272.616C156.813 271.263 155.197 270.293 154.285 268.688C153.095 266.597 151.511 264.791 150.156 262.821C149.691 262.144 148.978 261.742 148.29 261.329C147.889 261.087 147.458 261.078 147.083 261.36C146.592 261.728 146.94 262.13 147.11 262.497C147.496 263.327 147.942 264.129 148.695 264.683C150.933 266.329 152.224 268.799 154.028 270.822C154.895 271.794 155.538 273.099 154.136 274.32C153.788 274.622 153.659 275.115 154.014 275.471C154.813 276.269 155.524 277.215 156.839 277.612C156.39 276.367 156.006 275.305 155.528 273.981C158.387 274.853 159.923 277.097 161.981 278.583C163.744 279.856 165.138 281.927 167.064 282.625C170.47 283.858 172.783 287.565 176.988 286.691M138.387 186.593C138.797 186.888 138.984 186.77 139.165 186.665C139.638 186.394 140.153 186.078 140.637 186.523C141.153 186.996 140.957 187.617 140.728 188.169C140.503 188.71 140.24 189.239 139.955 189.751C138.553 192.272 136.621 194.552 136.469 197.637C136.45 198.035 136.242 198.506 135.967 198.797C134.116 200.757 133.799 203.383 133.084 205.771C131.272 211.829 130.059 218.028 129.897 224.382C129.873 225.305 129.825 226.921 130.604 226.919C131.617 226.916 131.564 225.429 131.662 224.432C131.94 221.611 131.839 218.744 132.679 215.986C132.807 215.568 132.778 215.055 133.374 215.14C133.845 215.207 133.779 215.634 133.797 216.03C133.869 217.688 134.348 219.32 133.854 221.033C134.578 220.959 134.744 220.572 134.757 220.225C134.853 217.838 135.15 215.5 135.926 213.218C136.142 212.581 136.627 211.505 135.864 211.179C135.175 210.885 135.041 212.071 134.61 212.556C134.398 212.794 134.233 213.125 133.881 213.125C133.575 213.125 133.445 212.842 133.4 212.569C133.147 211.002 132.736 209.494 133.49 207.874C134.743 205.177 135.967 202.44 136.864 199.613C137.826 196.578 138.451 193.451 141.055 191.259C141.368 190.995 141.732 190.563 141.737 190.204C141.764 188.499 142.775 187.231 143.467 185.807C143.943 184.829 144.595 183.998 145.215 183.13C145.459 182.79 145.789 182.365 145.427 181.977C144.992 181.511 144.542 181.928 144.137 182.15C143.955 182.25 143.818 182.43 143.656 182.57C143.43 182.766 143.248 183.186 142.89 182.959C142.469 182.692 142.747 182.284 142.866 181.952C143.394 180.485 143.984 179.068 145.306 178.083C146.081 177.506 146.396 176.62 146.54 175.645C143.532 179.092 140.286 182.353 138.387 186.593M209.116 155.81C203.778 154.04 186.022 156.047 183.776 158.628C184.372 158.971 185.017 158.88 185.646 158.873C186.351 158.866 187.205 158.791 187.387 159.63C187.602 160.621 186.646 160.725 185.979 161.043C183.946 162.014 181.589 162.095 179.651 163.25C177.587 164.48 175.371 165.394 173.262 166.532C168.682 169.002 164.291 171.768 160.502 175.272C157.193 178.332 153.799 181.333 150.879 184.836C148.717 187.43 146.842 190.199 145.302 193.129C143.758 196.069 142.222 199.074 141.361 202.342C140.819 204.4 139.993 206.364 139.18 208.331C139.031 208.692 138.86 209.232 139.426 209.433C139.874 209.591 140.292 209.4 140.414 208.889C141.094 206.037 142.15 203.328 143.258 200.614C144.43 197.743 145.464 194.85 147.776 192.642C148.323 192.12 148.909 191.474 148.884 190.738C148.795 188.149 150.886 186.57 152.356 185.528C155.589 183.237 157.934 180.088 161.019 177.724C161.722 177.186 162.3 175.739 163.282 176.634C164.129 177.405 162.944 178.314 162.513 179.12C161.182 181.613 158.505 182.851 157.008 185.284C154.619 189.163 150.77 192.023 149.003 196.383C148.984 196.431 148.94 196.469 148.906 196.51C147.084 198.682 146.386 201.42 145.461 203.974C144.403 206.895 143.589 209.935 142.745 212.945C141.766 216.442 140.651 219.851 140.594 223.518C140.545 226.748 140.032 229.994 141.016 233.181C141.182 233.719 141.062 234.507 141.86 234.528C142.637 234.549 142.638 233.75 142.817 233.229C143.107 232.385 142.944 231.539 142.654 230.717C142.512 230.317 142.288 229.928 142.236 229.517C142.137 228.73 142.286 227.959 143.161 227.695C144.04 227.43 144.521 227.95 144.893 228.716C145.814 230.61 146.114 232.689 145.81 234.655C145.559 236.282 145.779 237.696 146.177 239.194C146.793 241.509 147.461 243.805 148.271 246.061C148.513 246.736 148.563 247.495 147.839 247.92C147.251 248.265 146.744 247.768 146.493 247.353C145.378 245.506 143.855 243.823 144.078 241.406C144.176 240.34 143.991 239.272 143.654 238.243C143.449 237.621 143.251 236.89 142.407 237.082C141.541 237.279 141.404 238.08 141.642 238.761C142.937 242.479 143.371 246.479 145.373 249.971C145.918 250.923 146.643 251.728 146.998 252.863C147.658 254.976 148.569 257.001 149.98 258.815C151.089 260.241 152.471 261.524 153.35 263.019C155.458 266.598 158.893 269.035 161.048 272.529C161.235 272.832 161.581 273.051 161.883 273.269C164.256 274.987 166.695 276.621 168.99 278.437C170.254 279.436 171.742 280.077 172.948 281.114C175.537 283.341 178.744 284.367 181.896 285.071C183.404 285.409 184.829 285.729 186.131 286.483C187.131 287.062 188.204 287.29 189.282 287.598C191.984 288.368 194.826 287.624 197.525 288.442C198.381 288.701 199.353 288.928 200.205 288.782C204.132 288.109 208.15 288.785 212.077 287.7C214.316 287.081 216.843 287.857 219.095 286.746C219.566 286.513 220.111 286.415 220.632 286.305C221.04 286.219 221.364 286.414 221.558 286.783C221.759 287.166 221.676 287.541 221.362 287.799C220.995 288.099 220.601 288.468 220.166 288.565C217.961 289.058 215.687 289.066 213.469 289.605C211.465 290.091 209.316 289.991 207.323 290.507C205.496 290.98 203.575 291.255 201.82 291.222C198.326 291.155 194.735 291.264 191.335 290.165C189.684 289.631 187.972 289.586 186.32 289.219C184.414 288.795 182.582 288.01 180.744 287.314C179.79 286.952 178.956 286.957 178.11 287.547C178.461 288.19 179.066 288.157 179.517 288.406C181.518 289.511 183.783 289.715 185.933 290.292C187.326 290.665 188.611 291.318 190.053 291.569C195.054 292.438 200.09 292.63 205.148 292.584C205.727 292.578 206.367 292.89 206.876 292.73C209.772 291.82 212.813 291.702 215.757 291.007C218.323 290.402 221.014 290.354 223.547 289.416C228.405 287.616 233.198 285.632 237.735 283.162C240.942 281.415 244.888 280.568 246.739 276.828C246.841 276.622 247.236 276.575 247.381 276.373C248.237 275.186 250.021 275.254 250.75 274.107C252.133 271.93 253.301 269.623 255.4 267.994C255.599 267.84 255.728 267.568 255.835 267.327C256.76 265.245 258.907 264.08 259.823 261.972C260.109 261.314 260.822 261.102 261.446 261.612C262.192 262.221 261.698 262.752 261.183 263.186C260.162 264.048 259.566 265.152 259.21 266.419C259.111 266.77 258.989 267.225 258.724 267.402C256.614 268.812 256.066 271.017 255.563 273.443C256.678 272.52 257.206 271.131 258.61 270.755C258.75 270.718 258.88 270.424 258.91 270.233C259.284 267.778 260.837 265.863 262.306 264.119C263.479 262.727 264.498 261.341 265.268 259.725C266.461 257.225 268.233 255.046 269.187 252.4C269.955 250.271 271.8 248.714 271.983 246.166C272.155 243.769 273.116 241.407 273.799 239.092C274.339 237.257 274.242 235.336 274.991 233.546C275.506 232.314 275.561 230.825 274.169 229.739C273.721 230.203 273.742 230.76 273.613 231.255C273.157 233.011 273.164 234.831 272.74 236.63C272.148 239.138 271.182 241.617 270.978 244.199C270.787 246.619 269.318 248.504 268.707 250.708C268.12 252.826 266.33 254.372 266.087 256.587C265.963 257.709 265.219 258.4 264.582 259.162C264.021 259.832 263.173 260.093 262.412 259.64C261.55 259.127 261.948 258.286 262.297 257.644C262.805 256.712 263.631 255.917 263.979 254.941C264.896 252.376 266.408 250.103 267.399 247.588C267.791 246.591 268.933 245.763 268.737 244.748C268.321 242.583 269.696 240.927 270.004 238.981C270.414 236.391 271.804 233.945 270.78 231.175C270.546 230.542 270.355 229.686 270.704 228.974C271.348 227.656 271.184 226.271 271.194 224.888C271.208 222.869 271.238 220.849 271.321 218.832C271.342 218.33 271.408 217.835 271.032 217.483C269.575 216.12 269.973 214.09 269.208 212.466C268.825 211.651 269.647 211.005 270.254 210.476C270.516 210.247 270.963 210.185 271.094 210.516C271.578 211.733 272.933 212.676 272.592 214.13C271.584 218.429 274.392 222.342 273.767 226.589C273.726 226.873 273.905 227.3 274.275 227.299C274.807 227.298 274.735 226.792 274.776 226.446C275.089 223.825 275.625 221.29 274.973 218.54C274.634 217.109 274.826 215.542 273.898 214.202C273.192 213.185 273.489 211.735 272.616 210.821C272.014 210.191 270.981 209.873 272.49 209.068C273.017 208.786 272.761 207.984 272.544 207.435C272.231 206.642 271.898 205.853 271.516 205.092C271.253 204.566 271.098 203.611 270.264 204.023C269.506 204.396 269.917 205.233 270.282 205.701C271.007 206.632 271.016 207.7 271.05 208.749C271.078 209.646 270.345 210.011 269.591 210.214C269.114 210.342 268.873 209.989 268.84 209.592C268.644 207.144 267.562 204.984 266.633 202.781C265.562 200.24 264.367 197.762 262.988 195.364C262.344 194.242 260.982 193.608 260.752 192.345C260.379 190.301 259.265 188.581 258.023 187.185C256.083 185.002 254.016 182.925 252.187 180.632C251.976 180.366 251.712 180.008 251.283 180.275C250.836 181.734 251.768 182.785 252.612 184.235C250.298 183.472 248.57 182.485 247.293 180.891C246.857 180.346 246.248 179.46 246.989 178.71C247.706 177.985 248.352 178.753 248.996 179.053C249.141 179.121 249.274 179.222 249.426 179.267C249.816 179.383 250.28 179.801 250.603 179.396C250.977 178.926 250.546 178.505 250.203 178.162C249.938 177.897 249.669 177.63 249.367 177.413C245.785 174.829 242.222 172.217 238.59 169.703C237.671 169.067 236.755 168.424 235.833 167.79C234.646 166.973 233.709 165.836 232.388 165.198C229.352 163.731 226.235 162.502 222.937 161.744C221.952 161.518 220.963 161.207 220.215 160.453C219.604 159.837 219.294 159.206 220.315 158.678C220.651 158.505 221.041 158.381 220.983 157.902C220.92 157.373 220.485 157.25 220.06 157.155C218.447 156.793 216.834 156.426 215.215 156.093C214.76 156 214.165 155.735 213.852 156.162C213.44 156.724 214.175 156.939 214.426 157.292C215.127 158.276 214.892 159.338 213.813 159.331C211.531 159.318 209.226 159.18 207.061 158.294C206.686 158.141 206.453 157.83 206.435 157.43C206.411 156.909 206.83 156.724 207.218 156.528C207.78 156.245 208.512 156.457 209.116 155.81M137.679 226.123C136.428 227.576 136.458 229.197 137.006 230.913C137.148 231.359 137.206 231.862 137.169 232.329C137.005 234.395 138.312 236.29 137.852 238.39C137.815 238.562 137.979 238.791 138.08 238.977C138.307 239.397 138.663 239.615 139.139 239.48C139.68 239.325 139.693 238.874 139.598 238.437C139.114 236.218 139.429 233.848 138.316 231.747C138.112 231.362 138.172 230.932 138.196 230.497C138.275 229.014 138.234 227.535 137.673 226.123C137.85 224.723 138.021 223.322 138.206 221.923C138.615 218.825 138.595 215.681 139.208 212.604C139.306 212.113 139.727 211.406 139.07 211.2C138.37 210.979 138.186 211.78 137.969 212.306C137.89 212.498 137.885 212.724 137.861 212.936C137.481 216.365 137.11 219.794 136.724 223.223C136.598 224.343 136.754 225.355 137.679 226.123M156.316 290.613C153.137 288.838 149.803 284.862 145.884 281.578C145.339 281.121 145.038 280.483 144.6 279.957C142.781 277.767 141.26 275.359 139.09 273.418C137.307 271.824 136.289 269.543 135.277 267.353C135.008 266.772 134.863 266.074 134.447 265.631C132.192 263.234 131.114 260.207 129.916 257.264C127.978 252.508 125.617 247.87 125.332 242.593C125.323 242.434 125.33 242.253 125.26 242.12C123.692 239.146 124.255 235.731 123.298 232.64C122.459 229.929 123.144 227.223 123.204 224.523C123.265 221.862 123.453 219.187 123.847 216.557C124.348 213.208 124.881 209.856 126.021 206.628C126.796 204.434 127.426 202.178 127.962 199.912C128.472 197.754 129.491 195.808 130.326 193.796C131.607 190.711 132.969 187.629 134.649 184.751C135.562 183.186 137.073 181.953 137.961 180.292C140.242 176.024 144.109 173.149 147.262 169.642C150.763 165.747 155.039 162.845 159.109 159.67C160.994 158.201 163.012 156.88 164.972 155.54C167.391 153.887 170.243 152.347 173.074 151.95C176.55 151.463 179.501 149.601 182.97 149.202C186.402 148.808 189.728 147.524 193.159 147.082C196.155 146.696 199.224 146.837 202.262 146.659C206.789 146.395 211.337 146.499 215.84 147.179C217.939 147.497 220.055 147.694 222.005 148.766C222.836 149.222 223.993 149.049 224.98 149.266C227.9 149.908 230.655 151.097 233.549 151.864C239.656 153.484 244.418 157.576 249.549 160.985C252.496 162.943 255.35 164.999 257.773 167.59C259.2 169.115 260.888 170.328 262.427 171.714C263.282 172.484 263.826 173.587 264.61 174.449C268.329 178.535 271.466 183.061 274.227 187.809C276.42 191.579 278.288 195.537 279.556 199.773C280.256 202.112 280.766 204.485 281.394 206.799C282.276 210.045 282.383 213.414 283.434 216.591C283.468 216.693 283.521 216.802 283.509 216.901C283.053 220.7 284.104 224.414 284.125 228.217C284.158 234.098 282.786 239.677 281.44 245.255C280.713 248.268 279.46 251.236 278.662 254.239C277.776 257.571 275.841 260.314 274.656 263.439C273.93 265.354 272.864 267.068 271.26 268.406C270.936 268.676 270.598 269 270.429 269.373C268.773 273.029 265.821 275.729 263.458 278.86C261.656 281.248 259.041 282.794 256.982 284.951C253.917 288.163 249.928 290.266 246.495 293.052C244.509 294.664 242.075 295.413 239.905 296.657C237.06 298.289 233.758 298.933 230.992 300.561C228.21 302.2 224.957 301.423 222.312 302.919C219.944 304.258 217.344 304.076 214.841 304.428C210.722 305.008 206.575 305.514 202.425 305.691C199.62 305.81 196.785 305.352 193.97 305.076C191.69 304.852 189.409 304.582 187.149 304.208C184.418 303.756 181.717 303.148 179.122 302.145C175.989 300.935 172.814 299.844 169.705 298.558C165.327 296.746 161.406 294.229 156.316 290.613" fill="black"/>
<path fill-rule="evenodd" clip-rule="evenodd" d="M240.728 258.319C239.673 260.525 237.395 262.052 235.547 263.953C234.237 265.3 232.339 265.973 230.761 267.062C228.454 268.655 226.084 270.235 223.401 271.211C222.965 271.369 222.116 271.477 222.381 272.167C222.645 272.854 223.419 273.119 224.151 272.78C225.459 272.176 226.737 271.506 228.014 270.838C230.566 269.504 233.03 268.031 235.223 266.137C235.647 265.771 236.195 265.565 236.657 266.061C237.07 266.503 236.821 267.039 236.504 267.37C235.16 268.773 234.083 270.344 232.228 271.353C229.348 272.92 226.273 273.95 223.337 275.33C221.075 276.394 218.681 276.855 216.242 277.177C216.084 277.198 215.91 277.151 215.764 277.199C215.039 277.438 214.178 277.764 214.356 278.648C214.55 279.609 215.483 279.258 216.105 279.104C218.979 278.389 221.716 277.193 224.542 276.377C227.585 275.498 230.327 274.04 232.9 272.416C235.837 270.562 238.819 268.684 241.386 266.219C242.61 265.044 244.178 264.248 245.037 262.654C245.364 262.049 245.858 261.548 245.951 260.816C246.022 260.259 246.344 259.751 246.807 259.506C248.905 258.398 249.955 256.526 251.042 254.506C252.37 252.036 254.278 249.839 255.349 247.25C256.093 245.452 256.497 243.5 257.239 241.653C257.608 240.734 257.759 239.648 258.118 238.641C259.37 235.134 259.781 231.52 259.211 227.819C259.107 227.143 259.127 226.433 259.188 225.747C259.346 223.962 259.211 222.178 258.631 220.524C257.422 217.07 257.999 213.311 256.729 209.872C256.476 209.187 256.67 208.294 257.663 208.136C258.651 207.98 259.024 208.745 259.095 209.501C259.375 212.492 261.013 215.144 261.164 218.157C261.335 221.536 261.743 224.917 261.366 228.297C261.263 229.225 261.472 230.097 261.392 230.994C260.951 235.935 260.202 240.822 257.879 245.28C257.295 246.401 257.249 247.612 256.664 248.715C254.83 252.175 252.986 255.623 250.738 258.837C250.157 259.668 249.5 260.454 248.652 261.048C247.349 261.958 247.297 263.75 245.941 264.697C242.084 267.389 239.375 271.456 235.229 273.814C233.837 274.606 232.411 275.347 230.961 276.025C227.319 277.726 223.698 279.57 219.715 280.267C216.501 280.829 213.476 282.423 210.072 282.021C209.218 281.919 208.271 282.252 207.415 282.533C204.548 283.477 201.65 283.41 198.725 283.007C195.886 282.616 192.985 282.483 190.222 281.798C187.475 281.118 184.675 280.581 182.046 279.356C179.186 278.022 176.049 277.209 173.529 275.243C170.343 272.757 166.615 270.82 164.702 266.957C164.157 265.857 163.008 265.997 162.154 266.183C161.455 266.336 161.817 267.156 162.056 267.674C162.362 268.337 163.386 269.068 162.487 269.683C161.735 270.198 161.05 269.232 160.579 268.626C159.425 267.143 157.757 266.216 156.574 264.753C155.978 264.017 155.612 263.238 155.324 262.383C155.144 261.847 155.117 261.284 155.7 260.974C156.272 260.669 156.683 260.997 157.078 261.426C157.94 262.361 158.599 263.495 159.707 264.186C160.057 264.404 160.506 264.762 160.874 264.458C161.331 264.078 160.857 263.589 160.634 263.35C158.943 261.534 158.532 258.999 156.914 257.079C154.927 254.721 153.984 251.666 152.802 248.832C151.943 246.775 150.946 244.764 150.252 242.64C149.489 240.3 150.465 238.002 150.682 235.695C150.771 234.748 151.936 234.677 152.452 235.56C152.987 236.476 153.314 237.457 153.366 238.578C153.602 243.683 155.456 248.329 157.577 252.872C157.911 253.588 158.347 254.245 158.565 255.03C159.195 257.304 160.639 259.082 162.16 260.806C162.371 261.044 162.645 261.262 162.761 261.543C164.98 266.936 169.796 269.522 174.31 272.52C175.885 273.565 177.26 274.972 179.096 275.542C183.013 276.756 186.707 278.562 190.759 279.47C194.011 280.199 197.232 280.464 200.526 280.48C201.549 280.485 202.543 280.36 203.55 280.231C205.018 280.043 206.443 279.833 207.947 280.425C208.977 280.83 210.29 280.846 210.989 279.479C211.332 278.808 211.19 278.431 210.411 278.484C209.508 278.545 208.479 278.434 207.737 278.833C206.454 279.525 205.485 278.732 204.391 278.537C204.013 278.47 203.687 278.225 203.671 277.787C203.652 277.231 204.099 277.152 204.509 276.99C206.441 276.225 208.507 276.109 210.495 276.138C214.278 276.193 217.62 274.338 221.275 273.944C221.714 273.897 221.984 273.651 221.832 273.18C221.667 272.67 221.298 272.412 220.739 272.441C218.651 272.548 216.648 273.183 214.598 273.47C211.607 273.889 208.646 275.339 205.698 274.9C201.766 274.315 197.709 274.646 193.874 273.325C192.528 272.86 191.073 272.702 189.661 272.435C186.297 271.798 183.692 269.716 181.006 267.837C179.702 266.925 178.334 266.067 177.124 265.058C172.903 261.539 169.55 257.348 167.888 251.986C167.615 251.106 167.653 250.216 168.57 249.75C169.432 249.312 170.193 249.774 170.612 250.507C171.821 252.624 173.196 254.653 174.076 256.951C174.615 258.358 175.367 259.604 176.612 260.547C177.922 261.54 179.188 262.583 180.305 263.823C181.779 265.46 183.664 266.513 185.765 267.251C188.764 268.305 191.696 269.547 194.682 270.639C198.166 271.914 201.869 271.206 205.441 271.67C209.704 272.223 213.67 270.869 217.694 269.885C222.605 268.685 227.147 266.358 230.946 263.238C234.668 260.181 238.296 256.932 241.312 252.904C244.694 248.387 246.466 243.536 247.729 238.278C247.913 237.511 248.338 236.802 248.651 236.065C248.945 235.367 249.377 234.797 250.217 235.065C250.991 235.312 251.28 236.021 251.103 236.745C250.559 238.969 250.332 241.292 249.21 243.347C248.816 244.067 248.495 244.815 248.461 245.612C248.375 247.637 247.496 249.374 246.316 250.887C244.473 253.252 243.019 255.901 240.728 258.319" fill="black"/>
<path fill-rule="evenodd" clip-rule="evenodd" d="M263.409 253.277C262.986 253.752 262.436 254.227 261.796 253.724C261.22 253.269 261.499 252.661 261.847 252.146C263.989 248.973 265.244 245.345 266.168 241.745C266.999 238.509 267.551 235.085 267.414 231.65C267.393 231.125 267.524 230.591 267.611 230.066C267.868 228.526 267.992 227.006 267.328 225.513C266.369 223.358 267.151 221.071 266.881 218.849C266.62 216.695 266.556 214.624 265.605 212.513C264.811 210.752 264.604 208.644 263.985 206.711C263.351 204.73 262.539 202.864 261.663 200.992C261.044 199.671 260.953 198.136 260.11 196.857C259.806 196.395 260.039 195.766 260.681 195.581C261.355 195.387 261.725 195.778 262.082 196.342C263.579 198.706 264.14 201.45 265.261 203.951C266.428 206.554 266.824 209.353 267.747 212.015C268.622 214.541 269.024 217.294 269.255 220.015C269.485 222.727 269.542 225.462 269.772 228.155C269.965 230.4 269.63 232.481 269.411 234.641C268.918 239.499 268.192 244.232 265.556 248.535C264.677 249.968 264.718 251.937 263.409 253.277" fill="black"/>
<path fill-rule="evenodd" clip-rule="evenodd" d="M255.063 190.477C255.607 191.275 256.487 192.16 256.888 193.229C258.082 196.409 260.313 199.017 261.574 202.144C262.851 205.311 263.663 208.612 264.492 211.924C265.984 217.879 265.887 223.958 266.075 230.016C266.133 231.884 265.653 233.736 264.963 235.503C264.864 235.756 264.802 236.044 264.468 236.055C264.057 236.068 263.945 235.749 263.872 235.428C263.545 233.999 263.481 232.552 263.803 231.116C264.044 230.045 264.027 228.994 263.858 227.926C263.538 225.913 263.293 223.905 263.54 221.845C263.774 219.901 263.292 218 262.908 216.114C262.608 214.645 262.354 213.169 262.069 211.7C261.463 208.581 259.939 205.797 258.52 203C257.943 201.862 257.187 200.849 256.965 199.526C256.667 197.751 255.122 196.707 254.242 195.263C253.567 194.155 252.897 193.07 252.699 191.771C252.597 191.097 252.785 190.481 253.447 190.124C253.982 189.837 254.481 189.897 255.063 190.477" fill="black"/>
<path fill-rule="evenodd" clip-rule="evenodd" d="M243.506 257.137C246.591 253.811 248.929 250.161 250.491 246.078C252.118 241.823 253.497 237.397 253.531 232.899C253.553 229.881 254.421 226.899 253.942 223.892C253.901 223.635 253.925 223.359 253.96 223.096C254.084 222.163 254.314 221.072 255.4 221.082C256.491 221.092 256.299 222.259 256.488 223.062C257.374 226.819 256.37 230.58 256.134 234.31C255.891 238.165 254.45 241.864 253.019 245.519C251.659 248.995 249.506 251.998 247.649 255.168C246.12 257.781 244.048 260.06 242.005 262.318C241.519 262.856 240.93 263.418 240.237 262.86C239.448 262.225 239.98 261.514 240.456 260.913C241.49 259.607 242.548 258.32 243.506 257.137" fill="black"/>
<path fill-rule="evenodd" clip-rule="evenodd" d="M176.711 272.497C173.56 270.209 170.445 267.884 168.034 264.801C165.908 262.083 163.584 259.494 161.973 256.413C161.626 255.75 161.138 254.971 161.962 254.461C162.89 253.885 163.513 254.739 163.839 255.4C165.022 257.799 167.058 259.627 168.268 262.016C169.329 264.112 171.266 265.496 173.172 266.741C174.699 267.739 176.139 268.812 177.531 269.975C179.796 271.869 182.34 273.066 185.182 273.966C188.373 274.977 191.684 275.372 194.825 276.491C196.239 276.996 197.643 276.53 199.049 276.765C200.059 276.934 201.402 277.024 201.36 278.195C201.319 279.343 199.787 279.322 199.038 279.087C195.8 278.071 192.427 278.392 189.132 277.337C185.176 276.068 181.423 274.374 177.581 272.869C177.287 272.754 177 272.622 176.711 272.497" fill="black"/>
<path fill-rule="evenodd" clip-rule="evenodd" d="M243.062 272.563C242.122 273.525 240.58 273.944 240.684 275.639C240.687 275.69 240.525 275.789 240.432 275.8C236.544 276.279 233.884 279.192 230.55 280.773C229.525 281.259 228.451 281.697 227.414 281.97C225.109 282.579 223.007 283.501 221.047 284.808C220.96 284.866 220.848 284.918 220.747 284.918C215.39 284.895 210.334 287.002 204.987 287.054C203.964 287.065 202.941 287.127 201.918 287.159C201.158 287.182 200.391 287.18 199.735 286.714C198.836 286.074 198.903 285.398 199.898 284.949C200.093 284.861 200.304 284.729 200.504 284.737C203.022 284.833 205.418 283.808 207.967 284.06C211.062 284.365 214.051 283.536 217.067 283.027C219.586 282.603 221.831 281.362 224.325 280.761C226.518 280.232 228.786 279.315 230.865 278.171C232.686 277.169 234.671 276.523 236.445 275.351C237.794 274.46 239.12 273.575 240.291 272.475C240.813 271.984 241.407 271.64 242.028 271.319C242.444 271.103 242.918 270.671 243.329 271.166C243.759 271.683 243.328 272.168 243.062 272.563" fill="black"/>
<path fill-rule="evenodd" clip-rule="evenodd" d="M260.681 256.29C259.252 260.254 257.266 263.669 254.75 266.849C253.024 269.032 251.005 270.823 248.857 272.532C248.192 273.061 247.61 273.686 247.214 274.457C247.165 274.551 247.131 274.702 247.055 274.726C245.346 275.282 244.423 276.955 242.829 277.632C241.687 278.116 240.686 278.643 239.875 279.643C238.639 281.167 236.62 281.616 234.952 282.489C232.761 283.634 230.558 284.808 228.258 285.764C227.426 286.11 226.541 286.339 225.715 286.699C224.878 287.064 224.008 287.185 223.703 286.175C223.41 285.205 224.196 284.352 225.044 284.363C226.814 284.384 228.266 283.717 229.734 282.97C232.279 281.677 234.953 280.62 237.343 279.048C238.056 278.58 238.702 278.04 239.618 277.965C240.175 277.92 240.845 277.645 240.888 277.143C241.007 275.716 242.29 275.607 243.076 274.909C245.148 273.07 247.618 271.664 249.167 269.235C250.101 267.769 251.449 266.569 252.369 265.096C253.718 262.933 255.991 261.496 257.062 259.207C257.75 257.737 258.6 256.736 260.122 256.271C260.213 256.243 260.323 256.275 260.681 256.29" fill="black"/>
<path fill-rule="evenodd" clip-rule="evenodd" d="M246.275 267.689C248.62 264.793 250.865 261.805 253.35 259.034C254.787 257.433 254.917 255.409 255.741 253.623C256.16 252.715 256.455 251.821 257.347 251.172C258.055 250.657 258.41 249.746 258.726 248.907C259.518 246.802 260.232 244.667 261.072 242.582C261.401 241.767 261.671 240.377 262.84 240.784C263.915 241.158 263.527 242.497 263.201 243.311C261.487 247.6 259.93 251.971 257.456 255.911C255.501 259.024 253.516 262.121 251.459 265.167C250.394 266.743 248.672 267.689 247.338 269.024C246.866 269.496 246.012 270.021 245.37 269.309C244.637 268.497 245.67 268.05 246.275 267.689" fill="black"/>
<path fill-rule="evenodd" clip-rule="evenodd" d="M184.692 283.789C183.962 283.109 183.225 282.739 183.566 281.998C183.971 281.116 184.792 281.506 185.386 281.756C188.837 283.208 192.487 283.816 196.144 284.43C196.805 284.54 197.825 284.616 197.631 285.693C197.422 286.851 196.576 286.527 195.746 286.362C193.454 285.907 191.129 285.61 188.843 285.126C187.309 284.802 185.765 284.416 184.692 283.789" fill="black"/>
</svg>
