<svg width="320" height="86" viewBox="0 0 320 86" fill="none" xmlns="http://www.w3.org/2000/svg">
<path fill-rule="evenodd" clip-rule="evenodd" d="M11.7306 0L8.25368 7.61059L0 9.06661L6.17944 14.718L5.01697 23L12.3141 18.8821L19.85 22.5444L18.1802 14.3488L24 8.32818L15.6702 7.38132L11.7306 0Z" fill="#F6D500"/>
<path fill-rule="evenodd" clip-rule="evenodd" d="M55 68.7912L65.9616 62.5463L67.0192 50L76.3602 58.4692L88.6505 55.5956L83.4609 67.0736L90 77.8443L77.452 76.4684L69.2029 86L66.6364 73.6721L55 68.7912Z" fill="#80A08D"/>
<path fill-rule="evenodd" clip-rule="evenodd" d="M302.662 54.8865L294 58.3029L302.054 62.9205L302.715 72L309.713 65.9652L318.786 68.1602L315.055 59.8152L320 52.0924L310.698 52.9667L304.682 46L302.662 54.8865Z" fill="#F6D500"/>
<path fill-rule="evenodd" clip-rule="evenodd" d="M153.039 46L152.504 38.3173L146 34.4103L152.996 31.52L154.628 24L159.486 29.8956L167 29.1551L163.005 35.6897L166.017 42.7514L158.691 40.8956L153.039 46Z" fill="#F7B8AE"/>
</svg>
