<svg width="905" height="119" viewBox="0 0 905 119" fill="none" xmlns="http://www.w3.org/2000/svg">
<path fill-rule="evenodd" clip-rule="evenodd" d="M16.7664 41.5325L0 42.6875L11.111 55.3568L7.02163 71.7373L22.4481 65.0325L36.6874 74L35.11 57.1878L48 46.3514L31.5992 42.6648L25.3239 27L16.7664 41.5325Z" fill="#FB8547"/>
<path fill-rule="evenodd" clip-rule="evenodd" d="M78.6629 99.596L68 101.432L75.9818 108.559L74.4822 119L83.9057 113.81L93.6415 118.426L91.4827 108.092L99 100.503L88.2426 99.3088L83.154 90L78.6629 99.596Z" fill="#114837"/>
<path fill-rule="evenodd" clip-rule="evenodd" d="M141.48 82L142.982 71.5574L135 64.4337L145.661 62.596L150.152 53L155.241 62.3088L166 63.5026L158.481 71.0919L160.64 81.4256L150.906 76.8078L141.48 82Z" fill="#F7B8AE"/>
<path fill-rule="evenodd" clip-rule="evenodd" d="M235 58.011L249.094 50.0314L250.453 34L262.463 44.8217L278.265 41.1499L271.593 55.8163L280 69.5789L263.867 67.8208L253.261 80L249.961 64.2477L235 58.011Z" fill="#80A08D"/>
<path fill-rule="evenodd" clip-rule="evenodd" d="M235 58.011L249.094 50.0314L250.453 34L262.463 44.8217L278.265 41.1499L271.593 55.8163L280 69.5789L263.867 67.8208L253.261 80L249.961 64.2477L235 58.011Z" fill="#80A08D"/>
<path fill-rule="evenodd" clip-rule="evenodd" d="M860 80.011L874.094 72.0314L875.453 56L887.463 66.8217L903.265 63.1499L896.593 77.8163L905 91.5789L888.867 89.8208L878.261 102L874.961 86.2477L860 80.011Z" fill="#C9CFDA"/>
<path fill-rule="evenodd" clip-rule="evenodd" d="M361.996 9.5696L353 13.2504L361.363 18.2233L362.05 28L369.319 21.5031L378.737 23.8651L374.863 14.877L380 6.56152V6.55962L370.338 7.50214L364.094 0L361.996 9.5696Z" fill="#F7B8AE"/>
</svg>
